<svg width="17" height="24" viewBox="0 0 17 24" fill="none" xmlns="http://www.w3.org/2000/svg">
<mask id="path-1-inside-1_126_640" fill="white">
<path fill-rule="evenodd" clip-rule="evenodd" d="M0.97852 22.5786C5.08392 20.823 7.96066 16.7475 7.96066 12C7.96066 7.25254 5.08392 3.17698 0.978516 1.42139C2.36543 0.828311 3.89256 0.5 5.49637 0.5C11.8476 0.5 16.9964 5.64873 16.9964 12C16.9964 18.3513 11.8476 23.5 5.49637 23.5C3.89256 23.5 2.36543 23.1717 0.97852 22.5786Z"/>
</mask>
<path fill-rule="evenodd" clip-rule="evenodd" d="M0.97852 22.5786C5.08392 20.823 7.96066 16.7475 7.96066 12C7.96066 7.25254 5.08392 3.17698 0.978516 1.42139C2.36543 0.828311 3.89256 0.5 5.49637 0.5C11.8476 0.5 16.9964 5.64873 16.9964 12C16.9964 18.3513 11.8476 23.5 5.49637 23.5C3.89256 23.5 2.36543 23.1717 0.97852 22.5786Z" fill="white"/>
<path d="M0.97852 22.5786L0.585334 21.6591L-1.5648 22.5786L0.585333 23.4981L0.97852 22.5786ZM0.978516 1.42139L0.58533 0.501934L-1.56481 1.42139L0.58533 2.34085L0.978516 1.42139ZM6.96066 12C6.96066 16.3331 4.33577 20.0554 0.585334 21.6591L1.37171 23.4981C5.83207 21.5907 8.96066 17.1618 8.96066 12H6.96066ZM0.58533 2.34085C4.33577 3.94464 6.96066 7.66692 6.96066 12H8.96066C8.96066 6.83815 5.83207 2.40931 1.3717 0.501934L0.58533 2.34085ZM1.3717 2.34085C2.63662 1.79994 4.03018 1.5 5.49637 1.5V-0.5C3.75494 -0.5 2.09423 -0.143314 0.58533 0.501934L1.3717 2.34085ZM5.49637 1.5C11.2954 1.5 15.9964 6.20101 15.9964 12H17.9964C17.9964 5.09644 12.3999 -0.5 5.49637 -0.5V1.5ZM15.9964 12C15.9964 17.799 11.2954 22.5 5.49637 22.5V24.5C12.3999 24.5 17.9964 18.9036 17.9964 12H15.9964ZM5.49637 22.5C4.03018 22.5 2.63663 22.2001 1.37171 21.6591L0.585333 23.4981C2.09424 24.1433 3.75494 24.5 5.49637 24.5V22.5Z" fill="black" mask="url(#path-1-inside-1_126_640)"/>
</svg>
