<svg xmlns="http://www.w3.org/2000/svg" xmlns:xlink="http://www.w3.org/1999/xlink" width="400" height="400" viewBox="0 0 400 400"><defs><clipPath id="a"><circle cx="200" cy="200" r="200" fill="#fff" stroke="#707070" stroke-width="1"/></clipPath></defs><g transform="translate(-2121 -593)"><g transform="translate(2228.205 615.998)"><g transform="translate(0 0)"><g transform="translate(0 0)"><g transform="translate(2.5 7.897)"><path d="M128.772,75.26c22.133,0,45.026,17.156,53.139,28.1,6.821,9.2,10.494,50.825,10.494,78.953,0,5.883,3.246,16.972,2.3,22.6-3.472,20.62-18.6,37.913-48.533,37.913S94.771,230.963,72.52,199.1c-10.8,0-16.028-8.279-16.105-21.345q-.075-13.066,10.422-17.819-3.743-51.563,5.683-64.987C81.946,81.529,106.638,75.26,128.772,75.26Z" transform="translate(-56.414 -75.26)" fill="#fff" fill-rule="evenodd"/></g><path d="M115.544,55.606c13.974-1.415,27.668-.226,41.44,2.234a2.264,2.264,0,0,1,1.871,1.711c6.487.3,12.981.772,19.459,1.127a3.063,3.063,0,0,1,2.612,4.549c-.214.417-.437.822-.663,1.227l.284-.094a7.6,7.6,0,0,1,5.953.059,5.955,5.955,0,0,1,2.83,6.615,10.131,10.131,0,0,1-.628,1.895,8.081,8.081,0,0,1,1.594.047,5.693,5.693,0,0,1,5.067,5.418c.218,4.35-2.584,8.763-5.886,11.877a5.512,5.512,0,0,1,.463,3.325c-.4,2.327-2.112,3.721-4.1,4.63a21.349,21.349,0,0,1,.989,8.194,2.269,2.269,0,0,1-1.765,1.9c3.23,8.893,4.865,18.441,6.04,27.744a168.867,168.867,0,0,1,1.3,19.946q.037,4.517-.151,9.037l-.051,1.129a76.355,76.355,0,0,1-.748,9.894c2,3.395,2.8,7.609,3.138,11.413a35.122,35.122,0,0,1-1.731,14.045c-5.605,16.925-22.522,27.605-39.514,30.381-15.728,2.569-33.928-.889-43.119-15.175-.144-.226.164-.413.343-.265,6.576,5.348,14.2,7.733,22.492,8.895,14.329,2,30.435-1.4,41.934-10.407a32.682,32.682,0,0,0,11.25-17.4,30.694,30.694,0,0,0,.849-10.645c-.359-3.617-1.96-6.7-2.97-10.123a3.054,3.054,0,0,1,.725-2.99c.2-2.776.667-5.575.845-8.342q.3-4.719.363-9.441c.082-6.533-.191-13.078-.741-19.583-1.006-11.913-3.676-23.536-5.243-35.347a1.942,1.942,0,0,1-2.284.279l-.09-.049-.476-.272a.718.718,0,0,0-.086.007,25.035,25.035,0,0,1-9.749-1.107,28.678,28.678,0,0,1-9-4.65,40.993,40.993,0,0,0-.732,7.9,2.123,2.123,0,0,1-3.157,1.813,131.7,131.7,0,0,1-17.7-10.833q-.983,5.034-1.969,10.072a2.028,2.028,0,0,1-2.959,1.2A37.494,37.494,0,0,1,121.091,98q-.885,1.692-1.777,3.381l-.9,1.686c-.885,1.657-2.07,3.489-4.007,4.019a3.729,3.729,0,0,1-4.452-2.623c-.21-.577-.405-1.169-.585-1.766a102.672,102.672,0,0,1-5.948,11.6,153.23,153.23,0,0,1-11.363,15.646c-1.216,1.548-3.3.07-3.465-1.434-.1-.885-.179-1.774-.25-2.659-2.333,4.707-4.766,9.37-7.418,13.9l.38,1.488h0c1.094,4.4,2,8.824,2.991,13.243.319,1.426-.439,3.465-2.1,3.707-1.99.29-3.873,1.307-5.912.607-2.223-.763-2.662-2.685-3.712-4.506a7.359,7.359,0,0,0-.715-1.013l-.067.087h0c-.164.215-.554-.019-.456-.265l.114-.284h0a39.162,39.162,0,0,0-2.973-2.614,10.591,10.591,0,0,0-6.634,1c-3.7,2.182-5.4,6.681-5.433,10.817A28.454,28.454,0,0,0,60.4,176.437a10.074,10.074,0,0,0,4.662,4.272c2,.8,4.175.554,6.214,1.309a2.317,2.317,0,0,1,1.364,3.356c-.055.094-.117.179-.176.269l.606.8c.417.557.852,1.154,1.257,1.775,1.037,1.193,2.128,2.343,3.185,3.516,1.953,2.163,3.847,4.385,5.769,6.579,1.813,2.07,3.731,4.015,5.707,5.929,1.867,1.813,4.2,3.337,5.913,5.271,1.668,1.887,2.121,5.18-.624,6.272-3.036,1.211-5.724-1.627-7.768-3.519l-.086-.079A56.581,56.581,0,0,1,76.6,200.467a8.4,8.4,0,0,1-9.161.173,8.023,8.023,0,0,1-2.985-4.3A6.253,6.253,0,0,1,63,196.51c-.246.143-.493.281-.742.411-1.977,1.029-4.4.569-5.309-1.618-.823-1.986.025-4.24.767-6.153l.153-.4a34.5,34.5,0,0,1,1.462-3.4,18.478,18.478,0,0,1-4.14-4.416A32.72,32.72,0,0,1,50.2,159.921,18.161,18.161,0,0,1,55.849,148.7l-.117-.3h0a45.539,45.539,0,0,1-2.23-6.93,71.6,71.6,0,0,1-1.189-8.548,82.089,82.089,0,0,1,.347-18.169C54.1,103.466,57.76,92.388,64.25,83c-1.84-2.2-3.3-4.795-2.538-7.777a5.814,5.814,0,0,1,2.331-3.45c.658-.432,1.442-.5,2.1-.857l.2-.109c.289-.169.068-.151-.1-.936-.682-3.134-.117-6.163,3.333-7.2,3.247-.978,6.319,1.1,8.24,3.574,5.028-3.567,11.655-5.434,17.483-7.02A126.031,126.031,0,0,1,115.544,55.606ZM61.229,160.736a3.909,3.909,0,0,1,4.779-3.711,9.645,9.645,0,0,1,4.187,2.22l.611.483c1.526,1.2,3.277,2.489,4.187,4.185,1.333,2.5-1.485,5.87-4.116,4.116-1.8-1.21-2.962-3.148-4.146-4.948l-.123-.186a11.009,11.009,0,0,0-1.747-2.311l-.159-.139a2.216,2.216,0,0,0-.815-.484,1.777,1.777,0,0,0-1.988.788l-.024.073A.33.33,0,0,1,61.229,160.736Z" transform="translate(-50 -55)" fill-rule="evenodd"/></g><g transform="translate(53.403 67.435)"><path d="M89.48,125.644a15.87,15.87,0,0,1-6.668-5.13,3.077,3.077,0,0,1-.624-2.393,3.453,3.453,0,0,1,1.343-2.162,3.215,3.215,0,0,1,2.408-.651,3.017,3.017,0,0,1,2.036,1.346l.12.166a10.506,10.506,0,0,0,3.849,3.23,8.674,8.674,0,0,0,4.764.838c3.206-.362,5.415-2.1,7.764-4.45.291-.3.582-.6.875-.915a1.376,1.376,0,0,1,.726-.559,1.562,1.562,0,0,1,1,.015,1.59,1.59,0,0,1,.788.6,1.46,1.46,0,0,1,.249.967,10.011,10.011,0,0,1-3.3,6.327,14.169,14.169,0,0,1-15.33,2.776ZM98.924,88c2.944,1.789,7.429,5.961,4.262,10.4-3.727,3.911-9.094-.573-11.738-2.6-2.452-1.572-5.207,2.471-2.932,4.306,19.109,14.148,26.865-11.634,11.9-14.205C98.765,85.618,98.153,87.451,98.924,88ZM64.68,71.547c.325-4.037,6.473-4.954,7.085-.959a16.352,16.352,0,0,1-1.709,10.087c-1.54,3.078-5.411,1.642-5.7-1.161C63.96,75.758,64.477,74.058,64.68,71.547Zm46.8-1.787a3.28,3.28,0,0,1,3.578-1.456c4.633,1.354,3.267,7.931,1.64,11.132a3.223,3.223,0,0,1-5.033.649c-2.1-2.5-3.113-7.481-.437-9.94A3.377,3.377,0,0,1,111.481,69.76ZM69.991,53.883l.732-.128c2.264-.392,5.079-.768,6.68,1.052.849.965,1.142,2.759,0,3.683-2.008,1.625-4.229,1-6.635,1.133a26.4,26.4,0,0,0-5.8.988C60.777,61.809,57.361,64,53.782,66.4c-.47.315-.949-.286-.725-.725,2.066-4.047,6.071-7.372,10.082-9.4A24.939,24.939,0,0,1,69.991,53.883Zm37.267-1.813.56.115c6.1,1.274,14.015,3.819,16.9,9.806.11.847-.006,1.028-.1,1.147l-.031.039a.789.789,0,0,1-.507.356q-.153-.036-.309-.077a17.5,17.5,0,0,1-3.383-1.32l-1.1-.541a30.281,30.281,0,0,0-3.924-1.672,46.218,46.218,0,0,0-8.939-1.974,3.668,3.668,0,0,1-1.793-.68,2.693,2.693,0,0,1-1-1.527,2.739,2.739,0,0,1,.309-2.29,2.9,2.9,0,0,1,1.415-1.22A3.321,3.321,0,0,1,107.257,52.07Z" transform="translate(-53 -52)" fill-rule="evenodd"/></g></g><g transform="translate(1.169 75.081)"><path d="M140.791,36.529c-4.3,4.092-11.468,5.267-17.184,3.072-14.677-5.653-7.493-23.285,3.826-28.02a40.494,40.494,0,0,1,5.025-1.271c.156-.07.495.133.906-.059,12.481,1.285,15.323,19.145,7.428,26.278M93.453,37.577c-4.818,5.892-13.777,7.709-21.1,4.97C57.9,37.3,63.026,21.663,72.919,15.534c20.9-7.239,29.527,11.18,20.534,22.043M62.108,24.523c-.013-.006-.027-.009-.041-.015l.229-.094c-.025.06-.052.119-.076.178a.855.855,0,0,0-.113-.07m88.631-6.369a6.9,6.9,0,0,0-3.861.936c-2.408-7.488-11.3-14.417-19.029-9.364a20.917,20.917,0,0,0-13.173,11.13c-4.63-2.539-11.909-1.455-15.924,1.9-2.629-8.009-9.1-10.813-16.8-11.227-8.406-1.269-16.785,6.257-19.4,12.294-2.174-.228-5.422-.866-7.467.371C41.812,20.987,18.608,19.218,15.91,21c-1.923.68-2.978,4.864-.292,5.09,2.34-.306-.273-3.066,2.086-3.367,12.57-.718,24.773,1.615,37.21,2.595,1.11,1.377,4.7,1.838,6.612,1.284-3.015,10.242,3.493,17.21,13.244,19.3,15.1,3.2,28.234-9.254,24.286-22.2,4.574-2.1,9.834-2.007,14.817-.9-8.326,28.247,41.022,26.979,33.315-2.735,5.129,2.352,6.243-1.429,3.552-1.9" transform="translate(-14 -8)" fill-rule="evenodd"/></g></g><g transform="translate(2121 593)" clip-path="url(#a)"><g transform="translate(17.734 176.826)"><path d="M362.777,59.052l-14.9,1.5c-23.788,1.859-47.566,5.74-71.172,8.07a1.506,1.506,0,0,0-2.437-.137c-2.355-.211-5-2.052-7.129-.137-.069-.01-.139-.022-.209-.028-3.8-7.457-6.425-15.411-8.974-23.375-1.627-4.9-3.815-9.637-7.86-12.924-6.9-4.9-22.718-14.837-30.823-14.419a6.206,6.206,0,0,0-1.922-4c2.448-4.268-7.34-7.053-8.031-6.559.443-14.26-6.117-26.645-20.58-29.484-12.957-2.761-31.386-3.225-38.355,10.623-.766-.088-8.6-.13-9.354-.043-1.178-1.526-14.114,12.932-8.812,17.965C84.82,27.54,57.868,24.981,44.749,85.266c-1.774,5.663-1.9,11.86-3.776,17.4C34.31,118.575,28.9,135.519,27.56,152.833c-3.249.851-3.622,6.709.141,7.556A8.7,8.7,0,0,1,31.388,162c-.819,14.189,2.536,46.6,4.65,46.5,4.311,14.031,23.54,17.991,37.153,13.06-2.347,4.515,0,7.354,0,9.767,48.985,1.9,102.544.8,151.515,3.4,6.264-.091,12.853,1.573,19.032.615,3.768-.924,3.774-6.983-.048-7.732l16.7-3.71c-.373-.144,6.884-5.081,12.369-14.306,5.105-10.32,1.631-22.776,3.944-34,18.068-1.511,36.435-2.157,54.305-5.287,2.437,7.456,12.984-1.461,16.337-5.048l-.013-.017a4.147,4.147,0,0,0,2.967-3.85,5.151,5.151,0,0,0,.286-5.613c5-29.514,12.626-59.648,15.382-89.44a6.112,6.112,0,0,0,2.67-1.33l-.063-.064c1.318-1.5,1.574-4.1-.623-5.373C366.18,58.539,364.7,58.858,362.777,59.052Z" transform="translate(-15.645 24)" fill="#fff" fill-rule="evenodd"/><path d="M147.545-2.805c1.478-3.785,6.473-2.314,5.916,1.663A21.849,21.849,0,0,1,150.7,5.843a16.861,16.861,0,0,1-3.452,4.632c2.577,2.451,5.253,4.812,8,7.055a98.272,98.272,0,0,0,9.394,6.774c2.853,1.818,5.835,3.428,8.524,5.5a17.272,17.272,0,0,1,5.937,7.274c1.235,3.224.7,6.552-.211,9.774l-.1.364c-.929,3.191-2.537,7.039-.307,10.045a25.712,25.712,0,0,0,4.21,3.839,33.009,33.009,0,0,1,3.545,3.541A29.353,29.353,0,0,1,191.761,74l.109.315c1.046,3.074,1.81,6.84.4,9.858a1.066,1.066,0,0,1-1.94-.258c-.513-1.908-.487-3.907-.917-5.843a22.286,22.286,0,0,0-2.167-5.731,30.846,30.846,0,0,0-7.448-9.009l-.9-.748c-2.351-1.967-4.511-4.053-4.988-7.307-.511-3.482.858-6.8,1.738-10.1a11.573,11.573,0,0,0,.151-6.574,41.985,41.985,0,0,1-2.788,3.767c-1.74,2.272-3.5,4.531-5.249,6.794-1.8,2.32-3.549,4.677-5.217,7.095q-1.12,1.623-2.221,3.259c-.553.819-1.325,1.637-1.928,2.472a1.494,1.494,0,0,1-.13,1.327c-3.2,4.406-7.75-4.787-8.937-7.109-2.417-4.73-4.216-9.754-6.641-14.483a114.168,114.168,0,0,0-8.564-14.148c-1.929-2.707-4.091-5.249-5.856-8.042-4.158,3.842-9.629,6.418-14.654,8.754-5.521,2.566-11.257,4.662-16.918,6.889l-1.672.662c-9.754,3.88-19.746,8.142-27.853,15.034C57.636,58.976,52,70.263,47.8,81.952c-4.83,13.456-8.826,27.276-12.551,41.086q-2.859,10.6-5.415,21.285c-1.5,6.274-2.74,12.61-4.475,18.818,3.518-.127,7.53,1.261,10.533,1.662,13.688,1.826,27.191,4.737,40.114,9.777a2.92,2.92,0,0,1,1.71,3.565c.921-.265,1.84-.533,2.761-.8-1.009-1.575-.527-4.391-.448-6.137l0-.12c.081-2.326.329-4.655.49-6.977.306-4.426.7-8.82,1.233-13.222l.135-1.1c.6-4.788,1.043-9.6,1.7-14.384l.077-.547c-.314-1.223-.679-2.431-1.063-3.634-1.022-3.2-2.464-6.22-3.728-9.323-.149-.365.362-.575.6-.356a25.719,25.719,0,0,1,5.207,7.057c.024-.123.045-.246.069-.369l.156-.782a13.563,13.563,0,0,1,2-5.46.279.279,0,0,1,.48,0c1.1,1.895,1.221,4.294,1.39,6.45.191,2.439.215,4.909.181,7.354-.066,4.779-.4,9.572-.66,14.344-.258,4.689-.766,9.318-1.419,13.961l-.124.871c-.32,2.21-.581,4.447-1,6.642l-.119.6a29.252,29.252,0,0,1-.813,3.9q17.313-4.922,34.683-9.637,12.556-3.415,25.126-6.777a9.542,9.542,0,0,1,1.679-2.248c2.263-2.234,5.262-3.23,8.012-1.511a.374.374,0,0,1,0,.633c-.527.294-1.055.595-1.574.908l5.029-1.388c3.759-1.038,7.563-2.336,11.411-3.06,7.087-3.565,14.709-6.145,22.174-8.695l.88-.3a83.061,83.061,0,0,1,11.725-3.552c2.891-.539,6.285.111,7.448,3.13a46.3,46.3,0,0,1,4.193,3.293c.966.826,1.892,1.7,2.834,2.558l.174.155a3.618,3.618,0,0,1,1.569,2.221c.1.56-.251,1.317-.929,1.242-2.073-.226-3.758-2.675-5.164-4.137-1.086-1.13-2.181-2.3-3.172-3.541a1.218,1.218,0,0,1-1.738-.447c-1.907-3.681-7.132-1.13-10.023-.257l-4.141,1.249q-3.106.938-6.206,1.894c-5.679,1.758-11.329,3.725-17.059,5.339a1.224,1.224,0,0,1-.532,1.985c-4.485,1.794-9.406,2.721-14.066,3.952q-4.413,1.167-8.822,2.347a7.44,7.44,0,0,0-1.019,2.869c-.561,4.029.521,8.678,1.575,12.576l.159.581c.866,3.133,2.141,6.974,4.793,8.953a4.651,4.651,0,0,0,2.3.894q7.788-4.086,15.578-8.166a1.443,1.443,0,0,1,2.067.989,33.336,33.336,0,0,0,5.324-1.365c2.8-.968,4.981-2.814,7.6-4.091,5.073-2.47,10.254.564,14.8,2.871l1.047.524c2.037,1.007,6.275,2.942,7.252.187.945-2.665-2.043-5.514-3.974-6.713a25.919,25.919,0,0,0-7.58-2.833c-1.485-.364-2.988-.661-4.5-.878a27.592,27.592,0,0,1-5.138-.776.962.962,0,0,1,0-1.829c2.542-.59,5.576.054,8.228.711l1.386.348a32.689,32.689,0,0,1,7.8,2.841,14.212,14.212,0,0,1,4.859,4.247,3.682,3.682,0,0,1,3.753-.6l.746.211a6.9,6.9,0,0,0,3.428.346c.16-.889.323-1.777.5-2.666q2.562-13.107,5.647-26.1,5.347-22.4,12.339-44.323l.467-1.461c1.072-3.344,1.935-6.987,3.664-10.059a11.681,11.681,0,0,1,7.368-5.464c3.532-1.005,7.244-1.531,10.848-2.211.8-.151,1.61-.3,2.414-.444a40.214,40.214,0,0,1-1.645-3.762l-.08-.189c-.982-2.282-1.864-4.605-2.716-6.941l-.637-1.756A88.277,88.277,0,0,0,251.7,55.649a31.923,31.923,0,0,0-9.061-10.381c-7.676-5.742-16.927-8.672-24.372-14.808-.305-.251.086-.681.4-.522,5.027,2.574,10.454,4.325,15.682,6.421l1.031.415a51.38,51.38,0,0,1,11.907,6.191,33.534,33.534,0,0,1,9.49,11.21c2.327,4.388,3.815,9.3,5.456,13.988l.439,1.249c.662,1.873,1.346,3.74,2.13,5.563.622,1.447,1.783,3.1,2.311,4.752,1.444-.255,2.887-.511,4.332-.757a681.693,681.693,0,0,1,94.67-9.372,1.816,1.816,0,0,1,1.7,2.274c-3.044,18.347-5.749,36.756-8.717,55.117q-1.944,12.02-3.97,24.024c-.685,4.055-1.477,8.094-2.126,12.155a86.282,86.282,0,0,1-1.8,9.788,18.8,18.8,0,0,1-4.078,7.833,14.484,14.484,0,0,1-8.329,4.046c-7.816,1.371-15.833,1.931-23.713,2.844l-41.951,4.865a107.989,107.989,0,0,1,.378,17.016l-.16,3.137c-.131,2.523-.288,5.049-.643,7.546a15.344,15.344,0,0,1-3.922,8.124,47.716,47.716,0,0,1-6.458,5.738,32.438,32.438,0,0,1-7.484,4.712l-.356.144c-2.406.957-6.918,2.44-10.206,1.9.43,2.2,1.262,4.555.524,6.727a1.458,1.458,0,0,1-2.429.654c-1.57-1.7-1.693-3.947-2.065-6.166-.387-2.309-.721-4.626-1.017-6.949-.573-4.491-1.019-9.023-1.156-13.552q-.21-6.977.16-13.955c.126-2.386.283-4.77.58-7.141.127-1.011.256-2.023.4-3.031q.081-.552.178-1.1l-3.765.433c-5.774.657-11.55,1.25-17.364,1.342a1.862,1.862,0,0,1-1.565-.774,2.143,2.143,0,0,1-1.931,1.047c-8.12-.031-15.681-2.737-23.066-5.926-3.723-1.608-7.387-3.349-11.115-4.943-3.48-1.488-7.2-2.55-10.6-4.226l-8.923,4.77a3.985,3.985,0,0,1-.239.642,5.194,5.194,0,0,1-2.9,2.358,6.854,6.854,0,0,1-3.419.5q-10.151,5.422-20.31,10.828l-6.775,3.6c-13.5,7.163-26.944,14.445-40.527,21.44l-1,.513a120.01,120.01,0,0,1-14.936,6.642,27.456,27.456,0,0,0,.076,4.071l.027.31c.155,1.68.488,3.785-.834,4.981a1.519,1.519,0,0,1-2.384-.313c-.849-1.7-.087-4.382.182-6.23a18.1,18.1,0,0,1,.384-1.988c-5.969,1.811-12.119,2.689-18.193,1.672-5.914-.989-10.494-4.787-14.187-9.432a43.251,43.251,0,0,1-8.152-16.737c-1.691-6.968-1.8-14.164-1.762-21.3a200.531,200.531,0,0,1,1.225-22.787,10.6,10.6,0,0,0-3.1-.373,2.39,2.39,0,0,1-2.334,1.047c-1.9,2.131,2.913,4.309,4.449,4.854.534.19.476,1.073-.139,1.046L25.9,173.4c-2.374-.129-4.828-.542-6.224-2.791a4.446,4.446,0,0,1,.551-5.408c.881-8.489,2.987-16.755,4.946-25.035,1.923-8.128,4.062-16.2,6.329-24.238l1.016-3.6c3.569-12.6,7.3-25.3,12.224-37.4a80.459,80.459,0,0,1,9.13-17.237,58.66,58.66,0,0,1,12.66-12.7c9.054-6.69,19.678-10.733,30.116-14.584l.467-.172c5.409-1.994,10.805-4.013,16.153-6.173,4.729-1.911,9.26-4.334,13.968-6.274q-.229-.424-.443-.858l-.087.075-.046.035a1.29,1.29,0,0,1-1.56-.205c-1.1-1.059-.729-2.235.007-3.334l.1-.14c.9-1.284,1.7-2.642,2.531-3.972l.52-.832a34.33,34.33,0,0,1,4.715-6.3A10.128,10.128,0,0,1,135.767.3c-.085-.184.663-.56.875-.371,3.161-1.179,6.8-.932,10.245-.607M271.1,192.778l-4.4.509q-7.253.841-14.511,1.64l-10.509,1.164c-.027.611-.1,1.208-.113,1.669-.069,2.377-.12,4.756-.168,7.134q-.146,7.15.317,14.3c.3,4.61.691,9.221,1.3,13.8l.125.915.072.481a2.043,2.043,0,0,1,1.4.786c.889,1.082,4.107.03,5.364-.426a25.436,25.436,0,0,0,5.81-3.287,37.361,37.361,0,0,0,4.851-4.21L261.88,226a16.152,16.152,0,0,0,3.229-4.158c1.026-2.134,1.159-4.754,1.46-7.079.371-2.859.812-5.718,1.278-8.563M143.5,162.766l-.456.122c-16.562,4.485-33.1,9.1-49.711,13.391-8.221,2.122-16.481,4.09-24.712,6.171l-1.333.34c-6.494,1.673-13.065,3.686-18.038,8.487a.2.2,0,0,1-.277-.283c5.359-5.815,12.981-8.276,20.3-10.41,1.353-.394,2.707-.78,4.06-1.172A235.208,235.208,0,0,0,42.925,170.4c-2.663-.578-5.358-1-8.019-1.582-1.856-.4-3.669-.99-5.505-1.475l-1.444-.37-.019,4.653c-.024,6.591-.013,13.176.317,19.765l.062,1.221c.385,7.333.986,14.819,3.539,21.733a39.675,39.675,0,0,0,9.707,15.005,17.482,17.482,0,0,0,7.449,4.479,24.808,24.808,0,0,0,8.305.628c13.315-.947,25.167-8.319,36.733-14.423q28.377-14.975,56.776-29.907a9.337,9.337,0,0,1-1.433-1.23c-2.539-2.673-3.879-6.332-4.759-9.876a53.031,53.031,0,0,1-1.562-11.71m24.521,26.67a.248.248,0,0,1,.369.215c.059,1.474-.741,2.928-1.338,4.256l-.063.142c-.726,1.645-1.52,3.268-2.342,4.866q-2.463,4.788-5.13,9.462a112.064,112.064,0,0,1-12.267,17.714c-1.063,1.232-2.81-.348-2.128-1.674a198.8,198.8,0,0,1,11.066-18.414q2.963-4.494,5.944-8.978c.832-1.245,1.675-2.485,2.54-3.706l.522-.73M364.016,73.259q-24.929.767-49.76,3.348-23.074,2.415-45.949,6.425-4.775.837-9.537,1.743l-1.9.365c-3.176.613-7.055.867-9.883,2.6C244,89.557,243.2,93.367,242.2,96.509q-1.749,5.542-3.408,11.115-6.587,22.121-11.981,44.6c-1.776,7.433-3.352,14.907-5.013,22.366-1.475,6.628-3.1,13.181-4.8,19.742a1.875,1.875,0,0,1,.777-.36c8.445-1.831,17.066-2.627,25.638-3.639l.829-.1q13.3-1.594,26.607-3.135l58.743-6.733c3.464-.4,7.176-.451,10.547-1.4,5.732-1.612,7.076-8.144,8.037-13.345l.029-.157c2.9-15.717,5.208-31.57,7.912-47.327M218.365,176.059c-2.281-.153-5.4-2.282-7.132-2.13a6.6,6.6,0,0,1,.795,5.217c-1.457,5.265-8.046,2.541-11.219.933-2.6-1.32-5.115-2.934-8-3.552-3.264-.7-5.474.623-8.232,2.148a24.052,24.052,0,0,1-7.267,2.617,15.029,15.029,0,0,1-3.908.178,1.561,1.561,0,0,1-.263.176l-.676.362a37.245,37.245,0,0,1,9.02,1.986c2.949.912,5.845,2.012,8.725,3.137l2.833,1.11c6.989,2.728,14.223,5.318,21.786,5.3a2.248,2.248,0,0,1,1.34.4M205.6,159.56a7.6,7.6,0,0,1,6.133,1.515c2.171,1.8,3.63,4.792,6.751,4.989a.838.838,0,0,1,.217,1.634c-2.323.7-4.2-.58-5.788-2.244l-1.064-1.133c-1.564-1.651-3.007-2.927-5.662-2.829-2.843.106-5.69.775-8.515,1.116q-4.8.578-9.608,1c-.149.013-.175-.226-.035-.261l3.595-.912m11.8-12.261.372-.038c3.272-.324,6.264-.336,9.186,1.458l.56.345c2.634,1.632,5.5,3.555,7.149,6.2a.57.57,0,0,1-.627.831c-3.166-.775-5.481-3.142-8.144-4.915-2.988-1.989-6.075-1.661-9.483-1.352-3.3.3-6.6.71-9.863,1.271-3.07.526-6.149,1.357-9.249,1.622v-.006a.394.394,0,0,1-.2-.727,41.769,41.769,0,0,1,10.213-3.091M91.884,59.36c2.129,3.817,3.242,8.5,4.376,12.7,1.188,4.406,2.147,8.856,3.008,13.339A149.345,149.345,0,0,1,102,112.756c.009,1.321-2.1,1.672-2.309.319-1.371-9-2.685-18.008-4.067-27.005-.7-4.525-1.5-9.033-2.279-13.545m19.121-6.382c-.157-.526.595-.7.787-.221,4.272,10.689,5.719,22.8,2.976,34.078-.42,1.725-2.9.978-2.582-.726m53.925-42.629c-.022-.394.48-.456.669-.185,2.024,2.907,2.864,6.8,6.416,8.3,1.773.75,3.769.619,5.335,1.886,1.047.847,1.851,2.185,1.064,3.468a.83.83,0,0,1-1.307.172,8.074,8.074,0,0,0-1.45-1.934c-.962-.694-2.26-.737-3.363-1.063a8.192,8.192,0,0,1-3.716-2.256M201.4,8.158a.4.4,0,0,1,.542.145.46.46,0,0,1-.066.7,16.845,16.845,0,0,1,.732,2.513q.32,1.44.677,2.868c.479,1.923.9,3.861,1.377,5.785.508,2.039,1.113,4.057,1.786,6.045.043.129.091.26.141.394l.077.2.019-.031a.213.213,0,0,1,.388.166c-.031.212-.073.424-.109.636l.071.19c.44,1.208.742,2.48-.066,3.547a1.649,1.649,0,0,1-1.049.705,62.411,62.411,0,0,1-2.391,6.529l-.262.615a36.79,36.79,0,0,1-4.8,8.715c-2.283,2.854-5.423,4.8-7.411,7.931a19.426,19.426,0,0,0-2.091,4.627l-.2.624a5,5,0,0,1-1.868,2.97.93.93,0,0,1-1.128-.148c-2.193-2.365.1-6.78,1.425-9.069,1.838-3.184,4.5-5.22,7.163-7.622,2.872-2.589,4.7-6.052,6.475-9.464,1.085-2.09,2.133-4.226,3.236-6.325-1.152-1.038-1.521-3.1-1.912-4.534l-.036-.129a52.157,52.157,0,0,1-1.482-7.016,39.3,39.3,0,0,1-.359-6.8l.024-.583m5.382,6.647c-.255-.356.167-.759.516-.684a23.429,23.429,0,0,1,6.107,2.818l.2.113a8.611,8.611,0,0,1,3.852,3.486,11.258,11.258,0,0,1,.679,5.719l-.011.18a48.579,48.579,0,0,1-.646,6.953,1.594,1.594,0,0,1-2.151,1.209c-1.046,3.365-3.983,5.844-6.128,8.5-2.735,3.385-2.221,7.956-1.935,12.033.116,1.651-1.9,2.12-2.936,1.239l-2.391-2.024q-.6-.507-1.192-1.016-.51-.437-1.01-.882l-.5-.449c-.221-.2-1.2-1.312-1.482-1.359-.691-.112-2.332,1.744-2.894,2.326l-.071.073a29.753,29.753,0,0,0-2.9,3.4.213.213,0,0,1-.367-.218,30.755,30.755,0,0,1,2.825-4.963l.223-.31c.732-1.006,1.716-2.782,3.009-3.08,1.579-.363,3.155,1.251,4.3,2.147l.073.056c.546.418,1.087.843,1.626,1.271a16.4,16.4,0,0,1,1.857-8.719c1.084-1.845,2.709-3.211,4.1-4.8,1.547-1.765,2.356-3.935,3.756-5.774a1.053,1.053,0,0,1,.7-.4c.054-1.478.267-2.971.432-4.433l.048-.438c.167-1.589.561-3.529-.2-5.017-.721-1.405-2.375-2.4-3.6-3.351l-1-.791M136.749,2.185a7.809,7.809,0,0,0-1.779,1.432,30.252,30.252,0,0,0-4.115,6.352c-.639,1.19-1.256,2.393-1.9,3.58-.28.517-.569,1.027-.86,1.537-.135.235-.535.7-.734.99.221.315.449.625.681.932.089.117,6.212,6.916,8.346,9.577a87.084,87.084,0,0,1,8.687,12.989c2.446,4.512,4.308,9.29,6.573,13.89a34.784,34.784,0,0,0,4.015,6.582c.062.078.128.151.192.228a20.12,20.12,0,0,1,2.97-4.556l.072-.1c1.759-2.416,3.616-4.759,5.513-7.063q2.6-3.155,5.33-6.186l.685-.757c1.268-1.4,2.879-3.485,4.735-4.483a9.085,9.085,0,0,0-.694-1.072,23.7,23.7,0,0,0-6.624-5.515l-1.573-.975a108.3,108.3,0,0,1-16.918-12.324,69.269,69.269,0,0,1-7.7-8.139l-.81-1.044m5.8-7.7c-2.777.237-5.776.181-8.343,1.1,2.282,2.2,4.451,4.572,6.679,6.808.2-1.512.6-3.005.947-4.48" transform="translate(-19 10.963)" fill-rule="evenodd"/></g></g></g></svg>