<svg width="71" height="100" viewBox="0 0 71 100" fill="none" xmlns="http://www.w3.org/2000/svg">
<path d="M35.3791 99.9999L6.47043 91.9744L0 19.6611H70.8414L64.3988 91.9744L35.3791 99.9999Z" fill="black"/>
<path d="M58.8725 87.3367L64.3988 25.5483H35.4346V93.8627L58.8725 87.3367Z" fill="black"/>
<path d="M14.8013 52.3745L15.6066 61.2332H35.4344V52.3745H14.8013Z" fill="#EBEBEB"/>
<path d="M13.1909 34.4351L13.9962 43.2937H35.4347V34.4351H13.1909Z" fill="#EBEBEB"/>
<path d="M35.4347 75.4236H35.4069L25.5207 72.7576L24.882 65.6763H15.9956L17.2453 79.5891L35.4069 84.6432H35.4347V75.4236Z" fill="#EBEBEB"/>
<path d="M16.6899 0H27.437V4.49875H21.1887V8.9975H27.437V13.4963H16.6899V0Z" fill="black"/>
<path d="M29.5752 0H40.3222V3.91558H34.0739V4.69314H40.3222V13.6906H29.5752V9.58067H35.8235V8.80311H29.5752V0Z" fill="black"/>
<path d="M42.4604 0H53.2075V3.91558H46.9592V4.69314H53.2075V13.6906H42.4604V9.58067H48.7087V8.80311H42.4604V0Z" fill="black"/>
<path d="M56.0121 52.3745L57.6228 34.4351H35.4067V43.2937H47.9033L47.0979 52.3745H35.4067V61.2332H46.3204L45.2929 72.73L35.4067 75.3959V84.6156L53.5961 79.5892L53.735 78.0896L55.8177 54.735L56.0121 52.3745Z" fill="white"/>
</svg>
