<svg width="129" height="100" viewBox="0 0 129 100" fill="none" xmlns="http://www.w3.org/2000/svg">
<path fill-rule="evenodd" clip-rule="evenodd" d="M0 60.01C0 71.0711 28.6787 80.03 64.0641 80.03V100C28.6787 100 0 91.041 0 80.03V60.01ZM128.128 60.01V80.03C128.128 84.7347 122.873 89.0891 114.164 92.4925L64.0641 79.98V59.96L114.164 72.4224C122.873 69.019 128.128 64.7147 128.128 60.01ZM64.0641 0C99.4494 0 128.128 8.95896 128.128 20.02V40.04C128.128 44.7447 122.873 49.0991 114.164 52.5025L64.0641 39.99V59.96C28.6787 60.01 0 51.0511 0 39.99V20.02C0 8.95896 28.6787 0 64.0641 0Z" fill="black"/>
</svg>
