<svg width="88" height="100" viewBox="0 0 88 100" fill="none" xmlns="http://www.w3.org/2000/svg">
<path d="M77.0131 19.4769C76.9443 18.9608 76.4969 18.6855 76.1528 18.6511C75.7743 18.6167 68.1005 18.0661 68.1005 18.0661C68.1005 18.0661 62.7667 12.7667 62.1817 12.1817C61.5967 11.5967 60.4611 11.7688 60.0138 11.9064C59.9449 11.9408 58.8438 12.2505 57.02 12.8355C55.2306 7.70819 52.0991 2.99381 46.5588 2.99381C46.4212 2.99381 46.2491 2.99381 46.0771 2.99381C44.4942 0.929112 42.5671 0 40.8809 0C27.9766 0 21.8169 16.1046 19.8899 24.2946C14.8658 25.8431 11.3214 26.9443 10.8741 27.0819C8.08672 27.9422 7.98348 28.0454 7.63937 30.6951C7.32966 32.7254 0 89.298 0 89.298L57.02 99.9656L87.9215 93.2897C87.9215 93.3242 77.0819 19.9931 77.0131 19.4769ZM53.8541 13.799C52.4088 14.2464 50.7915 14.7626 49.0365 15.2787C49.0365 14.9346 49.0365 14.5905 49.0365 14.2464C49.0365 11.0461 48.5891 8.49966 47.9009 6.46937C50.7226 6.8479 52.6153 10.0826 53.8541 13.799ZM44.3565 7.12319C45.148 9.11906 45.6641 11.9752 45.6641 15.7949C45.6641 16.0014 45.6641 16.1734 45.6641 16.3455C42.5327 17.309 39.1259 18.3758 35.6848 19.4425C37.6118 12.044 41.1906 8.46524 44.3565 7.12319ZM40.5024 3.47557C41.053 3.47557 41.6036 3.64763 42.1542 4.02615C38.0248 5.9532 33.5857 10.8741 31.7275 20.6469C29.0089 21.5072 26.3248 22.3331 23.8472 23.0902C26.0496 15.6573 31.2457 3.47557 40.5024 3.47557Z" fill="black"/>
<path d="M76.1184 18.6853C75.7399 18.6509 68.0661 18.1003 68.0661 18.1003C68.0661 18.1003 62.7323 12.8009 62.1473 12.2159C61.9409 12.0095 61.6312 11.8718 61.3215 11.8374L57.02 99.9998L87.9216 93.324C87.9216 93.324 77.082 19.9929 77.0131 19.5112C76.9443 18.995 76.497 18.7197 76.1184 18.6853Z" fill="#000001"/>
<path d="M46.5246 35.7534L42.7049 47.0748C42.7049 47.0748 39.367 45.2854 35.272 45.2854C29.2844 45.2854 28.9747 49.0362 28.9747 49.9998C28.9747 55.1615 42.464 57.1574 42.464 69.2702C42.464 78.8022 36.4076 84.9619 28.2521 84.9619C18.4792 84.9619 13.4551 78.8711 13.4551 78.8711L16.0704 70.1993C16.0704 70.1993 21.1977 74.604 25.568 74.604C28.3897 74.604 29.5597 72.3673 29.5597 70.7499C29.5597 64.0053 18.4792 63.6956 18.4792 52.615C18.4792 43.2895 25.1894 34.2393 38.7132 34.2393C43.9781 34.2393 46.5246 35.7534 46.5246 35.7534Z" fill="white"/>
</svg>
