<svg width="98" height="100" viewBox="0 0 98 100" fill="none" xmlns="http://www.w3.org/2000/svg">
<path d="M97.125 22.5923C97.1629 22.7441 97.1629 22.858 97.1629 23.0098V44.4919C97.1629 45.0612 96.8593 45.5546 96.3659 45.8582L78.3376 56.2198V76.791C78.3376 77.3603 78.034 77.8537 77.5406 78.1573L39.9658 99.7912C39.8899 99.8292 39.7761 99.8671 39.7002 99.9051C39.6622 99.9051 39.6243 99.9431 39.5863 99.9431C39.3206 100.019 39.0549 100.019 38.7893 99.9431C38.7513 99.9431 38.7134 99.9051 38.6754 99.9051C38.5995 99.8671 38.4856 99.8292 38.4097 99.7912L0.79704 78.1194C0.303634 77.8537 0 77.3223 0 76.753V12.3826C0 12.2308 0.0379543 12.1169 0.0379543 11.9651C0.0379543 11.9271 0.0759085 11.8892 0.0759085 11.8512C0.113863 11.7753 0.113863 11.6994 0.189771 11.6235C0.227726 11.5855 0.26568 11.5476 0.303634 11.4717C0.341588 11.3958 0.379543 11.3578 0.455451 11.2819C0.493405 11.244 0.569314 11.206 0.607268 11.168C0.645222 11.1301 0.721131 11.0542 0.79704 11.0162L19.5844 0.19926C20.0778 -0.06642 20.6471 -0.06642 21.1405 0.19926L39.9279 11.0162C40.0038 11.0542 40.0417 11.0921 40.1177 11.168C40.1556 11.206 40.2315 11.244 40.2695 11.2819C40.3074 11.3199 40.3454 11.3958 40.4213 11.4717C40.4592 11.5096 40.4972 11.5476 40.5352 11.6235C40.5731 11.6994 40.6111 11.7753 40.649 11.8512C40.649 11.8892 40.687 11.9271 40.687 12.003C40.7249 12.1549 40.7249 12.2687 40.7249 12.4205V52.6521L56.4 43.6189V23.0098C56.4 22.858 56.438 22.7441 56.438 22.5923C56.438 22.5543 56.4759 22.5164 56.4759 22.4405C56.5139 22.3645 56.5519 22.2886 56.5898 22.2127C56.6278 22.1748 56.6657 22.1368 56.7037 22.0609C56.7416 21.985 56.7796 21.9471 56.8555 21.8711C56.8934 21.8332 56.9693 21.7952 57.0073 21.7573C57.0832 21.7193 57.1212 21.6434 57.1971 21.6055L76.0224 10.7885C76.5158 10.5228 77.0851 10.5228 77.5785 10.7885L96.3659 21.6055C96.4418 21.6434 96.4797 21.6814 96.5556 21.7573C96.5936 21.7952 96.6695 21.8332 96.7075 21.8711C96.7454 21.9091 96.7834 21.985 96.8593 22.0609C96.8972 22.0989 96.9352 22.1368 96.9731 22.2127C97.0111 22.2886 97.0491 22.3645 97.087 22.4405C97.087 22.5164 97.087 22.5543 97.125 22.5923ZM94.0127 43.581V25.7425L87.4466 29.5379L78.3376 34.7756V52.6141L94.0127 43.581ZM75.2253 75.8801V58.0036L66.2682 63.1274L40.7249 77.7019V95.7301L75.2253 75.8801ZM3.1502 15.0773V75.8801L37.6127 95.7301V77.7019L19.5844 67.4922C19.5085 67.4542 19.4705 67.4163 19.4326 67.3783C19.3946 67.3404 19.3187 67.3024 19.2808 67.2645C19.2428 67.2265 19.2049 67.1506 19.1669 67.1126C19.129 67.0747 19.091 66.9988 19.053 66.9608C19.0151 66.8849 19.0151 66.8469 18.9771 66.771C18.9392 66.6951 18.9012 66.6572 18.9012 66.5813C18.8633 66.5054 18.8633 66.4295 18.8633 66.3535C18.8633 66.2776 18.8253 66.2397 18.8253 66.1638V24.1104L9.71629 18.8728L3.1502 15.0773ZM20.3814 3.34946L4.70633 12.3826L20.3814 21.4157L36.0566 12.3826L20.3814 3.34946ZM28.5037 59.6356L37.5747 54.3979V15.0773L31.0086 18.8728L21.8996 24.1104V63.4311L28.5037 59.6356ZM76.7815 13.9767L61.1064 23.0098L76.7815 32.0429L92.4566 23.0098L76.7815 13.9767ZM75.2253 34.7376L66.1163 29.5L59.5502 25.7045V43.543L68.6213 48.7807L75.1874 52.5761V34.7376H75.2253ZM39.1688 74.9692L62.1311 61.837L73.6313 55.2709L57.9941 46.2757L39.9658 56.6373L23.5316 66.1258L39.1688 74.9692Z" fill="black"/>
</svg>
