<svg width="100" height="100" viewBox="0 0 100 100" fill="none" xmlns="http://www.w3.org/2000/svg">
<path d="M7.09804 50C7.09804 66.9804 16.9804 81.6471 31.2549 88.5882L10.8235 32.549C8.43137 37.8824 7.09804 43.7647 7.09804 50ZM78.9412 47.8431C78.9412 42.549 77.0196 38.8627 75.4118 36C73.2549 32.4706 71.2157 29.4902 71.2157 25.9608C71.2157 22 74.1961 18.3529 78.4314 18.3529C78.6274 18.3529 78.7843 18.3922 78.9804 18.3922C71.3333 11.3726 61.1765 7.09804 50 7.09804C35.0196 7.09804 21.8431 14.7843 14.1569 26.4314C15.1765 26.4706 16.1176 26.4706 16.902 26.4706C21.3725 26.4706 28.3529 25.9216 28.3529 25.9216C30.6667 25.8039 30.9412 29.1765 28.6275 29.451C28.6275 29.451 26.3137 29.7255 23.7255 29.8431L39.3333 76.3137L48.7059 48.1569L42.0392 29.8431C39.7255 29.7255 37.5294 29.451 37.5294 29.451C35.2157 29.3333 35.4902 25.7647 37.8039 25.9216C37.8039 25.9216 44.902 26.4706 49.098 26.4706C53.5686 26.4706 60.549 25.9216 60.549 25.9216C62.8627 25.8039 63.1373 29.1765 60.8235 29.451C60.8235 29.451 58.5098 29.7255 55.9216 29.8431L71.4118 75.9608L75.6863 61.6471C77.5294 55.7647 78.9412 51.4902 78.9412 47.8431ZM50.7451 53.7647L37.8824 91.1765C41.7255 92.3137 45.8039 92.9412 50 92.9412C54.9804 92.9412 59.8039 92.0784 64.2353 90.5098C64.1177 90.3137 64 90.1177 63.9216 89.9216L50.7451 53.7647ZM87.6471 29.4118C87.8431 30.7843 87.9216 32.2353 87.9216 33.8039C87.9216 38.1569 87.098 43.0588 84.6667 49.1765L71.5686 87.0588C84.3137 79.6078 92.902 65.8039 92.902 50C92.902 42.549 90.9804 35.5294 87.6471 29.4118ZM50 0C22.4314 0 0 22.4314 0 50C0 77.5686 22.4314 100 50 100C77.5686 100 100 77.5686 100 50C100 22.4314 77.5686 0 50 0ZM50 97.7255C23.6863 97.7255 2.27451 76.3137 2.27451 50C2.27451 23.6863 23.6863 2.27451 50 2.27451C76.3137 2.27451 97.7255 23.6863 97.7255 50C97.7255 76.3137 76.3137 97.7255 50 97.7255Z" fill="black"/>
</svg>
