<svg width="100" height="53" viewBox="0 0 100 53" fill="none" xmlns="http://www.w3.org/2000/svg">
<path d="M50 52.5781C77.6142 52.5781 100 40.8081 100 26.2891C100 11.77 77.6142 0 50 0C22.3858 0 0 11.77 0 26.2891C0 40.8081 22.3858 52.5781 50 52.5781Z" fill="#070707"/>
<path d="M50 50.625C76.5356 50.625 98.0469 39.7294 98.0469 26.2891C98.0469 12.8487 76.5356 1.95312 50 1.95312C23.4644 1.95312 1.95312 12.8487 1.95312 26.2891C1.95312 39.7294 23.4644 50.625 50 50.625Z" fill="#CCCCCC"/>
<path d="M59.7265 34.1797L62.1093 21.9141C62.6562 19.1406 62.1874 17.0703 60.7812 15.7812C59.414 14.5313 57.0702 13.9062 53.6327 13.9062H49.4921L50.664 7.8125C50.7031 7.57812 50.664 7.34375 50.5077 7.14844C50.3515 6.95312 50.1562 6.875 49.9218 6.875H44.2187C43.8281 6.875 43.5156 7.14844 43.4374 7.5L40.8984 20.5078C40.664 19.0234 40.1171 17.7734 39.1796 16.7578C37.4999 14.8438 34.8827 13.8672 31.3281 13.8672H20.3515C19.9609 13.8672 19.6484 14.1406 19.5702 14.4922L14.4531 40.8984C14.414 41.1328 14.4531 41.3672 14.6093 41.5625C14.7656 41.7578 14.9609 41.8359 15.1952 41.8359H20.9374C21.3281 41.8359 21.6406 41.5625 21.7187 41.2109L22.9687 34.8438H27.2265C29.4531 34.8438 31.3671 34.6094 32.8124 34.1406C34.3359 33.6328 35.7031 32.8125 36.914 31.6797C37.8906 30.7812 38.7109 29.7656 39.3359 28.6719L38.3202 33.9453C38.2812 34.1797 38.3202 34.4141 38.4765 34.6094C38.6327 34.8047 38.8281 34.8828 39.0624 34.8828H44.7656C45.1562 34.8828 45.4687 34.6094 45.5468 34.2578L48.3593 19.8047H52.2656C53.9452 19.8047 54.414 20.1172 54.5702 20.2734C54.6874 20.3906 54.9218 20.8594 54.6484 22.3047L52.3827 33.9844C52.3437 34.2188 52.3827 34.4531 52.539 34.6484C52.6952 34.8438 52.8906 34.9219 53.1249 34.9219H58.9843C59.3359 34.8047 59.6484 34.5312 59.7265 34.1797ZM33.3202 24.0234C32.9687 25.8594 32.3046 27.1875 31.3281 27.9297C30.3515 28.6719 28.7499 29.0625 26.6406 29.0625H24.1015L25.9374 19.6094H29.2187C31.6406 19.6094 32.6171 20.1172 33.0077 20.5469C33.5156 21.1719 33.6327 22.3828 33.3202 24.0234Z" fill="white"/>
<path d="M84.1015 16.7578C82.4218 14.8438 79.8046 13.8672 76.2499 13.8672H65.1952C64.8046 13.8672 64.4921 14.1406 64.414 14.4922L59.2968 40.8594C59.2577 41.0938 59.2968 41.3281 59.4531 41.5234C59.6093 41.7188 59.8046 41.7969 60.039 41.7969H65.7812C66.1718 41.7969 66.4843 41.5234 66.5624 41.1719L67.8124 34.8047H72.0702C74.2968 34.8047 76.2109 34.5703 77.6562 34.1016C79.1796 33.5938 80.5468 32.7734 81.7577 31.6406C82.7734 30.7031 83.6327 29.6484 84.2577 28.5156C84.8827 27.3828 85.3515 26.1328 85.6249 24.7656C86.289 21.3672 85.7812 18.7109 84.1015 16.7578ZM78.1249 24.0234C77.7734 25.8594 77.1093 27.1875 76.1327 27.9297C75.1562 28.6719 73.5546 29.0625 71.4452 29.0625H68.9062L70.7421 19.6094H74.0234C76.4452 19.6094 77.4218 20.1172 77.8124 20.5469C78.3593 21.1719 78.4765 22.3828 78.1249 24.0234Z" fill="white"/>
<path d="M29.2188 18.8281C31.4063 18.8281 32.8516 19.2187 33.5938 20.0391C34.3359 20.8594 34.4922 22.2266 34.1016 24.1797C33.7109 26.2109 32.9297 27.6953 31.7969 28.5547C30.6641 29.4141 28.9453 29.8438 26.6406 29.8438H23.1641L25.3125 18.8281H29.2188ZM15.2344 41.0156H20.9766L22.3438 34.0234H27.2656C29.4531 34.0234 31.2109 33.7891 32.6172 33.3203C34.0234 32.8516 35.2734 32.1094 36.4453 31.0156C37.4219 30.1172 38.2031 29.1406 38.7891 28.0859C39.375 27.0313 39.8047 25.8594 40.0391 24.5703C40.6641 21.4453 40.1953 19.0234 38.6719 17.2656C37.1484 15.5078 34.7266 14.6484 31.4062 14.6484H20.3516L15.2344 41.0156Z" fill="#000004"/>
<path d="M44.2578 7.65625H49.9609L48.5938 14.6484H53.6719C56.875 14.6484 59.0625 15.1953 60.2734 16.3281C61.4844 17.4609 61.8359 19.2578 61.3672 21.7578L58.9844 34.0234H53.2031L55.4688 22.3437C55.7422 21.0156 55.625 20.1172 55.1953 19.6484C54.7656 19.1797 53.7891 18.9062 52.3438 18.9062H47.7734L44.8438 34.0234H39.1406L44.2578 7.65625Z" fill="#000004"/>
<path d="M74.0234 18.8281C76.2109 18.8281 77.6562 19.2187 78.3984 20.0391C79.1406 20.8594 79.2969 22.2266 78.9063 24.1797C78.5156 26.2109 77.7344 27.6953 76.6016 28.5547C75.4688 29.4141 73.75 29.8438 71.4453 29.8438H67.9688L70.1172 18.8281H74.0234ZM60.0391 41.0156H65.7812L67.1484 34.0234H72.0703C74.2578 34.0234 76.0156 33.7891 77.4219 33.3203C78.8281 32.8516 80.0781 32.1094 81.25 31.0156C82.2266 30.1172 83.0078 29.1406 83.5938 28.0859C84.1797 27.0313 84.6094 25.8594 84.8438 24.5703C85.4688 21.4453 85 19.0234 83.4766 17.2656C81.9531 15.5078 79.5313 14.6484 76.2109 14.6484H65.1563L60.0391 41.0156Z" fill="#000004"/>
</svg>
