<svg width="52" height="60" viewBox="0 0 52 60" fill="none" xmlns="http://www.w3.org/2000/svg">
<path d="M45.766 54.0943C47.2635 55.0651 48.8724 55.8521 50.558 56.4383C51.627 56.9903 51.351 58.0583 49.558 58.3693C48.11 58.6453 45.8349 58.0933 44.3179 58.0933C42.8009 58.0933 39.418 58.2653 38.526 57.6453C38.2298 57.4007 38.0151 57.0717 37.9104 56.7022C37.8058 56.3326 37.8161 55.9399 37.94 55.5763C38.4836 54.3759 38.743 53.0663 38.698 51.7493C38.523 50.5711 38.1865 49.4226 37.698 48.3363C37.181 47.0603 36.798 43.9233 37.285 43.7513C37.772 43.5793 37.63 43.7513 38.25 43.8893C39.1156 44.1224 40.0085 44.2384 40.905 44.2343C42.0263 44.2235 43.1447 44.1198 44.2489 43.9243C44.7659 43.8243 45.18 43.7173 45.007 44.7863C44.6612 46.3081 44.4193 47.8517 44.283 49.4063C44.2198 50.6244 44.2429 51.8455 44.352 53.0603C44.456 53.3673 45.215 53.7123 45.766 54.0943Z" fill="black"/>
<path opacity="0.4" d="M40.8018 31.2002C40.865 33.961 41.1183 36.7142 41.5598 39.4402C41.8008 41.2672 42.1118 41.4052 41.5598 42.2332C41.0078 43.0262 40.2838 44.3332 40.2838 44.3332L37.9048 44.1262C38.6416 43.2236 39.3102 42.2673 39.9048 41.2652C39.6856 39.9547 39.3629 38.6637 38.9398 37.4042L40.8018 31.2002Z" fill="black"/>
<path d="M8.1539 25.8225C5.49796 27.4047 3.04371 29.3033 0.844904 31.4765C-0.0860955 32.5765 -0.362096 30.8565 0.603904 27.9945C1.81161 24.7978 3.86045 21.9868 6.5339 19.8585C9.26424 17.9282 12.1467 16.2226 15.1529 14.7585C19.412 12.8966 23.8159 11.3856 28.3209 10.2405C28.8379 10.1025 27.7009 11.1025 27.5279 11.6535C26.6279 14.2735 8.7389 25.5125 8.7389 25.5125L8.1539 25.8225Z" fill="black"/>
<path d="M33.3549 57.4363C33.6649 59.2983 33.3898 59.4363 31.4548 59.6773C30.7795 59.7886 30.0885 59.7605 29.4245 59.5945C28.7604 59.4285 28.1374 59.1283 27.5938 58.7123C27.3184 58.3549 27.1607 57.9207 27.1428 57.4698C27.1249 57.0188 27.2476 56.5735 27.4938 56.1953C27.8393 55.7113 28.1069 55.1761 28.2868 54.6093C28.3713 54.1969 28.5226 53.801 28.7348 53.4373C28.8728 53.1953 28.9068 52.9543 28.9418 51.2653C28.9768 49.5763 28.9418 46.4043 29.1138 45.0603C29.2858 43.6813 35.2508 45.6803 35.2508 45.6803C35.2508 45.6803 33.8368 49.1963 33.4578 50.0583C33.1841 50.9861 33.0675 51.9531 33.1128 52.9193C33.1194 53.2898 33.0368 53.6565 32.8718 53.9883C32.7718 54.0223 33.2168 54.9193 33.0098 55.4363C33.0227 56.1166 33.1391 56.791 33.3549 57.4363Z" fill="black"/>
<path d="M38.3881 8.1699C34.5961 11.4459 27.2531 12.3419 16.3591 16.5479C13.5661 17.6169 6.12015 20.8229 4.32715 24.1669C10.3601 20.6849 12.6011 25.4769 13.0841 30.4069C13.5321 35.0269 15.8421 37.4399 21.7721 37.3019C27.8721 37.1639 29.7361 40.7149 31.4251 44.8869C34.7001 28.9249 39.9401 25.8219 43.3191 23.0989C50.4891 17.2719 41.6631 6.9979 38.3881 8.1699Z" fill="#88CE02"/>
<path d="M38.3892 8.1709C29.2892 11.3429 20.2892 12.1359 9.70621 18.6519C7.18921 20.2029 1.87921 23.7159 0.845215 30.4419C4.70621 26.1669 13.6352 20.7889 24.5642 17.3759C30.0802 15.6519 34.1142 14.5159 39.0092 12.6159C38.6642 10.4159 38.6642 9.5499 38.3892 8.1709Z" fill="#88CE02"/>
<path d="M50.0065 27.063C50.0065 27.063 49.3514 29.304 48.0414 30.028C48.0414 30.028 47.0764 30.373 45.1414 29.304C44.8775 29.0948 44.6588 28.834 44.4988 28.5377C44.3387 28.2413 44.2406 27.9155 44.2104 27.58C44.2113 27.3511 44.261 27.1251 44.3562 26.9169C44.4514 26.7088 44.5899 26.5233 44.7625 26.373C44.7625 26.373 45.3145 25.442 45.9695 25.473C46.6245 25.504 47.7274 25.611 48.0694 25.301C48.3864 24.96 50.0755 25.925 50.0065 27.063Z" fill="black"/>
<path d="M35.9413 5.37789C35.8662 6.33764 35.7397 7.29268 35.5623 8.23889C35.5273 8.44589 34.4934 8.54889 33.7354 8.85989C35.1834 12.9969 43.9053 12.9599 45.0434 10.9279C44.3527 10.4783 43.6263 10.0863 42.8714 9.75589C42.3544 9.54889 42.3883 9.58389 42.3543 8.61789C42.3203 7.65189 42.2543 5.85989 42.1823 5.37689C42.1103 4.89389 36.7693 4.89489 35.9413 5.37789Z" fill="black"/>
<path d="M36.2863 5.37805C36.2863 5.37805 36.2863 6.37805 36.1863 7.34305C36.164 7.70205 36.1179 8.05916 36.0483 8.41205C36.7644 9.23834 37.2832 10.2167 37.5653 11.2731C39.2203 14.9621 43.0473 13.1351 44.6323 11.3731C43.8534 10.8502 43.0215 10.4111 42.1503 10.0631C41.6333 9.85605 41.8743 9.40805 41.8403 8.44305C41.8063 7.47805 41.6683 6.06405 41.5993 5.54305C41.5303 5.02205 37.1133 4.89505 36.2863 5.37805Z" fill="#EFEFEF"/>
<path d="M35.9412 5.378C35.9412 5.378 35.9062 5.999 35.8032 6.723C36.2512 7.171 36.8372 7.792 37.2862 8.171C37.5962 8.447 38.3552 8.412 39.0442 8.412C39.5157 8.47018 39.9937 8.44684 40.4572 8.343C41.1313 7.94915 41.7369 7.44828 42.2502 6.86C42.2162 6.24 42.1812 5.653 42.1502 5.377C42.1122 4.895 36.7682 4.895 35.9412 5.378Z" fill="black"/>
<path d="M39.0781 7.99793C38.6507 8.00037 38.2239 7.96692 37.8021 7.89793C37.6328 7.85016 37.4704 7.78058 37.3191 7.69093C37.0781 7.51893 36.8361 7.31193 36.5611 7.10493C36.0091 6.69093 35.9751 6.44993 35.9751 6.34693C36.1191 5.01594 36.096 3.67215 35.9061 2.34693C35.9061 2.34693 35.6651 1.41593 36.9751 1.17493C37.6687 1.03921 38.37 0.947031 39.0751 0.898926C39.7823 0.923304 40.4856 1.01573 41.1751 1.17493C42.4851 1.41593 42.2441 2.34693 42.2441 2.34693C42.0543 3.67216 42.0311 5.01593 42.1751 6.34693C42.1751 6.44693 42.1411 6.69193 41.5891 7.10493C41.2271 7.44252 40.8066 7.71126 40.3481 7.89793C39.9283 7.96658 39.5035 8.00002 39.0781 7.99793Z" fill="black"/>
<path d="M39.0781 0C36.8031 0 36.3541 0.62 35.6991 1.31C35.5611 1.482 35.6641 2.517 35.9061 4.723H36.2161C36.085 4.28722 36.0269 3.83275 36.0441 3.378C36.0791 2.654 36.2161 2.689 36.1131 2.516C35.9751 2.309 35.6991 1.964 36.3201 1.616C36.9411 1.268 37.9061 1.892 39.0781 1.926C40.2501 1.891 41.2501 1.271 41.8701 1.616C42.4901 1.961 42.2151 2.305 42.0771 2.516C41.9391 2.727 42.1111 2.654 42.1461 3.378C42.1633 3.83275 42.1052 4.2872 41.9741 4.723H42.2841C42.4672 3.61813 42.5479 2.49871 42.5251 1.379C41.9391 0.62 41.3531 0.034 39.0781 0Z" fill="black"/>
<path d="M50.0073 27.1668C49.669 28.2849 48.9948 29.2719 48.0763 29.9938C47.8003 29.8558 47.8353 29.6488 47.5933 29.3388C47.5243 29.2388 47.2833 29.1668 47.1793 29.0628C47.0753 28.9588 47.1103 28.7868 46.9383 28.6488C46.8003 28.5108 46.6974 28.6138 46.5594 28.5108C46.4214 28.3728 46.3873 28.2008 46.2833 28.0978C46.2143 28.0288 45.9383 27.9978 45.8693 27.9258C45.6973 27.7538 44.1804 27.4428 44.2494 27.0988C44.3365 26.7779 44.4764 26.4738 44.6634 26.1988C44.6634 26.1988 45.3184 25.2338 45.9734 25.2678C46.6284 25.3018 47.2493 25.4398 47.5933 25.1298C47.9733 24.7878 50.1103 26.0638 50.0073 27.1668Z" fill="black"/>
<path d="M45.5253 11.9251C46.1627 11.7876 46.8231 11.7972 47.4562 11.9531C48.0894 12.1091 48.6787 12.4073 49.1793 12.8251C49.7561 13.3697 50.154 14.0766 50.3202 14.8523C50.4865 15.628 50.4133 16.4359 50.1103 17.1691C50.4621 17.6085 50.6971 18.1297 50.7936 18.6842C50.8901 19.2387 50.845 19.8087 50.6623 20.3411C52.9373 22.2721 51.9383 25.2411 49.9043 27.2021C49.7456 26.6761 49.4289 26.2117 48.9973 25.8718C48.5656 25.5319 48.0399 25.333 47.4913 25.3021C47.5603 24.6131 45.6983 24.0611 46.5603 22.2681C45.2503 21.9581 45.2843 21.0611 45.0783 19.9581C44.9053 18.8581 45.5253 11.9251 45.5253 11.9251Z" fill="black"/>
<path d="M44.734 12.8939C44.734 12.8939 47.251 11.6179 48.734 13.0659C49.2754 13.5929 49.6291 14.2828 49.741 15.0299C49.853 15.7771 49.7171 16.5404 49.354 17.2029C49.7475 17.6327 50.0214 18.1581 50.1484 18.7268C50.2755 19.2955 50.2512 19.8875 50.078 20.4439C49.978 20.7889 49.216 20.7889 48.664 21.6849C50.043 20.8919 50.905 21.0989 51.215 22.0979C51.698 23.6489 50.629 25.5109 49.698 26.5449C49.698 26.5099 49.663 26.4759 49.663 26.4449C49.4737 27.4284 49.0074 28.3374 48.319 29.0649C48.1372 29.2783 47.8912 29.4272 47.6178 29.4894C47.3444 29.5515 47.0583 29.5237 46.802 29.4099C46.1292 29.1576 45.4909 28.8216 44.902 28.4099C44.35 28.0999 44.661 27.7199 44.661 27.4099C44.6911 27.2937 44.7503 27.187 44.833 27.0999C44.983 26.8152 45.1812 26.5587 45.419 26.3419C45.547 26.1683 45.7122 26.0255 45.9026 25.9241C46.0929 25.8227 46.3035 25.7652 46.519 25.7559C47.0408 25.8152 47.5685 25.7192 48.036 25.4799C48.036 24.2729 46.657 24.2389 47.136 22.1699C47.171 22.0699 47.343 21.8939 47.894 21.8249C47.2275 21.7838 46.5949 21.5164 46.101 21.0669C45.6639 20.6821 45.372 20.159 45.274 19.5849C45.077 18.5099 44.734 12.8939 44.734 12.8939Z" fill="#EFEFEF"/>
<path d="M37.4583 10.722C36.6254 9.64496 35.4629 8.87019 34.1483 8.51596C33.5623 8.34396 33.1833 8.82596 32.5973 9.17096C32.4253 9.07096 31.6663 8.72296 31.2523 8.96396C30.9012 9.20742 30.5336 9.42628 30.1523 9.61896C29.7535 9.50738 29.3288 9.53165 28.9453 9.68796C28.2134 9.92194 27.5817 10.3958 27.1523 11.033C26.7383 12.516 34.4613 11.412 34.4613 11.412L37.4583 10.722Z" fill="black"/>
<path d="M37.527 10.7187C36.427 10.3397 36.596 9.06375 34.148 8.85675C33.665 8.82175 33.355 9.20175 33.01 9.44275C33.206 9.65187 33.3583 9.89801 33.458 10.1668C33.087 9.73246 32.5945 9.41903 32.044 9.26675C31.527 9.16675 31.182 9.54275 30.631 9.81875C30.7592 9.96993 30.8746 10.1315 30.976 10.3017C30.7697 10.1375 30.5215 10.0343 30.2596 10.0039C29.9976 9.97345 29.7324 10.0171 29.494 10.1297C28.6978 10.3837 28.0073 10.8925 27.529 11.5778C27.115 13.0608 34.493 11.4057 34.493 11.4057L37.527 10.7187Z" fill="#88CE02"/>
<path d="M44.0084 11.2743C44.0084 11.2743 44.0084 10.8953 43.9734 10.5503C43.9734 10.4813 43.6974 10.3093 43.6974 10.2403L43.6284 10.1713C43.9204 10.003 44.266 9.95362 44.5934 10.0333C44.9062 10.179 45.1524 10.4376 45.2824 10.7573C46.0754 10.4813 46.1444 10.7923 46.5234 11.2053C47.3504 11.0333 47.4544 11.3433 47.9714 12.1053C47.3609 12.0467 46.745 12.0804 46.1444 12.2053C45.743 12.2088 45.3453 12.1277 44.9772 11.9673C44.6092 11.8069 44.2791 11.5708 44.0084 11.2743Z" fill="black"/>
<path d="M43.8701 11.1012C43.8701 11.1012 44.0771 10.9292 44.0081 10.8942C44.3871 10.6872 44.9081 10.4462 45.1461 11.1012C45.9391 10.8252 46.0461 11.2012 46.4221 11.6182C47.3871 11.1702 47.4561 11.7182 47.5221 11.9632C47.061 11.9731 46.6008 12.0065 46.1431 12.0632C45.7193 12.0618 45.3001 11.976 44.9098 11.8109C44.5196 11.6457 44.1661 11.4044 43.8701 11.1012Z" fill="#88CE02"/>
<path d="M32.148 10.2402C33.3133 10.6372 34.537 10.8353 35.768 10.8262C37.423 10.6882 40.25 10.5502 41.768 11.4472C42.7355 11.1274 43.7703 11.068 44.768 11.2752C46.216 11.6542 48.868 14.1362 48.078 16.7572C47.8041 17.0641 47.4436 17.2807 47.044 17.3782C47.196 18.0949 47.1238 18.841 46.837 19.5152C45.8806 21.0903 45.3353 22.8805 45.251 24.7212C45.217 25.1352 45.151 25.9972 45.079 26.4102C42.39 26.3102 38.253 25.3102 34.185 25.3762C34.219 24.9282 34.254 24.6522 34.285 24.2042H34.385C34.178 23.0662 34.109 22.4802 33.902 21.6182C32.3491 20.7308 31.0265 19.4908 30.041 17.9982C28.907 16.1692 32.148 10.2402 32.148 10.2402Z" fill="black"/>
<path d="M45.4563 28.855C45.4563 28.855 47.5943 36.509 45.0773 39.715C45.2787 40.7627 45.1078 41.8478 44.5943 42.783C44.4563 43.472 44.2843 44.093 44.1803 44.783C43.7323 47.644 42.9733 48.851 42.7663 53.436L40.6973 53.402C40.5792 51.6802 40.2553 49.9787 39.7323 48.334C39.3193 47.334 37.6983 45.99 37.7673 44.645C37.8363 43.611 38.0433 42.745 39.8013 41.37C39.9393 39.37 37.9393 37.47 38.2503 30.028L45.4563 28.855Z" fill="black"/>
<path d="M44.8353 28.5449C45.3873 32.0609 46.6623 37.2669 44.3523 39.8179C44.4884 40.4648 44.5 41.1317 44.3863 41.7829C44.2992 42.2411 44.1724 42.6908 44.0073 43.1269C43.7075 44.0209 43.5109 44.9463 43.4213 45.8849C43.0041 48.3921 42.7851 50.9283 42.7663 53.4699L40.6973 53.4349C40.5793 51.7131 40.2554 50.0116 39.7323 48.3669C39.3193 47.3669 38.4573 46.5049 38.3883 45.1609C38.3193 44.1269 39.0433 42.0609 40.7673 42.1269C40.6673 37.9559 38.7333 38.7829 38.2163 30.0949L44.8353 28.5449Z" fill="#EFEFEF"/>
<path d="M32.1493 10.2402C32.6664 10.3958 33.1976 10.4996 33.7353 10.5502C34.5742 10.5905 35.4148 10.5788 36.2523 10.5152C37.9073 10.3772 40.2522 10.2052 41.8032 11.1012C42.3848 10.931 42.9912 10.861 43.5962 10.8942C44.0453 11.0333 44.4833 11.2061 44.9062 11.4112C46.4232 11.7902 47.8713 14.3112 47.2163 16.5822C47.1473 16.7542 46.6643 16.5822 46.1163 16.7542C46.28 17.6906 46.1475 18.6547 45.7373 19.5122C44.7968 21.2153 44.3755 23.1565 44.5252 25.0962C40.9052 24.9242 39.2852 24.6822 35.6992 24.5102C35.4315 23.4577 35.2469 22.3857 35.1473 21.3042C35.5828 21.0997 35.9705 20.8061 36.2853 20.4422C35.9421 20.5444 35.5817 20.5757 35.226 20.5342C34.8703 20.4928 34.5268 20.3795 34.2163 20.2012C33.351 19.5982 32.5837 18.8656 31.9412 18.0292C31.8722 17.9602 31.4933 19.0982 30.6313 19.1292C30.3213 18.6812 31.6312 17.4052 31.3892 16.9232C30.5282 15.1702 32.1493 10.2402 32.1493 10.2402Z" fill="#EFEFEF"/>
<path d="M45.111 25.6841C45.111 25.6841 45.18 26.9251 45.18 27.2351C45.18 27.5801 45.456 28.6141 45.49 29.0971C45.111 29.7521 43.456 31.2351 40.457 31.7861C37.492 32.4061 33.562 27.7521 33.562 27.7521C33.662 27.3041 34.01 25.9941 34.252 25.3041C34.3006 25.2064 34.3343 25.1019 34.352 24.9941C34.665 24.5461 45.111 25.6841 45.111 25.6841Z" fill="black"/>
<path d="M44.3524 25.7879C44.3625 26.4724 44.4433 27.154 44.5934 27.8219C44.7941 28.5811 44.9438 29.3528 45.0414 30.1319C45.0414 32.1319 42.4214 31.7869 40.2144 31.8559C37.2494 32.4769 34.7324 27.8219 34.7324 27.8219C34.898 26.9927 35.1168 26.175 35.3874 25.3739C35.4214 24.9599 35.4874 24.4429 35.5254 24.2019C38.4955 24.1896 41.4643 24.3274 44.4204 24.6149C44.4751 25.0063 44.4517 25.4047 44.3514 25.7869L44.3524 25.7879Z" fill="#EFEFEF"/>
<path d="M41.0433 30.2342C41.0433 30.2342 39.2163 26.1662 33.7343 27.3732C32.4243 31.0622 30.6663 35.3022 31.8033 39.8872C30.6653 41.4382 29.3553 42.3002 29.3553 45.1622C29.3014 46.2788 29.3476 47.3979 29.4933 48.5062L33.5273 48.7132C34.3262 47.6501 34.9436 46.4621 35.3543 45.1972C35.5537 44.374 35.6119 43.5229 35.5263 42.6802C35.9655 42.2449 36.2449 41.6741 36.3193 41.0602C37.6921 40.2222 38.7743 38.9826 39.4193 37.5092C40.4963 35.2332 40.2163 33.2682 41.0433 30.2342Z" fill="black"/>
<path d="M41.0423 30.2348C40.9423 29.8558 39.5603 26.1348 34.4573 27.2348C31.4573 35.2348 32.5573 38.5428 33.0093 39.9908C30.9753 42.5768 30.0443 43.1278 30.4583 48.3688H33.1473C34.2832 46.8534 34.8451 44.9843 34.7333 43.0938C34.7333 42.9938 34.3543 43.3008 34.0783 43.6458C34.2853 42.5768 34.8713 42.3698 35.3193 41.7148C35.5771 41.3533 35.7102 40.9176 35.6983 40.4738C36.6866 39.8165 37.534 38.9688 38.1911 37.9804C38.8482 36.9919 39.3017 35.8825 39.5253 34.7168C39.9423 33.2678 40.4223 30.8898 41.0423 30.2348Z" fill="#EFEFEF"/>
<path d="M32.5283 24.6841C33.1248 24.7146 33.7153 24.8187 34.2863 24.9941C34.7414 25.1068 35.1354 25.3909 35.3863 25.7871C35.6963 26.1321 36.4553 26.6491 36.3173 27.1661C36.2483 27.4421 36.0763 27.5111 35.8343 27.7521C35.7343 27.8521 34.9723 28.6831 34.8003 28.7861C34.7003 28.8551 34.5593 28.9581 34.4553 29.0271L33.9383 29.3721C33.6499 29.5518 33.3123 29.6361 32.9733 29.6131C32.444 29.5777 31.9438 29.3584 31.5593 28.9931C31.5593 28.9931 31.4903 28.7171 31.6283 28.5791C31.271 28.2798 30.9576 27.9317 30.6973 27.5451C30.505 27.134 30.4802 26.6641 30.6283 26.2351C30.7003 25.9251 32.0453 25.0641 32.5283 24.6841Z" fill="black"/>
<path d="M33.3894 58.2292L33.2894 59.0912C33.2894 59.0912 32.9794 59.4702 30.6694 59.4362C28.3254 59.4012 27.7044 58.6782 27.4974 58.2982L27.3594 57.3982C27.3594 57.3982 27.8074 56.7432 27.9114 56.7432C28.6694 56.8122 31.2554 57.8432 33.0484 58.1222C33.2174 58.1252 33.2514 58.1942 33.3894 58.2292Z" fill="black"/>
<path d="M38.388 56.4699C38.388 56.8489 38.353 56.8489 38.353 57.2279C38.767 57.5379 39.801 57.7109 41.766 57.6759C44.627 57.6069 47.282 58.5379 50.523 57.9859L50.558 57.3649L50.248 57.3309L38.768 56.3999L38.388 56.4699Z" fill="black"/>
<path d="M40.9064 57.6769H41.7684C43.6304 57.6079 45.3885 58.0219 47.2845 58.1249C48.2845 58.0899 49.5255 57.8489 49.4225 57.1249L39.6315 56.2969C39.0405 56.9519 39.4924 57.5039 40.9064 57.6769Z" fill="black"/>
<path d="M29.666 43.1631C31.4362 44.1627 33.466 44.6072 35.492 44.4391C35.4105 45.9547 34.8695 47.4095 33.941 48.6101C32.959 50.2727 32.4246 52.1614 32.39 54.0921C32.425 54.6441 32.735 55.1261 32.321 55.8501C32.6083 56.5003 32.9304 57.1345 33.286 57.7501C33.562 58.3021 33.7 58.9221 31.872 58.9571C30.01 58.9911 27.011 58.7851 27.425 57.3371C27.632 56.5791 28.218 55.7861 28.287 55.4751C28.313 54.8027 28.5413 54.1537 28.942 53.6131C29.3275 51.999 29.4096 50.3272 29.184 48.6831C29.011 47.0581 28.977 44.4731 29.666 43.1631Z" fill="black"/>
<path d="M32.872 15.0652C35.32 11.7902 33.251 9.16523 29.321 9.96523C28.4661 10.0712 27.6738 10.4684 27.0773 11.09C26.4809 11.7116 26.1167 12.5197 26.046 13.3782C25.529 13.4472 24.357 13.5162 23.771 15.6532C23.6007 16.7211 23.0788 17.7016 22.288 18.4392C21.771 19.0252 22.323 20.2322 22.702 21.0942C23.978 24.0592 27.908 24.3352 30.562 26.5762C31.4793 26.2349 32.2309 25.5549 32.662 24.6762C30.421 22.0212 30.904 20.9872 30.007 19.6082C30.9287 19.2877 31.7141 18.6635 32.2346 17.8382C32.7551 17.0128 32.9799 16.0351 32.872 15.0652Z" fill="black"/>
<path d="M32.3902 14.8591C32.5282 14.6521 32.7692 14.2041 32.8732 14.0321C32.9082 13.9971 33.2872 14.6521 33.3212 14.6181C34.2522 13.1011 34.4932 10.8951 33.4212 10.6881C33.0573 10.6286 32.6995 10.5362 32.3522 10.4121C31.5677 10.1703 30.7303 10.1585 29.9392 10.3781C28.4222 10.6541 26.9052 11.7571 26.9052 13.3431C27.2352 13.5196 27.527 13.7597 27.7637 14.0496C28.0004 14.3395 28.1773 14.6734 28.2842 15.0321C27.7672 14.3081 26.8702 13.5151 25.8022 14.2051C24.6642 14.9291 25.2502 16.5841 23.7342 18.3051C23.2172 18.8911 23.2862 19.5811 23.8342 20.9601C24.7342 23.1321 28.9712 24.3041 31.2812 26.3731C31.7879 26.0908 32.2059 25.6728 32.4882 25.1661C31.3336 23.9468 30.4418 22.5033 29.8682 20.9251C29.3658 19.7351 28.542 18.7085 27.4892 17.9601C27.9755 18.1326 28.4386 18.3643 28.8682 18.6501C29.044 18.7526 29.2403 18.8147 29.443 18.832C29.6456 18.8493 29.8496 18.8213 30.0402 18.7501C31.5282 18.2371 32.3212 16.1681 32.3902 14.8591Z" fill="#EFEFEF"/>
<path d="M47.3862 15.4102C47.2862 16.7202 46.3172 16.0652 45.8002 15.8242C44.7744 15.3428 43.6582 15.0844 42.5252 15.0662C41.1456 15.0521 39.7692 15.2025 38.4252 15.5142C36.5632 16.0312 36.0122 15.9972 35.1842 15.5832C34.3976 15.109 33.6381 14.5911 32.9092 14.0322C32.9146 14.3251 33.0246 14.6063 33.2192 14.8252C33.9872 15.6214 34.9495 16.2036 36.0112 16.5142C36.5912 16.6652 37.2028 16.6412 37.7692 16.4452C40.8372 15.6872 44.0782 15.5452 46.8012 17.2032C46.9392 17.2722 47.4222 17.0652 47.6282 16.7552C47.9032 16.3052 47.3862 15.4102 47.3862 15.4102Z" fill="black"/>
<path d="M31.7002 28.5449C32.0499 28.7109 32.3845 28.9069 32.7002 29.1309C32.5401 29.1331 32.3833 29.0849 32.2522 28.9929C32.0575 28.8572 31.873 28.7075 31.7002 28.5449Z" fill="#001423"/>
<path d="M41.6641 1.20673C41.5641 0.896727 40.8021 0.344727 39.0441 0.344727C37.1441 0.344727 36.5961 0.930727 36.5621 1.24473C36.5621 1.34473 36.4241 2.45173 36.3901 2.89973C36.3901 2.89973 36.3901 3.45173 36.4241 4.27873C36.4591 4.83073 36.5961 5.14073 36.6651 5.86473C36.7202 6.53129 36.9457 7.17249 37.3201 7.72673C37.4662 7.83403 37.6296 7.91555 37.8031 7.96773C38.6464 8.12276 39.5109 8.12276 40.3541 7.96773C40.6068 7.83186 40.8251 7.64006 40.9924 7.40696C41.1596 7.17385 41.2714 6.90562 41.3191 6.62273C41.4571 5.89873 41.5951 5.38173 41.6291 4.93373C41.6981 4.48573 41.7291 3.48573 41.7671 3.20973C41.8258 2.54051 41.7912 1.86639 41.6641 1.20673Z" fill="#EFEFEF"/>
<path d="M38.044 43.8188C38.044 43.8188 39.871 44.6119 44.388 43.9189C44.388 43.9189 43.112 50.3308 43.699 53.5368C43.699 53.5368 44.285 54.3639 48.629 55.9499C48.629 55.9499 50.56 56.4329 50.491 57.3979C50.491 57.3979 50.56 57.6049 48.216 57.5359C45.872 57.4669 43.665 57.0529 42.116 57.0529C40.567 57.0529 38.91 57.1219 38.634 56.6739C38.324 56.2599 38.703 55.1909 39.151 54.5739C39.634 53.9189 39.496 53.4359 39.461 52.2639C39.354 49.1969 37.01 46.0248 38.044 43.8188Z" fill="black"/>
<path d="M37.6644 44.4038C37.4234 44.7488 37.6984 46.0588 38.0434 47.3338C38.3884 48.6088 39.1434 49.3678 39.3194 51.4708C39.4914 53.5388 39.5264 53.8148 38.9404 55.0218C38.3544 56.2288 38.1824 57.3318 40.2164 57.3658C41.9563 57.321 43.697 57.4133 45.4224 57.6418C46.7098 57.9407 48.0382 58.0221 49.3524 57.8828C50.4904 57.7108 50.7314 57.3308 50.2524 56.9828C49.7734 56.6348 47.7704 56.2588 46.9084 55.5688C46.0814 54.9488 43.7364 53.9138 43.7024 53.6378C43.5764 51.8352 43.5877 50.0257 43.7364 48.2248C43.9084 47.1248 44.1504 45.5358 44.2194 45.1248C44.2884 44.7138 44.6334 44.2978 44.0474 44.4348C42.5827 44.7156 41.091 44.8314 39.6004 44.7798C38.943 44.728 38.2935 44.6019 37.6644 44.4038Z" fill="#88CE02"/>
<path opacity="0.3" d="M38.8411 55.0571C39.5025 55.3547 40.2161 55.5188 40.9411 55.5401C40.8085 56.1496 40.8564 56.7845 41.0791 57.3671C41.4581 58.0571 38.3211 57.6431 38.3211 57.6431L38.1831 55.1951L38.8411 55.0571Z" fill="black"/>
<path opacity="0.3" d="M47.9724 58.022C48.115 57.99 48.2472 57.9222 48.3564 57.825C48.4655 57.7278 48.5482 57.6044 48.5965 57.4665C48.6448 57.3285 48.6572 57.1805 48.6325 57.0364C48.6079 56.8924 48.5469 56.757 48.4554 56.643C47.9724 56.057 47.5554 55.9529 48.1794 55.9189C49.2041 56.2295 50.1802 56.6819 51.0794 57.263L49.9034 58.334L47.9724 58.022Z" fill="black"/>
<path opacity="0.3" d="M37.5612 45.744C38.5487 46.0129 39.5737 46.1176 40.5952 46.054C41.8078 46.0368 43.0131 45.8631 44.1812 45.537C45.1812 45.192 44.7672 45.916 44.7672 45.916L44.2152 46.433C43.1042 46.7987 41.9368 46.9623 40.7682 46.916C39.6675 46.9631 38.5655 46.8587 37.4932 46.606L37.5612 45.744Z" fill="black"/>
<path opacity="0.3" d="M37.6304 47.4732C38.6179 47.7421 39.6429 47.8468 40.6644 47.7832C41.8164 47.818 42.9671 47.6784 44.0774 47.3692C44.4914 47.2312 44.2494 47.8172 44.2494 47.8172L44.0774 48.1272C42.9605 48.465 41.7955 48.6163 40.6294 48.5752C39.6346 48.6363 38.6362 48.5552 37.6644 48.3342L37.6304 47.4732Z" fill="black"/>
<path d="M35.354 23.3052C36.6082 24.195 38.0261 24.8278 39.526 25.1672C41.2132 25.338 42.9149 25.3045 44.594 25.0672L44.525 25.5502C42.3572 25.8557 40.153 25.7856 38.009 25.3432C35.182 24.5852 35.492 24.4122 35.492 24.4122L35.354 23.3052Z" fill="black"/>
<path d="M29.5942 52.712C30.5002 53.0794 31.4849 53.2098 32.4552 53.091C32.5932 53.056 32.4552 50.712 32.8342 49.643C33.3942 48.162 34.2862 46.955 34.6992 44.335C33.356 44.1952 32.0289 43.9297 30.7352 43.542C29.6322 46.921 30.0112 49.816 29.5942 52.712Z" fill="#EFEFEF"/>
<path d="M31.9074 54.8847C32.1484 54.9537 32.3214 55.2297 32.3904 55.0567C32.5284 54.7467 32.1494 54.1567 32.1144 53.7467V53.7117C31.383 53.462 30.6001 53.4028 29.8394 53.5397C29.5984 53.9877 29.2194 53.9187 29.0814 54.8157C29.0124 55.2637 29.5644 54.8847 30.0814 54.8497C29.1504 55.4697 28.0814 56.2637 27.9094 56.9497C27.7014 57.9187 28.0514 58.1937 29.0814 58.7117C29.9997 58.898 30.9378 58.9675 31.8734 58.9187C32.8044 58.7467 32.9734 58.2987 32.7004 57.6777C32.3286 56.7806 32.0625 55.8433 31.9074 54.8847Z" fill="#EFEFEF"/>
<path d="M32.2874 10.1011C33.3275 10.5555 34.4738 10.7106 35.5974 10.5491C35.7354 10.5491 37.1144 10.3081 37.1834 10.3421C37.3214 10.3771 37.3214 10.4801 37.3214 10.4801C36.7861 10.7035 36.2124 10.8207 35.6324 10.8251C34.5741 10.9376 33.5039 10.82 32.4954 10.4801C31.6324 10.1011 32.2874 10.1011 32.2874 10.1011Z" fill="black"/>
<path d="M44.0084 10.7561C44.7759 11.0819 45.4952 11.5112 46.1464 12.0321C46.6634 12.5841 46.3874 12.5491 46.2844 12.4111C45.7885 11.992 45.2447 11.6332 44.6644 11.3421C44.3229 11.2166 44.0073 11.0295 43.7334 10.7901C43.7324 10.7221 44.0084 10.7561 44.0084 10.7561Z" fill="black"/>
<path d="M32.114 25.0639C32.5979 25.0042 33.089 25.0504 33.5533 25.1992C34.0176 25.3481 34.444 25.596 34.803 25.9259C35.148 26.2709 35.703 26.6499 35.63 26.9949C35.5434 27.2132 35.4146 27.4123 35.251 27.5809C35.151 27.7189 34.837 28.0289 34.734 28.1329C34.596 28.2329 34.114 28.6159 34.01 28.6849C33.906 28.7539 33.769 28.9269 33.665 28.9609C33.4884 29.0228 33.2998 29.0426 33.1142 29.0186C32.9286 28.9947 32.7511 28.9276 32.596 28.8229C32.251 28.6509 32.665 28.6159 32.286 28.3399C31.355 27.6849 30.838 27.2399 31.217 25.9609C31.252 25.7189 31.631 25.4429 32.114 25.0639Z" fill="#EFEFEF"/>
<path opacity="0.4" d="M23.322 17.1684C20.222 18.4094 12.322 22.3393 10.083 23.5463C11.945 24.7183 12.806 27.5463 13.083 30.4063C13.117 30.6823 13.152 30.9233 13.183 31.1993C13.2026 31.3741 13.236 31.5469 13.283 31.7164C13.278 31.765 13.2904 31.8139 13.318 31.8544C15.352 26.3044 22.626 20.4434 22.902 19.9954C23.04 19.7884 22.73 18.8953 23.212 18.0304C23.84 16.9294 25.046 16.4444 23.322 17.1684Z" fill="black"/>
<path opacity="0.4" d="M30.7 43.1974C32.286 40.0254 32.32 36.9914 32.286 33.4404C32.286 31.9574 33.355 29.8544 32.803 30.4404C30.734 32.7504 25.529 37.0944 21.771 37.3354C27.046 37.1644 29.114 39.8184 30.7 43.1974Z" fill="black"/>
<path d="M7.0498 26.4799C9.0148 25.0669 19.1848 19.6539 21.6328 18.8949C24.0808 18.1019 23.3218 17.1709 23.3218 17.1709C17.884 19.5125 12.5885 22.1717 7.4628 25.1349" fill="black"/>
<path opacity="0.4" d="M36.0088 16.5132C35.2158 16.2032 34.5958 17.1343 34.8018 18.0303C35.0078 18.9263 36.8708 19.9302 36.7668 23.2012C36.8129 24.4969 36.5898 25.7881 36.1118 26.9932L34.8018 25.3382C34.8018 25.3382 34.5948 21.6152 34.1468 21.0632C33.6988 20.5112 32.2848 19.5122 31.7338 18.9952C31.1828 18.4782 32.3538 17.7882 32.2858 16.8232C32.3462 15.8693 32.5436 14.929 32.8718 14.0312L36.0088 16.5132Z" fill="black"/>
<path d="M30.7691 41.7492C30.7001 41.6802 30.8381 41.6112 30.7691 41.6112C30.4881 41.5816 30.2167 41.4924 29.9729 41.3496C29.729 41.2068 29.5184 41.0137 29.3551 40.7832C27.8731 38.6462 25.7011 37.2322 21.7701 37.3362C15.8701 37.4742 13.5301 35.0612 13.0821 30.4412C12.8411 27.9242 12.1511 25.4772 10.7381 24.0972L9.91113 24.6142C11.4971 25.9932 12.0111 28.2342 12.3591 31.3022C12.9111 35.9222 16.6341 38.0592 20.9781 38.1282C25.4941 38.1972 27.1151 39.1282 28.8041 41.4032C29.202 41.9547 29.7928 42.3363 30.4591 42.4722L30.7691 41.7492Z" fill="black"/>
<path opacity="0.4" d="M46.7659 19.582C46.8785 20.3241 47.2016 21.0182 47.6969 21.582C47.9389 21.823 47.9729 21.892 47.7659 21.892C47.5589 21.892 46.0419 21.823 46.0419 21.823L45.6279 21.099L46.7659 19.582Z" fill="black"/>
</svg>
