<svg width="134" height="100" viewBox="0 0 134 100" fill="none" xmlns="http://www.w3.org/2000/svg">
<path d="M114.85 57.4903C110.201 57.4903 106.179 58.6395 102.783 60.3111C101.529 57.8559 100.276 55.6619 100.067 54.0425C99.8055 52.1619 99.5443 51.0127 99.8055 48.7665C100.119 46.5202 101.425 43.3337 101.373 43.0725C101.32 42.8113 101.059 41.662 98.3951 41.662C95.7309 41.662 93.3802 42.1844 93.119 42.8635C92.8578 43.5949 92.3354 45.162 92.022 46.8336C91.5519 49.2888 86.6414 57.9604 83.8728 62.5051C82.9848 60.729 82.2012 59.1619 82.0445 57.9082C81.7833 56.0276 81.5221 54.8783 81.7833 52.6321C82.0967 50.3858 83.4027 47.1993 83.3504 46.9381C83.3504 46.6769 83.037 45.5277 80.3728 45.5277C77.7087 45.5277 75.358 46.0501 75.0968 46.7292C74.8356 47.4605 74.5221 49.0799 73.9998 50.6993C73.4774 52.3187 66.9476 66.8409 65.2237 70.6021C64.3357 72.5349 63.6043 74.0498 63.0297 75.0946C63.0297 75.0946 63.0297 75.1468 62.9252 75.3036C62.4551 76.1916 62.1939 76.714 62.1939 76.714C61.8282 77.3931 61.4625 77.9677 61.2536 77.9677C61.0969 77.9677 60.8357 76.1916 61.3058 73.8409C62.2984 68.7738 64.5968 60.938 64.5446 60.6768C64.5446 60.5201 64.9625 59.1619 63.0297 58.4828C61.1491 57.7515 60.47 58.9529 60.2611 58.9529C60.1044 58.9529 59.9476 59.3708 59.9476 59.3708C59.9476 59.3708 62.0894 50.5426 55.9253 50.5426C52.0596 50.5426 46.7836 54.7739 44.1194 58.535C42.4478 59.4231 38.9478 61.3559 35.1344 63.4454C33.6717 64.229 32.2091 65.0648 30.7986 65.7962C30.6941 65.6917 30.5897 65.5872 30.4852 65.4827C23.0151 57.5425 9.22417 51.9008 9.85103 41.1919C10.06 37.274 11.4182 27.0875 36.3359 14.6548C56.8656 4.52054 73.1639 7.34142 75.9848 13.5578C80.0072 22.4383 67.261 38.8934 46.0522 41.2964C37.9553 42.1844 33.724 39.1024 32.6792 37.9009C31.5822 36.6994 31.3732 36.5949 30.9553 36.8561C30.2762 37.2218 30.6941 38.3188 30.9553 38.9456C31.5822 40.6173 34.1941 43.5426 38.5821 44.953C42.5 46.2068 51.9552 46.9381 63.4476 42.4978C76.2982 37.5352 86.328 23.692 83.3504 12.1473C80.5818 0.49819 61.0969 -3.36745 42.6567 3.16235C31.6867 7.08022 19.7763 13.1921 11.2615 21.1846C1.07498 30.692 -0.544411 38.9456 0.134687 42.3934C2.48541 54.6694 19.4106 62.6619 26.2016 68.5648C25.836 68.7738 25.5225 68.9305 25.2613 69.0872C21.8659 70.7588 8.96297 77.4976 5.72419 84.6542C2.06751 92.7512 6.29882 98.5496 9.11969 99.3332C17.7913 101.736 26.7763 97.4004 31.53 90.2437C36.2836 83.0871 35.7613 73.7886 33.515 69.5051C33.515 69.4529 33.4628 69.4006 33.4105 69.3484C34.2986 68.826 35.1866 68.3036 36.0747 67.7812C37.7986 66.7365 39.5224 65.7962 40.9851 65.0126C40.1493 67.2588 39.5224 69.9752 39.2612 73.8931C38.8956 78.4901 40.7761 84.393 43.2313 86.7438C44.3284 87.7885 45.6343 87.7885 46.4701 87.7885C49.3432 87.7885 50.6492 85.3856 52.0596 82.5647C53.8357 79.117 55.4029 75.0946 55.4029 75.0946C55.4029 75.0946 53.4178 85.9602 58.7984 85.9602C60.7312 85.9602 62.7163 83.4527 63.6043 82.1468C63.6043 82.1468 63.6566 82.0945 63.761 81.8856C63.97 81.5722 64.0745 81.3632 64.0745 81.3632V81.311C64.858 79.9528 66.5819 76.8707 69.1938 71.6991C72.5371 65.0648 75.7759 56.8112 75.7759 56.8112C75.7759 56.8112 76.0893 58.8485 77.0818 62.1917C77.6564 64.1768 78.9102 66.3185 79.8505 68.4081C79.0669 69.5051 78.5967 70.132 78.5967 70.132C77.9699 70.9678 77.2908 71.8558 76.5072 72.7439C73.843 75.9304 70.7087 79.5349 70.2386 80.5796C69.7162 81.8333 69.8729 82.7214 70.8132 83.4527C71.5446 83.9751 72.7983 84.0796 74.052 83.9751C76.455 83.8184 78.1266 83.2438 78.9624 82.8781C80.2684 82.408 81.7833 81.7289 83.1937 80.6841C85.8056 78.7513 87.3728 75.9827 87.2161 72.3782C87.1638 70.3931 86.4847 68.4081 85.7012 66.5275C85.9623 66.1618 86.1713 65.8484 86.4325 65.4827C90.5593 59.4753 93.7459 52.841 93.7459 52.841C93.7459 52.841 94.0593 54.8783 95.0518 58.2216C95.522 59.9455 96.5145 61.7738 97.4025 63.6021C93.5369 66.7365 91.1339 70.3931 90.2981 72.7961C88.7832 77.2364 89.9325 79.2214 92.2309 79.6916C93.2757 79.9005 94.7384 79.4304 95.7832 78.9602C97.1414 78.5423 98.7607 77.7588 100.276 76.6617C102.888 74.7289 105.395 72.0648 105.238 68.4081C105.186 66.7365 104.716 65.1171 104.141 63.5499C107.432 62.1917 111.664 61.4081 117.096 62.0872C128.693 63.4454 130.992 70.7066 130.522 73.7364C130.052 76.7662 127.649 78.4379 126.865 78.9602C126.081 79.4826 125.768 79.6393 125.872 80.005C125.977 80.5274 126.343 80.5274 127.022 80.4229C127.962 80.2662 133.134 77.9677 133.343 72.3782C133.708 65.2215 126.917 57.438 114.85 57.4903ZM25.4181 87.6318C21.5524 91.8109 16.2241 93.4303 13.8734 92.0721C11.3659 90.6094 12.3585 84.4453 17.1122 80.005C19.9853 77.2886 23.6942 74.7812 26.1494 73.2663C26.724 72.9006 27.5598 72.4304 28.5524 71.8036C28.7091 71.6991 28.8136 71.6469 28.8136 71.6469C29.0225 71.5424 29.1792 71.3857 29.3882 71.2812C31.112 77.6543 29.4404 83.2438 25.4181 87.6318ZM53.4178 68.617C52.0596 71.8558 49.291 80.214 47.5671 79.7961C46.1045 79.4304 45.2164 73.0573 47.2537 66.7887C48.2985 63.6544 50.4925 59.8932 51.7984 58.4306C53.888 56.0798 56.1865 55.2962 56.7611 56.2365C57.4924 57.4903 54.2536 66.5797 53.4178 68.617ZM76.5072 79.6393C75.9326 79.9528 75.4102 80.1095 75.149 80.005C74.9923 79.9005 75.4102 79.5349 75.4102 79.5349C75.4102 79.5349 78.2833 76.4006 79.4325 74.9901C80.1116 74.1543 80.8952 73.1618 81.6788 72.117V72.4304C81.731 76.1394 78.1266 78.6468 76.5072 79.6393ZM94.3727 75.617C93.9548 75.3036 94.0071 74.3633 95.4175 71.2812C95.9399 70.0797 97.2458 68.0947 99.3876 66.1618C99.6488 66.9454 99.8055 67.6767 99.7533 68.4081C99.7533 73.1095 96.3578 74.8856 94.3727 75.617Z" fill="black"/>
</svg>
