<svg width="71" height="100" viewBox="0 0 71 100" fill="none" xmlns="http://www.w3.org/2000/svg">
<path d="M35.4248 93.8365L58.8562 87.3401L64.3809 25.5688H35.4248V93.8365Z" fill="#191919"/>
<path d="M70.8495 19.6558L64.4087 91.9489L35.397 100L6.46863 91.9489L0 19.6558H70.8495Z" fill="black"/>
<path d="M22.8766 43.281H35.4251V34.4248H13.1875L13.4096 36.8124L15.5751 61.2432H35.4251V52.387H23.6817L22.8766 43.281Z" fill="#EBEBEB"/>
<path d="M24.8742 65.6582H15.9902L17.2395 79.5671L35.3961 84.6199H35.4239V75.4028H35.3961L25.5127 72.7376L24.8742 65.6582Z" fill="#EBEBEB"/>
<path d="M6.60742 0H11.1049V4.44198H15.2138V0H19.7113V13.4925H15.2415V8.96724H11.1049V13.4925H6.60742V0Z" fill="black"/>
<path d="M25.6531 4.46974H21.6831V0H34.1206V4.46974H30.1506V13.4925H25.6531V4.46974Z" fill="black"/>
<path d="M36.1191 0H40.8109L43.6982 4.74736L46.5855 0H51.2773V13.4925H46.8076V6.80178L43.6982 11.6047H43.6149L40.5055 6.80178V13.4925H36.0913V0H36.1191Z" fill="black"/>
<path d="M53.5253 0H58.0228V9.02277H64.3526V13.4925H53.4976V0H53.5253Z" fill="black"/>
<path d="M35.397 61.2438H46.3076L45.2804 72.7374L35.397 75.4026V84.6197L53.5813 79.5947L53.7201 78.0956L55.8023 54.7474L56.0244 52.3599H35.4247V61.2438H35.397Z" fill="white"/>
<path d="M35.397 43.281L56.8017 43.3088L56.9683 41.3099L57.3848 36.8124L57.6069 34.4248H35.397V43.281Z" fill="white"/>
</svg>
