<svg width="100" height="100" viewBox="0 0 100 100" fill="none" xmlns="http://www.w3.org/2000/svg">
<g clip-path="url(#clip0_2_80)">
<path d="M0 0H100V100H0V0Z" fill="white"/>
<path d="M26.2891 83.5547L33.9453 78.9062C35.4297 81.5234 36.7578 83.75 40 83.75C43.0859 83.75 45.0391 82.5391 45.0391 77.8516V45.8984H54.4531V77.9688C54.4531 87.6953 48.75 92.1484 40.4297 92.1484C32.8906 92.1484 28.5156 88.2812 26.2891 83.5547Z" fill="black"/>
<path d="M59.5312 82.5781L67.1875 78.125C69.2188 81.4062 71.8359 83.8281 76.4453 83.8281C80.3516 83.8281 82.8125 81.875 82.8125 79.1797C82.8125 75.9766 80.2734 74.8047 75.9766 72.9297L73.6328 71.9141C66.8359 69.0234 62.3438 65.3906 62.3438 57.7344C62.3438 50.7031 67.6953 45.3125 76.0938 45.3125C82.0703 45.3125 86.3672 47.3828 89.4531 52.8125L82.1484 57.5C80.5469 54.6094 78.7891 53.4766 76.0938 53.4766C73.3594 53.4766 71.6016 55.2344 71.6016 57.5C71.6016 60.3125 73.3594 61.4453 77.3828 63.2031L79.7266 64.2187C87.6953 67.6562 92.2266 71.1328 92.2266 78.9844C92.2266 87.4609 85.5859 92.0703 76.6406 92.0703C67.9297 92.1484 62.2656 88.0078 59.5312 82.5781Z" fill="black"/>
</g>
<defs>
<clipPath id="clip0_2_80">
<rect width="100" height="100" fill="white"/>
</clipPath>
</defs>
</svg>
