<svg width="22" height="30" viewBox="0 0 22 30" fill="none" xmlns="http://www.w3.org/2000/svg">
<g clip-path="url(#clip0_121_644)">
<path d="M10.5195 17.5C15.214 17.5 19.0195 13.6944 19.0195 9C19.0195 4.30558 15.214 0.5 10.5195 0.5C5.82511 0.5 2.01953 4.30558 2.01953 9C2.01953 13.6944 5.82511 17.5 10.5195 17.5Z" fill="#333333"/>
<path d="M10.5195 14.5C13.5571 14.5 16.0195 12.0376 16.0195 9C16.0195 5.96243 13.5571 3.5 10.5195 3.5C7.48197 3.5 5.01953 5.96243 5.01953 9C5.01953 12.0376 7.48197 14.5 10.5195 14.5Z" fill="white"/>
<path d="M21.0195 8.5H0.0195312V29.5H21.0195V8.5Z" fill="#333333"/>
<path d="M1.01953 9.5V28.5H20.0195V9.5H1.01953ZM0.0195312 8.5H21.0195V29.5H0.0195312V8.5Z" fill="#333333"/>
<path d="M10.5195 24.5C13.5571 24.5 16.0195 22.0376 16.0195 19C16.0195 15.9624 13.5571 13.5 10.5195 13.5C7.48197 13.5 5.01953 15.9624 5.01953 19C5.01953 22.0376 7.48197 24.5 10.5195 24.5Z" fill="white"/>
</g>
<defs>
<clipPath id="clip0_121_644">
<rect width="21" height="29" fill="white" transform="translate(0.0195312 0.5)"/>
</clipPath>
</defs>
</svg>
