<?xml version="1.0" encoding="utf-8"?>
<!-- Generator: Adobe Illustrator 27.0.1, SVG Export Plug-In . SVG Version: 6.00 Build 0)  -->
<svg version="1.1" id="レイヤー_1" xmlns="http://www.w3.org/2000/svg" xmlns:xlink="http://www.w3.org/1999/xlink" x="0px"
	 y="0px" viewBox="0 0 950.5 705.3" style="enable-background:new 0 0 950.5 705.3;" xml:space="preserve">
<style type="text/css">
	.st0{display:none;}
	.st1{display:inline;}
	.st2{clip-path:url(#SVGID_00000143604528586033741750000017832877152304694162_);}
	.st3{fill:#A2884B;}
	.st4{display:none;fill:#1A1311;}
	.st5{display:inline;fill:#FFFFFF;}
	.st6{display:none;fill:#FFFFFF;}
	.st7{display:none;fill:none;}
	.st8{fill:#1A1311;}
	.st9{display:inline;fill:#141414;}
	.st10{display:inline;fill:#070303;}
	.st11{display:inline;fill:#E6E6E6;}
	.st12{clip-path:url(#SVGID_00000147933867055002556730000014740292650354250637_);}
	.st13{fill:#070303;}
	.st14{clip-path:url(#SVGID_00000136384696212758497590000016947524223128362683_);}
	.st15{clip-path:url(#SVGID_00000163067447931584621700000004054490596358326974_);}
	.st16{fill-rule:evenodd;clip-rule:evenodd;fill:#141413;}
	.st17{fill-rule:evenodd;clip-rule:evenodd;fill:#070303;}
	.st18{clip-path:url(#SVGID_00000092449728388752373410000016887317456812759989_);}
	.st19{clip-path:url(#SVGID_00000014595520550177465750000003775598282777698484_);}
	.st20{fill:#070404;}
	.st21{fill:#FFFFFF;}
	.st22{clip-path:url(#SVGID_00000133492253765695742130000013949312239919457723_);}
	.st23{clip-path:url(#SVGID_00000017477875452352458130000003454992103024997016_);}
	.st24{clip-path:url(#SVGID_00000033357482891588931390000012482863046043084691_);}
	.st25{fill:#231815;}
	.st26{fill:#F6F6F6;}
	.st27{font-family:'Questrial-Regular';}
	.st28{font-size:32px;}
	.st29{fill:#AAAAAA;}
	.st30{fill:#EBEBEB;}
	.st31{fill:#D4D5D5;}
</style>
<g class="st0">
	<g class="st1">
		<g>
			<g>
				<defs>
					<rect id="SVGID_1_" x="149.5" y="4" width="600" height="551.4"/>
				</defs>
				<clipPath id="SVGID_00000061442752923038885920000010747492538700358576_">
					<use xlink:href="#SVGID_1_"  style="overflow:visible;"/>
				</clipPath>
				<g style="clip-path:url(#SVGID_00000061442752923038885920000010747492538700358576_);">
					<g transform="translate(0 9)">
						<rect x="366" y="561.5" class="st3" width="26.1" height="2.9"/>
						<path class="st3" d="M374.5,578.7l-2-2.1l6.6-6.6v-14.8h2.9v16.1L374.5,578.7z"/>
						<rect x="318.4" y="560" class="st3" width="29.1" height="2.9"/>
						<path class="st3" d="M322.6,578.8l-2-2l10.9-10.9v-10.6h2.9V567L322.6,578.8z"/>
						
							<rect x="337.1" y="564.1" transform="matrix(0.7071 -0.7071 0.7071 0.7071 -305.2965 406.9266)" class="st3" width="2.9" height="15.8"/>
						<rect x="432.9" y="555.2" class="st3" width="2.9" height="2.8"/>
						<rect x="436.8" y="555.2" class="st3" width="2.9" height="2.8"/>
						<path class="st3" d="M435.8,577.5h-22.3v-2.9h19.4V563h-19.4v-2.9h22.3V577.5z"/>
						<path class="st3" d="M475.3,569.7l-2.1-2l4.7-4.7h-19.3v-2.9h26.2L475.3,569.7z"/>
						
							<rect x="467.1" y="554.6" transform="matrix(0.9422 -0.3351 0.3351 0.9422 -162.7623 189.767)" class="st3" width="2.9" height="23.9"/>
						<rect x="504.5" y="560.1" class="st3" width="29.1" height="2.9"/>
						<path class="st3" d="M508.8,578.8l-2-2l10.9-10.9v-10.6h2.9v11.9L508.8,578.8z"/>
						
							<rect x="523.1" y="564.1" transform="matrix(0.7071 -0.7071 0.7071 0.7071 -250.8088 538.4156)" class="st3" width="2.9" height="15.7"/>
						<path class="st3" d="M580.6,564.9h-2.9v-3.4h-23.3v3.4h-2.9v-6.3h29.1L580.6,564.9L580.6,564.9z"/>
						<rect x="555.4" y="555.2" class="st3" width="2.9" height="3.8"/>
						<rect x="564.6" y="555.2" class="st3" width="2.9" height="3.8"/>
						<rect x="573.8" y="555.2" class="st3" width="2.9" height="3.8"/>
						<path class="st3" d="M568.2,577.7h-5.3v-2.9h2.4V570h2.9L568.2,577.7L568.2,577.7z"/>
						<path class="st3" d="M566.5,571.4l-2.2-1.9l2.8-3.4h-7.9v-2.9h14.1L566.5,571.4z"/>
						<rect x="551.5" y="569.2" class="st3" width="29.1" height="2.9"/>
					</g>
				</g>
			</g>
		</g>
	</g>
</g>
<path class="st4" d="M73.2,92.8H19.7C8.9,92.8,0.1,84,0.1,73.2V19.7C0.1,8.9,8.9,0.1,19.7,0.1h53.5c10.8,0,19.6,8.8,19.6,19.6v53.5
	C92.8,84,84,92.7,73.2,92.8"/>
<g transform="translate(0 -4)" class="st0">
	<path class="st5" d="M10.8,71.2l15.5-20.1L11.8,32.3h5.6l11.5,15.3l11.6-15.3h5.6L31.6,51.1l15.5,20.1h-5.6L28.8,54.5L16.2,71.2
		H10.8z"/>
	<path class="st5" d="M63.3,71.6c-5.3,0.2-10.2-2.8-12.5-7.5c-1.2-2.4-1.8-5-1.8-7.7s0.6-5.3,1.8-7.7C53.1,44,58,41,63.3,41.2
		c2.2-0.1,4.3,0.4,6.3,1.4c1.7,0.9,3.2,2.2,4.3,3.8V29.8h4.4V71h-4.4v-4.7c-1.1,1.6-2.6,2.9-4.3,3.8C67.6,71.2,65.5,71.7,63.3,71.6
		 M63.9,67.6c3.9,0.2,7.5-2.1,9-5.6c1.6-3.6,1.6-7.6,0-11.2c-1.6-3.5-5.1-5.8-9-5.6c-3.9-0.1-7.5,2.1-9.2,5.6
		c-1.6,3.5-1.6,7.6,0,11.2C56.4,65.5,60,67.8,63.9,67.6"/>
</g>
<path class="st4" d="M73.1,208.8H19.6C8.8,208.8,0,200,0,189.2v-53.5c0-10.8,8.8-19.6,19.6-19.6h53.5c10.8,0,19.6,8.8,19.6,19.6
	v53.5C92.7,200,83.9,208.8,73.1,208.8"/>
<path class="st6" d="M18.6,182.8l16.5-39h5.5l16.5,39h-4.9l-4.7-11.4H28.2l-4.8,11.3L18.6,182.8L18.6,182.8z M29.9,167.4h15.9
	l-7.9-19L29.9,167.4z"/>
<path class="st6" d="M61,142.6h4.8v5.8H61V142.6z M61.2,153.3h4.4v29.4h-4.4C61.2,182.7,61.2,153.3,61.2,153.3z"/>
<path class="st4" d="M73.9,318.6H20.4c-10.8,0-19.6-8.8-19.6-19.6v-53.5c0-10.8,8.8-19.6,19.6-19.6h53.5c10.8,0,19.6,8.8,19.6,19.6
	V299C93.5,309.8,84.7,318.6,73.9,318.6"/>
<path class="st6" d="M18.3,291.2v-39h17.6c4.2,0,7.4,1.1,9.8,3.4c4.8,5.2,4.8,13.2,0,18.3c-2.4,2.3-5.7,3.4-9.8,3.4H22.8v13.9
	L18.3,291.2z M22.7,273.1h12.8c3.1,0,5.4-0.7,6.9-2.2c3.1-3.5,3.1-8.8,0-12.3c-1.6-1.5-3.9-2.2-6.9-2.2H22.7V273.1z"/>
<path class="st6" d="M65.1,291.6c-2.4,0.1-4.7-0.4-6.9-1.4c-1.7-0.8-3.2-2-4.3-3.6c-1-1.4-1.5-3.1-1.6-4.8h4.6c0.1,1,0.5,2,1,2.9
	c0.6,1,1.5,1.8,2.6,2.2c1.5,0.6,3,0.9,4.6,0.9c0.7,0,1.5-0.1,2.2-0.2c0.9-0.1,1.7-0.3,2.5-0.6c0.8-0.3,1.5-0.8,2-1.4
	c0.6-0.7,0.9-1.5,0.8-2.4c0-1.1-0.5-2.2-1.4-2.8c-1.1-0.7-2.3-1.3-3.7-1.6c-1.5-0.4-3.1-0.7-4.7-1.1c-1.6-0.3-3.2-0.8-4.7-1.4
	c-1.4-0.5-2.6-1.3-3.7-2.4c-1-1.2-1.5-2.7-1.4-4.3c-0.1-2.4,1-4.8,2.9-6.2c1.9-1.5,4.8-2.2,8.6-2.2c2.2-0.1,4.3,0.3,6.3,1.2
	c1.5,0.7,2.8,1.8,3.7,3.1c0.8,1.2,1.3,2.6,1.5,4.1h-4.5c-0.2-1.3-0.8-2.4-1.9-3.2c-1.1-0.9-2.9-1.4-5.3-1.4c-4.7,0-7,1.4-7,4.2
	c0,1.1,0.5,2.1,1.4,2.7c1.1,0.7,2.4,1.2,3.7,1.5c1.5,0.4,3.1,0.7,4.7,1.1c1.6,0.3,3.2,0.8,4.7,1.4c1.4,0.5,2.7,1.4,3.7,2.5
	c1,1.2,1.5,2.8,1.4,4.4c0.1,2.6-1.1,5.1-3.3,6.6C71.6,290.9,68.7,291.6,65.1,291.6"/>
<rect y="4" class="st7" width="93.5" height="314.6"/>
<rect x="287.5" y="570.2" class="st7" width="287" height="109.1"/>
<g transform="translate(464.182 2249.753)" class="st0">
	<g transform="translate(7.264 29.974)" class="st1">
		<path class="st8" d="M-173-1649.2c-0.1,0,0-0.2,0-0.3s-0.1-0.1-0.1-0.2s-0.1-0.1-0.2-0.2c-0.1-0.1,0-0.1,0-0.3
			c0-0.2-0.2-0.1-0.2-0.2s0-0.1-0.1-0.2s-0.1-0.1-0.1-0.2s0-0.1,0-0.3s-0.1-0.1-0.1-0.2s0-0.2,0-0.3s0-0.1-0.1-0.2s-0.2-0.1-0.2-0.2
			s0.1-0.2,0-0.3c-0.1-0.1-0.1-0.1-0.2-0.2s0-0.1,0-0.3c0-0.2,0-0.1-0.1-0.3c-0.1-0.2-0.1-0.1-0.1-0.2s0.1-0.1,0.2-0.1
			c0.1,0,0.1,0,0.2-0.1c0.1-0.1,0.2,0,0.3,0s0.1-0.1,0.3-0.1s0.1-0.1,0.2-0.1c0.1,0,0.1,0,0.3,0s0.1,0,0.2-0.1
			c0.1-0.1,0.1-0.2,0.2-0.2c0.1,0,0.2,0.1,0.3,0s0.1-0.1,0.2-0.2c0.1,0,0.1,0,0.3,0s0.1-0.1,0.2-0.2c0.1-0.1,0.1,0,0.2-0.1
			c0.1,0,0.1-0.1,0.2-0.1s0.2,0,0.3,0s0.1-0.1,0.2-0.2c0.1-0.1,0.2,0,0.3,0s0.1-0.1,0.2-0.1s0.1-0.1,0.2-0.1l0.2-0.1
			c0.1,0,0.1,0,0.3-0.1s0.1-0.1,0.2-0.1c0.1,0,0.1-0.1,0.2-0.1c0.1,0,0.2,0.1,0.3,0s0.1-0.2,0.2-0.2c0.1,0,0.1-0.1,0.2-0.1
			s0.2,0,0.3,0s0.1-0.1,0.2-0.2c0.1-0.1,0.1,0,0.3-0.1s0.1,0,0.3-0.1s0.1-0.1,0.2-0.2c0.1-0.1,0.2,0.1,0.3,0s0.1-0.1,0.2-0.1
			c0.1,0,0.1-0.1,0.2-0.1s0.2,0,0.3,0s0.1-0.1,0.2-0.1s0.1,0,0.3,0s0.1,0,0.2-0.1s0.1-0.1,0.2-0.1s0.1-0.1,0.2-0.1
			c0.1,0,0.1,0,0.3-0.1s0.1-0.1,0.2-0.2c0.1-0.1,0.1,0,0.2-0.1c0.1-0.1,0.2,0.1,0.3,0s0.1-0.1,0.2-0.1c0.1,0,0.1,0,0.2-0.1
			s0.1-0.2,0.2-0.2s0.2,0.1,0.3,0s0.1,0,0.2-0.1c0.1-0.1,0.1-0.1,0.2-0.1c0.1,0,0.1-0.1,0.2-0.1c0.1,0,0.1-0.1,0.2-0.1
			s0.2,0.1,0.3,0s0.1-0.1,0.2-0.2c0.1-0.1,0.1,0,0.2-0.1c0.1-0.1,0.1,0,0.2-0.1c0.1-0.1,0.1-0.1,0.2-0.1c0.1,0,0.1,0,0.2-0.1
			c0.1-0.1,0.1-0.1,0.2-0.1s0.1,0,0.3,0s0.1-0.2,0.2-0.2s0.2,0,0.3,0s0.1-0.1,0.2-0.1s0.1,0,0.3,0s0.1-0.1,0.2-0.2
			c0.1-0.1,0.1,0,0.3,0s0.1-0.1,0.2-0.2s0.2,0,0.3,0s0.1-0.2,0.2-0.2s0.2,0.1,0.3,0s0.1-0.1,0.2-0.2s0.1,0,0.3-0.1s0.1,0,0.3,0
			s0.1-0.2,0.2-0.2s0.1,0,0.3,0s0.2,0,0.3,0s0.1-0.1,0.2-0.1c0.1,0,0.1-0.1,0.2-0.2s0.1,0,0.3,0s0.1,0,0.3-0.1s0.1-0.1,0.2-0.1
			c0.1,0,0.1,0,0.2-0.1c0.1-0.1,0.1-0.1,0.2-0.2s0.1,0,0.3,0s0.1,0,0.3-0.1s0.1-0.1,0.2-0.1s0.1,0,0.3-0.1s0.1-0.1,0.2-0.2
			s0.1,0,0.2-0.1s0.4,0,0.5,0s0.1,0,0.2-0.1c0.1-0.1,0.1,0,0.3,0s0.1,0,0.2-0.1c0.1-0.1,0.1-0.1,0.2-0.1c0.1,0,0.1,0,0.3-0.1
			s0.1-0.1,0.2-0.1c0.1,0,0.1-0.1,0.2-0.1s0.1-0.1,0.2-0.1s0.1,0,0.3,0s0.2-0.2,0.3-0.3c0.1,0,0.1,0,0.2-0.1c0.1,0,0.1,0,0.2-0.1
			c0.1-0.1,0.1-0.1,0.2-0.1s0.1,0,0.3,0s0.1-0.1,0.2-0.2s0.2,0.1,0.3,0s0.1-0.1,0.2-0.1s0.1,0,0.2,0.2c0.1,0.2,0,0.1,0.1,0.2
			c0,0.1,0,0.1,0.1,0.2s0,0.1,0,0.3c0,0.2,0.1,0.1,0.2,0.2c0.1,0.1,0,0.1,0.1,0.2s0.1,0.1,0.1,0.2s0,0.1,0.1,0.2s-0.1,0.2,0,0.3
			c0.1,0.1,0.1,0.1,0.2,0.2c0.1,0.1,0,0.1,0,0.3c0,0.2,0.2,0.1,0.2,0.2s0,0.2,0,0.3s0,0.1,0.1,0.2s0.1,0.1,0.1,0.2s0.1,0.1,0.1,0.2
			s0.2,0.2,0.1,0.3c-0.1,0.1-0.2,0-0.3,0s-0.1,0.1-0.2,0.2c-0.1,0.1-0.1,0-0.3,0.1s-0.1,0.1-0.2,0.1c-0.1,0-0.1,0-0.2,0.1
			c-0.1,0.1-0.1,0-0.3,0s-0.1,0-0.3,0s-0.1,0.1-0.2,0.2c-0.1,0.1-0.1,0.1-0.2,0.1c-0.1,0-0.2,0-0.3,0s-0.1,0.1-0.2,0.1
			c-0.1,0-0.1,0.1-0.2,0.1s-0.1,0-0.3,0s-0.1,0.1-0.2,0.1s-0.1,0-0.3,0s-0.1,0-0.3,0.1s-0.1,0-0.2,0.1c-0.1,0.1-0.1,0.2-0.2,0.2
			s-0.2-0.1-0.3,0s-0.1,0-0.2,0.1s-0.1,0.1-0.2,0.2s-0.1,0-0.3,0s-0.1,0.1-0.2,0.2c-0.1,0.1-0.2-0.1-0.3,0s-0.1,0.1-0.2,0.2
			s-0.2,0-0.3,0s0,0.5-0.1,0.5s-0.2,0-0.3,0s-0.1,0.1-0.2,0.1c-0.1,0-0.1,0.1-0.2,0.2c-0.1,0.1-0.2-0.1-0.3,0s-0.1,0.1-0.2,0.2
			s-0.2,0-0.3,0s-0.1,0.2-0.2,0.2s-0.1,0-0.3,0.1s-0.1,0.1-0.2,0.1s-0.1,0-0.3,0s0,0.1-0.1,0.1s-0.1,0-0.3,0s-0.1,0.1-0.2,0.2
			c-0.1,0.1-0.1,0.1-0.2,0.1c-0.1,0-0.1,0-0.2,0.1s-0.1,0.1-0.2,0.2s-0.1,0-0.2,0.1c-0.1,0.1-0.1,0-0.3,0s-0.1,0-0.3,0
			s-0.1,0.1-0.2,0.2s-0.2,0-0.3,0.1s-0.1,0.1-0.2,0.1s-0.1,0-0.3,0s-0.1,0.1-0.2,0.1s-0.2,0-0.3,0s-0.1,0.1-0.2,0.1
			s-0.1,0.1-0.2,0.1s-0.1,0-0.2,0.1c-0.1,0.1-0.1,0-0.2,0.1c-0.1,0.1-0.1,0-0.2,0.1c-0.1,0.1-0.1,0-0.2,0.1c-0.1,0.1-0.1,0-0.2,0.1
			c-0.1,0.1-0.1,0-0.2,0.1c-0.1,0.1-0.1,0-0.3,0s-0.1,0.1-0.2,0.1c-0.1,0-0.1,0.1-0.2,0.1s-0.1,0-0.3,0s-0.1,0.1-0.2,0.1
			s-0.1,0.1-0.2,0.1s-0.1,0-0.2,0.1c-0.1,0.1-0.1,0-0.2,0.1c-0.1,0.1-0.1,0-0.3,0s-0.1,0.1-0.2,0.2c-0.1,0.1-0.1,0-0.2,0.1
			s-0.1,0-0.3,0.1s-0.1,0-0.3,0.1s-0.1,0.1-0.2,0.2c-0.1,0.1-0.1,0-0.3,0s-0.1,0.1-0.2,0.1c-0.1,0-0.1,0-0.3,0.1s-0.1,0.1-0.2,0.2
			c-0.1,0.1-0.1,0.1-0.2,0.1s-0.1,0-0.3,0s-0.1,0-0.3,0.1s-0.1,0.1-0.2,0.1c-0.1,0-0.1,0.1-0.2,0.1s-0.1,0.1-0.2,0.1s-0.1,0-0.3,0.1
			s-0.1,0-0.3,0s-0.1,0.1-0.2,0.1s-0.1,0.1-0.2,0.1s-0.1,0.1-0.2,0.2c-0.1,0.1-0.1,0-0.3,0s-0.2,0-0.3,0s-0.1,0.1-0.2,0.2
			s-0.1,0-0.3,0s-0.1,0.1-0.2,0.2c-0.1,0.1-0.1,0.1-0.2,0.2c-0.1,0.1-0.1,0-0.2,0.1c-0.1,0.1-0.1,0-0.3,0s-0.1,0.1-0.2,0.1
			c-0.1,0-0.1,0.1-0.2,0.2c-0.1,0.1-0.2-0.1-0.3,0s-0.1,0.1-0.2,0.1c-0.1,0-0.1,0.1-0.2,0.2s-0.2-0.1-0.3,0s-0.1,0.1-0.2,0.2
			c-0.1,0.1-0.1,0-0.3,0.1s-0.1,0.1-0.2,0.2S-172.9-1649.1-173-1649.2"/>
		<path class="st8" d="M-202.8-1660c-0.1-0.1,0-0.1,0-0.3c0-0.2-0.2-0.1-0.2-0.2s0-0.1,0-0.3c0-0.2,0.1-0.1,0.1-0.3s0,0,0-0.1
			s-0.1-0.1-0.2-0.3c-0.1-0.2,0-0.1,0-0.3c0-0.2,0-0.1,0-0.3s0,0,0-0.1s0-0.1,0-0.3c0-0.2-0.1-0.1-0.2-0.2c-0.1-0.1,0-0.1,0-0.3
			c0-0.2,0-0.1,0-0.3c0-0.2,0-0.1-0.1-0.3c-0.1-0.2,0-0.1,0-0.3c0-0.2,0,0,0-0.1s-0.1-0.2-0.1-0.3c0-0.1,0.1-0.1,0.2-0.1
			c0.1,0,0.1,0,0.3,0s0.1,0,0.3,0s0.1,0,0.3,0s0.1,0,0.3-0.1s0.1,0,0.3,0s0.1,0,0.3-0.1s-0.1,0,0.1,0c0.2,0,0.1,0,0.2-0.1
			c0.1-0.1,0.1,0,0.3,0s0.1-0.1,0.2-0.1c0.1,0,0.1,0,0.3,0s0.1,0,0.3,0s0.1-0.1,0.2-0.1c0.1,0,0.1,0.1,0.3,0s0.1-0.1,0.2-0.1
			c0.1,0,0.1,0.1,0.3,0.1s0.1,0,0.3,0s0.1-0.1,0.2-0.2c0.1-0.1,0.1,0,0.3,0s0.1,0,0.3,0s0.1,0,0.3,0s0.1-0.1,0.2-0.1s0.1,0,0.3,0
			s0.1-0.1,0.2-0.1s0.1,0,0.3,0s0.1,0.1,0.3,0.1s-0.1-0.2,0-0.2s0.1,0.1,0.3,0s0.1-0.2,0.2-0.2c0.1,0,0.1,0.1,0.3,0.1s0.1,0,0.3,0
			s0.1-0.1,0.2-0.1c0.1,0,0.1,0,0.3-0.1c0.1,0,0.1,0,0.3-0.1s0.1,0.1,0.3,0.1s0.1-0.1,0.2-0.1s0.1,0,0.3,0s0.1-0.1,0.2-0.1
			s0.1,0,0.3,0s0.1,0,0.3,0s0.1,0,0.3,0s0.1-0.1,0.2-0.1c0.1,0,0.1,0,0.3,0s0.1,0.1,0.3,0.1s0.1-0.1,0.2-0.1c0.1,0,0.1-0.1,0.2-0.1
			c0.1,0,0.1,0,0.3,0s0.1-0.1,0.2-0.1c0.1,0,0.1,0,0.3,0s0.1,0,0.3,0s0.1,0,0.3,0s0.1-0.1,0.2-0.2c0.1-0.1,0.1,0.1,0.3,0.1
			s0.1,0,0.3,0s-0.2-0.3-0.1-0.3c0.1,0,0.1,0,0.3,0s0.1-0.1,0.2-0.1c0.1,0,0.2,0.1,0.3,0.1s0.1-0.1,0.2-0.1c0.1,0,0.1,0.1,0.3,0.1
			s0.1-0.1,0.2-0.1c0.1,0,0.1,0.1,0.3,0s0.1,0,0.2-0.1c0.1-0.1,0.1-0.1,0.2-0.1c0.1,0,0.1,0.1,0.3,0.1s0.1-0.1,0.2-0.1
			c0.1,0,0.1,0.1,0.3,0s0.1-0.1,0.2-0.1c0.1,0,0.1,0,0.3,0s0.1,0,0.3-0.1s0.1,0.1,0.3,0s0.1,0,0.3-0.1s0.1,0.1,0.3,0
			s0.1-0.1,0.2-0.1c0.1,0,0.1,0,0.3-0.1h0.3c0.1,0,0.1-0.1,0.2-0.1c0.1,0,0.1,0,0.3,0s0.1,0,0.3,0s0.1,0,0.3,0s-0.1-0.1,0.1-0.1
			s0.1,0,0.2,0c0.1,0,0.1,0,0.3-0.1s0.1,0,0.3,0s0.1,0,0.3-0.1s0.1,0.1,0.3,0.1s0.1,0,0.3-0.1s0.1-0.1,0.2-0.1c0.1,0,0.1,0,0.3,0
			s0.1,0,0.3,0s0.1,0,0.3,0s0.1,0,0.3,0s0.1,0,0.3,0s0.1,0,0.3,0s0.1,0.1,0.3,0s0.1-0.1,0.2-0.1s0.1-0.1,0.2-0.1c0.1,0,0.1,0,0.3,0
			s0.1-0.1,0.2-0.1c0.1,0,0.1-0.1,0.3-0.1s0.2-0.1,0.3,0s0,0.1,0,0.3c0,0.2,0,0.1,0,0.3c0,0.2,0.1,0.1,0.1,0.2s0,0.1,0,0.3
			c0,0.2,0,0.1,0,0.3c0,0.2,0,0.1,0,0.3s0.1,0.1,0.1,0.2s0,0.1,0,0.3s0,0.1,0.1,0.3c0.1,0.2,0,0.1,0,0.3c0,0.2,0.1,0.1,0.1,0.2
			s0,0.1,0.1,0.3c0.1,0.2,0,0.1,0,0.3c0,0.2,0,0.1,0,0.3c0,0.2,0,0.1,0.1,0.3c0.1,0.2,0,0.1,0.1,0.3c0.1,0.2,0.2,0.2,0.1,0.3
			c-0.1,0.1-0.2,0-0.3,0s-0.1,0-0.3,0s-0.1,0-0.3,0s-0.1,0-0.3,0s-0.1,0.1-0.2,0.1c-0.1,0-0.1,0-0.3,0s-0.1-0.1-0.3,0
			s-0.1,0.1-0.2,0.1c-0.1,0-0.1,0-0.3,0s-0.1,0.1-0.2,0.1c-0.1,0-0.5-0.4-0.6-0.3s-0.1,0-0.3,0s-0.1,0-0.3,0s-0.1,0-0.3,0
			s0,0.1-0.1,0.1s-0.1-0.1-0.3-0.1s-0.1,0.1-0.2,0.1c-0.1,0-0.1,0.1-0.2,0.1s-0.2-0.1-0.4,0s-0.1,0.1-0.2,0.1c-0.1,0-0.1,0-0.3,0
			s-0.1,0.1-0.2,0.1c-0.1,0-0.1-0.1-0.3,0s-0.1,0.1-0.2,0.1c-0.1,0-0.1,0-0.3,0s-0.1-0.1-0.3-0.1s-0.1,0-0.3,0s-0.1,0-0.3,0.1
			s-0.1,0.1-0.2,0.1c-0.1,0-0.1,0.1-0.2,0.1s-0.1,0-0.3,0s-0.1,0-0.3,0s-0.1,0-0.3,0s0.1,0.2-0.1,0.2s-0.1,0-0.2,0
			c-0.1,0-0.2,0-0.3,0s-0.1,0-0.3,0s-0.1,0.1-0.2,0.1s-0.1-0.1-0.3,0s-0.1,0.1-0.2,0.2c-0.1,0.1-0.2-0.1-0.3-0.1s-0.1,0.1-0.2,0.1
			s-0.1-0.1-0.3,0s-0.1,0-0.3,0s-0.1,0.1-0.2,0.1c-0.1,0-0.1,0-0.2,0s-0.1-0.1-0.3,0s-0.1,0.1-0.2,0.1s-0.1,0-0.3,0.1s-0.1,0-0.2,0
			s-0.2-0.1-0.3-0.1s-0.1,0.1-0.2,0.1s-0.1,0-0.3,0s-0.1,0-0.3,0.1s-0.1,0.1-0.2,0.1c-0.1,0-0.1,0-0.3,0s-0.1-0.1-0.3,0
			s-0.1,0.1-0.2,0.1c-0.1,0-0.1,0-0.3,0s0,0.1-0.2,0.1s-0.1,0-0.3,0s-0.1,0.1-0.2,0.1c-0.1,0-0.1,0-0.3,0s-0.1-0.1-0.3,0
			s-0.1,0.2-0.2,0.2c-0.1,0-0.1-0.1-0.3,0s0,0-0.1,0s-0.1-0.1-0.3,0s-0.1,0-0.3,0.1s-0.1,0-0.3,0s0,0-0.2,0s-0.1,0-0.2,0
			c-0.1,0-0.2,0-0.3,0.1s-0.1,0-0.3,0s-0.1,0.1-0.2,0.1c-0.1,0-0.1-0.1-0.3-0.1s-0.1,0.2-0.2,0.2c-0.1,0-0.1,0-0.3,0s-0.1,0-0.3,0
			s0,0.1-0.2,0.1s-0.1,0-0.3,0s-0.1,0-0.3,0s-0.1,0-0.3,0s-0.1,0-0.3,0s0.1,0.2,0,0.2s-0.2,0-0.3,0s-0.1,0-0.3,0.1s-0.1,0.1-0.2,0.1
			c-0.1,0-0.1,0-0.3,0c-0.1,0-0.1-0.1-0.3-0.1s-0.1,0.1-0.2,0.1s-0.1,0-0.3,0.1s-0.1-0.1-0.3,0s-0.1,0.2-0.2,0.2c-0.1,0-0.1,0-0.3,0
			s-0.1,0-0.3,0s-0.1,0-0.3,0s-0.1,0-0.3,0s-0.1,0.1-0.2,0.1c-0.1,0-0.1,0.1-0.3,0.1S-202.7-1660-202.8-1660
			C-202.9-1660-202.7-1659.9-202.8-1660"/>
		<path class="st8" d="M-180.8-1653.9c-0.1,0.1-0.2-0.1-0.3-0.1s-0.1,0.1-0.3,0.1s-0.1,0-0.3,0s-0.1,0-0.3,0s-0.1,0-0.3,0
			s-0.1,0-0.3,0s-0.1,0-0.3,0s-0.1-0.1-0.3-0.1s-0.1,0.1-0.3,0.1s-0.1-0.1-0.3-0.1s-0.1,0-0.3,0s-0.1,0-0.3,0s-0.1,0.1-0.3,0.1
			s-0.1,0-0.3,0s-0.1,0.1-0.3,0.1s-0.1-0.1-0.3-0.1s-0.1,0.1-0.3,0.1s-0.1-0.1-0.3-0.1s-0.1,0.1-0.3,0.1s-0.1,0-0.3,0s-0.1,0-0.3,0
			s-0.1,0.1-0.3,0.1s-0.1,0-0.3,0s-0.1-0.1-0.3-0.1s-0.1,0-0.3,0s-0.1,0-0.3,0c-0.1,0-0.1,0-0.3,0s-0.1,0-0.3,0s-0.1,0-0.3,0h-0.3
			c-0.1,0-0.1,0-0.3,0s-0.1,0-0.3,0s-0.1,0-0.3,0s-0.1,0-0.3,0s-0.1,0-0.3,0s-0.1,0.1-0.3,0.1s-0.1,0-0.3,0s-0.1,0-0.3,0
			s-0.1,0-0.3,0s-0.1,0-0.3,0s-0.1,0-0.3,0s-0.1,0-0.3,0s-0.1,0-0.3,0s-0.1,0-0.3,0s-0.1,0-0.3,0s-0.1,0-0.3,0s-0.1,0-0.3,0
			s-0.1,0.1-0.3,0.1s-0.1,0-0.3,0s-0.1,0-0.3,0s-0.1,0-0.3,0s-0.1,0-0.3,0s-0.1,0-0.3,0s-0.1-0.1-0.3-0.1s-0.1,0-0.3,0
			s-0.1,0.1-0.3,0.1s-0.1,0-0.3,0s-0.1,0-0.3,0s-0.1,0-0.3,0s-0.1,0-0.3,0s-0.1,0-0.3,0s-0.1,0-0.3,0s-0.1,0-0.3,0s2.4-0.4,2.2-0.4
			s-0.1,0.1-0.3,0.1s-0.1-0.1-0.3-0.1s-0.1,0.1-0.3,0.1s0-0.1-0.1-0.1s-0.1,0-0.3,0s-0.2,0.1-0.3,0s0-0.1,0-0.3c0-0.2,0-0.1,0-0.3
			s0.1-0.1,0.1-0.3c0-0.2-0.1-0.1-0.1-0.3c0-0.2,0-0.1,0-0.3c0-0.2,0-0.1,0-0.3c0-0.2,0-0.1,0-0.3s0-0.1,0-0.3c0-0.2,0-0.1,0-0.3
			c0-0.2-0.1-0.1-0.1-0.3c0-0.2,0-0.1,0-0.3c0-0.2,0.1-0.1,0.1-0.3s0-0.1,0-0.3c0-0.2-0.1-0.2,0-0.3c0.1-0.1,0.2,0,0.3,0
			s0.1,0,0.3,0s0.1,0,0.3,0s0.1,0,0.3,0s0.1,0,0.3,0s0,0.6,0.1,0.6s0.1,0.1,0.3,0.1s0.1,0,0.3,0s0.1-0.1,0.2-0.1c0.1,0,0.1,0,0.3,0
			s0.1,0,0.2,0c0.1,0,0.1,0.1,0.3,0.1s0.1,0,0.3,0s0.1,0.1,0.3,0.1s0.1,0,0.3,0s0.1,0.1,0.3,0.1s0.1,0,0.3,0s-0.1-0.3,0-0.3
			s0.1,0.1,0.3,0.1s0.1-0.1,0.3-0.1c0.1,0,0.1,0.1,0.3,0.1s0-0.1,0.2-0.1s0.1,0,0.3,0s0.1,0,0.3,0s0.1,0.1,0.3,0.1s0.1,0,0.3,0
			s0.1,0.1,0.3,0.1s0.1,0,0.3,0s0.1,0,0.3,0h0.3c0.1,0,0.1,0,0.3,0h0.3c0.1,0,0.1,0,0.3,0s0.1,0,0.3,0s0.1,0,0.3,0s0.1,0,0.3,0
			s0.1,0,0.3,0s0.1,0,0.3,0s0.1,0,0.3,0s0.1,0.1,0.3,0.1s0.1,0,0.3,0s0.1,0,0.3,0s0.1,0,0.3,0s0.1,0,0.3,0c0.1,0,0.1,0,0.3,0
			s0.1,0,0.3,0s0.1,0,0.3,0s0.1,0,0.3,0s0.1,0,0.3,0s0.1,0,0.3,0s0.1,0,0.3,0s0.1,0,0.3,0s0.1,0,0.3,0s0.1,0,0.3,0s0.1,0,0.3,0
			s0.1,0,0.3,0s0.1,0,0.3,0s0.1,0,0.3,0s0.1,0,0.3,0s0.1,0,0.3,0s0.1,0,0.3,0s0.1-0.1,0.3-0.1s0.1,0,0.3,0s0.1,0,0.3,0s0.1,0,0.3,0
			s0.1-0.1,0.3-0.1s0.1,0,0.3,0s0.1,0,0.3,0s0.1,0,0.3,0s0.2-0.1,0.3,0s0,0.1,0,0.2s0,0.1,0,0.3c0,0.2,0,0.1,0,0.3
			c0,0.2,0,0.1,0,0.3c0,0.2,0,0.1,0,0.3s0,0.1,0,0.3c0,0.2,0.1,0.1,0.1,0.3c0,0.2,0,0.1,0,0.3c0,0.2-0.1,0.1-0.1,0.3
			c0,0.2,0,0.1,0,0.3s0,0.1,0,0.3c0,0.2,0,0.1,0,0.3c0,0.1,0,0.2,0,0.2C-180.8-1654.1-180.7-1654-180.8-1653.9"/>
		<path class="st8" d="M-195.4-1638.8c-0.1,0-0.2,0.1-0.2,0.1h-0.2h-0.2c0,0-0.1-0.1-0.2-0.1c-0.1,0-0.3,0.1-0.4,0
			c-0.1-0.1-0.1-0.1-0.2-0.2c-0.1-0.1-0.2,0-0.3,0s-0.2,0-0.3,0s-0.1,0-0.2,0c-0.1,0-0.1-0.1-0.2-0.1c-0.1,0-0.2,0-0.2-0.1
			s-0.2,0-0.2-0.1s-0.2-0.3-0.3-0.3s-0.2,0-0.3,0s-0.2-0.1-0.2-0.1l-0.1-0.2c0,0-0.2,0-0.3-0.1s-0.1-0.2-0.2-0.3
			c-0.1-0.1-0.1-0.1-0.2-0.2c-0.1-0.1-0.1,0-0.2-0.1s0-0.2-0.1-0.3c-0.1-0.1-0.1-0.1-0.2-0.2c-0.1-0.1-0.1-0.1-0.2-0.2
			c-0.1-0.1,0-0.2-0.1-0.3c-0.1-0.1,0,0-0.1-0.1s0-0.2-0.1-0.3c-0.1-0.1-0.1-0.1-0.1-0.2s-0.1-0.1-0.1-0.2s-0.1-0.1-0.1-0.2
			s0-0.2,0-0.3c0-0.1-0.1-0.1-0.2-0.2c-0.1-0.1,0-0.2,0-0.3c0-0.1,0-0.2,0-0.2l-0.1-0.2c0,0,0-0.2,0-0.3s-0.2-0.2-0.2-0.2l0.2-0.3
			c0,0,0-0.2,0-0.3c0-0.1,0-0.2,0-0.3s0-0.2,0-0.3s0-0.2,0-0.3c0-0.1,0.2-0.1,0.2-0.2s-0.1-0.2,0-0.3c0.1-0.1,0.1-0.2,0.1-0.2
			l0.1-0.2c0,0,0-0.2,0.1-0.3c0.1-0.1,0.1-0.2,0.1-0.2l0.1-0.2c0,0,0.2-0.1,0.2-0.2s0-0.2,0-0.3c0-0.1,0-0.1,0-0.2s0.1-0.2,0.1-0.2
			s0.2-0.1,0.2-0.2s0-0.2,0.1-0.3c0.1-0.1,0.2-0.1,0.2-0.1s0.1-0.2,0.1-0.3s0.2,0,0.3-0.1s0-0.2,0.1-0.3c0.1-0.1,0.2,0,0.3,0
			s0.1-0.2,0.2-0.2c0.1,0,0.2-0.1,0.2-0.1s0.2,0,0.3-0.1s0.1-0.2,0.2-0.3c0.1-0.1,0.2,0,0.3-0.1s0.2,0,0.3,0s0.1-0.1,0.2-0.1
			c0.1,0,0.1-0.1,0.2-0.1c0.1,0,0.2,0,0.3,0s0.2,0,0.3,0s0.2-0.1,0.2-0.1s0.2,0,0.3,0s0.2-0.1,0.3-0.1s0.2,0.1,0.3,0.1s0.2,0,0.3,0
			s0.2,0,0.3,0s0.2,0.1,0.3,0.1s0.2-0.1,0.3-0.1s0.2,0,0.3,0.1c0.1,0,0.1,0,0.3,0s0.1,0,0.3,0s-0.2,0-0.1,0.1s0.1,0,0.3,0.1
			s0.1,0,0.3,0s0.1,0.1,0.3,0.1s0.1,0,0.3,0s0.2,0.1,0.3,0s0-0.2,0-0.3s0.1-0.1,0.1-0.2s-0.1-0.1,0-0.3c0.1-0.2,0-0.1,0.1-0.2
			s0-0.1,0.1-0.3s0-0.1,0-0.3c0-0.2,0.1-0.1,0.1-0.2s-0.1-0.1,0-0.3c0.1-0.2,0.2-0.1,0.2-0.2s0-0.1,0.1-0.3c0.1-0.2-0.1-0.2-0.1-0.3
			s0-0.1,0.1-0.2s0-0.1,0.1-0.3c0.1-0.2,0.1-0.1,0.1-0.2s-0.1-0.1,0-0.3c0.1-0.2,0-0.1,0.1-0.2s0-0.1,0-0.3c0-0.2,0-0.1,0.1-0.2
			s0.2-0.1,0.2-0.2s-0.1-0.1,0-0.3c0.1-0.2,0.1-0.1,0.1-0.2s-0.2-0.2-0.1-0.3c0.1-0.1,0.1-0.1,0.2-0.2c0.1-0.1,0-0.1,0.1-0.3
			c0.1-0.2,0-0.1,0-0.3c0-0.2,0-0.1,0-0.3c0-0.2,0-0.1,0-0.3c0-0.2,0.1-0.1,0.2-0.2s-0.1-0.1,0-0.3c0.1-0.2,0.1-0.1,0.1-0.2
			s0-0.1,0-0.3c0-0.2,0-0.1,0-0.3s0.1-0.1,0.1-0.2s0.1-0.1,0.1-0.2s-0.1-0.1,0-0.3c0.1-0.2,0-0.1,0-0.3s0.1-0.1,0.2-0.2
			c0.1-0.1,0-0.1,0-0.3s0-0.1,0-0.3c0-0.2,0.1-0.1,0.1-0.2s0-0.1,0-0.3c0-0.2,0.1-0.1,0.1-0.2s0.1-0.1,0.1-0.2s0-0.1,0-0.3
			s-0.6,0-0.6-0.1s0.1-0.1,0.2-0.2c0.1-0.1,0-0.1,0.1-0.3c0.1-0.2-0.1-0.1-0.1-0.3c0-0.2,0.1-0.1,0.1-0.2s-0.1-0.1,0-0.3
			c0.1-0.2,0.1-0.1,0.2-0.2s-0.1-0.1,0-0.3c0.1-0.2,0-0.1,0-0.2s0-0.2,0-0.3s0.1-0.1,0.1-0.2s0-0.1,0-0.3c0-0.2,0-0.1,0-0.3
			c0-0.2,0.2-0.1,0.2-0.2s-0.1-0.1,0-0.3c0.1-0.2,0.1-0.1,0.1-0.2s-0.1-0.2-0.1-0.3c0-0.1,0.1-0.1,0.1-0.2s0-0.1,0-0.3
			c0-0.2,0.1-0.1,0.1-0.2s0-0.1,0-0.3c0-0.2,0.1-0.1,0.1-0.2s-0.1-0.1,0-0.3c0.1-0.2,0-0.1,0-0.3s0-0.1,0.1-0.3
			c0.1-0.2-0.1-0.1,0-0.3c0.1-0.2,0-0.1,0-0.3c0-0.2,0.1-0.1,0.1-0.2s0.2,0,0.2-0.1s-0.1-0.1,0-0.3s0-0.1,0-0.3c0-0.2,0-0.1,0-0.3
			c0-0.2,0.1-0.1,0.1-0.2s0-0.1,0-0.3c0-0.2,0.1-0.1,0.2-0.2c0.1-0.1-0.1-0.2,0-0.2s0.1,0,0.2,0s0.1,0,0.3,0s0.1,0,0.3,0
			s0.1,0,0.3,0s0.1,0,0.3,0.1s0.1,0,0.3,0s0.1,0,0.3,0.1s0.1,0.1,0.2,0.1c0.1,0,0.1,0,0.3,0s0.1,0,0.3,0s0.1,0.1,0.2,0.1
			c0.1,0,0.1,0,0.3,0s0.1,0,0.3,0s0.1,0,0.3,0.1s0.2,0,0.3,0.1s-0.5,0.2-0.5,0.4s0.1,0.1,0,0.3c-0.1,0.2,0,0.1-0.1,0.2
			s-0.1,0.1-0.1,0.2s0,0.1,0,0.3s0.1,0.1,0.1,0.3c0,0.2-0.1,0.1-0.1,0.2s0,0.1,0,0.3c0,0.2-0.2,0.1-0.2,0.2s0.1,0.1,0.1,0.3
			c0,0.2,0,0.1,0,0.3c0,0.2-0.1,0.1-0.1,0.2s-0.1,0.1-0.2,0.2c0,0.1,0,0.1,0,0.3c0,0.2,0,0.1,0,0.3c0,0.2,0,0.1,0,0.3
			c0,0.2-0.1,0-0.1,0.1s-0.1,0.1-0.1,0.2s0,0.1,0,0.3s0,0.1,0,0.3c0,0.2,0.1,0.1,0,0.3c-0.1,0.2-0.1,0.1-0.2,0.2
			c-0.1,0.1-0.1,0.1-0.1,0.2s0,0.1,0,0.3c0,0.2-0.1,0.1-0.1,0.2s0.1,0.1,0,0.3c-0.1,0.2,0.1,0.1,0,0.3c-0.1,0.2,0,0.1-0.1,0.2
			s-0.1,0.1-0.1,0.2s0,0.1,0,0.3c0,0.2,0.1,0.1,0,0.3c-0.1,0.2-0.2,0.1-0.2,0.2s0,0.1,0,0.3c0,0.2,0.1,0.1,0.1,0.3
			c0,0.2-0.2,0.1-0.2,0.2s0.1,0.1,0,0.3c-0.1,0.2-0.1,0.1-0.1,0.2s0.1,0.1,0,0.3c-0.1,0.2-0.1,0.1-0.1,0.2s0,0.1,0,0.3
			c0,0.2,0,0.1,0,0.3c0,0.2-0.1,0-0.1,0.1s0,0.1,0,0.3c0,0.2,0,0.1,0,0.3c0,0.2,0,0.1,0,0.3c0,0.2,0,0.1,0,0.3s-0.1,0.1-0.1,0.2
			s-0.1,0.1-0.1,0.2s0,0.1-0.1,0.3c-0.1,0.2,0.1,0.2,0.1,0.3s0,0.1,0,0.3c0,0.2-0.1,0.1-0.2,0.2c-0.1,0.1,0,0.1-0.1,0.3
			c-0.1,0.2,0.1,0.1,0,0.3c-0.1,0.2-0.1,0.1-0.2,0.2c-0.1,0.1,0.1,0.2,0.1,0.3s-0.2,0.1-0.2,0.2s0.1,0.2,0.1,0.3s-0.1,0.1-0.1,0.2
			s-0.1,0.1-0.1,0.2s0,0.1,0,0.3c0,0.2,0,0.1,0,0.3c0,0.2-0.1,0-0.1,0.1s0,0.1,0,0.3s0,0.1,0,0.3c0,0.2,0.1,0.1,0,0.3
			c-0.1,0.2-0.2,0.1-0.2,0.2s0.1,0.1,0.1,0.3c0,0.2-0.1,0.1-0.1,0.2s0,0.1,0,0.3c0,0.2,0.1,0.1,0.1,0.3c0,0.2,0,0.1-0.1,0.3
			c-0.1,0.2-0.1,0.1-0.1,0.2s0,0.1,0,0.3c0,0.2-0.1,0.1-0.1,0.2s0,0.1,0,0.3c0,0.2-0.1,0.1-0.1,0.2s0.1,0.1,0.1,0.3
			c0,0.2-0.1,0.1-0.1,0.2s-0.5,0.1-0.4,0.2s0.2-0.1,0.3-0.1s0.1,0.1,0.2,0.1c0.1,0,0.1-0.1,0.3,0s0.1,0.1,0.2,0.1c0.1,0,0.1,0,0.3,0
			s0.1,0.1,0.2,0.1c0.1,0,0.1,0,0.3,0s0.1,0.1,0.2,0.2c0.1,0.1,0.1,0,0.3,0s0.1,0.1,0.2,0.1c0.1,0,0.1-0.1,0.3-0.1s0.1,0.1,0.2,0.2
			c0.1,0.1,0.2-0.2,0.3-0.1s0.1,0.1,0.2,0.1c0.1,0,0.1,0,0.2,0.1c0.1,0.1,0.1-0.1,0.3,0s0.1,0,0.2,0.1c0.1,0.1,0.1,0.1,0.2,0.1
			s0.3,0,0.5,0s0.1-0.1,0.2,0c0.1,0.1,0.1,0.1,0.1,0.2s-0.1,0.1-0.1,0.2s0,0.1,0,0.3c0,0.2,0,0.1,0,0.3s0,0.1-0.1,0.3
			c-0.1,0.2-0.2,0.1-0.2,0.2s0.1,0.1,0,0.3c-0.1,0.2,0,0.1,0,0.3c0,0.2-0.1,0.1-0.1,0.2s0.1,0.2,0.1,0.3s0,0.1-0.1,0.3
			c-0.1,0.2-0.1,0.1-0.1,0.2s-0.1,0.1-0.1,0.2s-0.1,0.1-0.1,0.2s0.2,0.2,0,0.3c-0.2,0.1-0.1,0-0.3,0s-0.1-0.1-0.2-0.2
			c-0.1-0.1-0.1,0-0.3-0.1s-0.1,0.1-0.3,0h-0.3c-0.1,0-0.1,0.1-0.3,0s-0.1-0.2-0.2-0.2c-0.1,0-0.1,0-0.3,0s-0.1,0-0.3-0.1
			s-0.1,0-0.3,0s-0.1,0-0.3,0s-0.1-0.1-0.2-0.1c-0.1,0-0.1,0.1-0.3,0s-0.1,0-0.3,0s-0.1-0.1-0.2-0.1c-0.1,0-0.1,0-0.3,0
			s-0.1-0.2-0.2-0.2c-0.1,0-0.1,0-0.3,0s-0.1,0-0.3,0s-0.2-0.1-0.3-0.1s0,0.2,0,0.3s-0.2,0.1-0.2,0.2s0,0.1-0.1,0.3
			c-0.1,0.2,0,0.1,0,0.3c0,0.2,0.1,0.2,0,0.3c-0.1,0.1-0.1,0.1-0.2,0.2c-0.1,0.1,0,0.1,0,0.3c0,0.2,0,0.1,0,0.3
			c0,0.1-0.1,0.2-0.1,0.3c0,0.1,0,0.2,0,0.3s-0.1,0.1-0.2,0.2c-0.1,0.1,0,0.2,0,0.3s-0.1,0.1-0.2,0.2c-0.1,0.1-0.1,0.1-0.1,0.2
			s0,0.2-0.1,0.3c-0.1,0.1-0.1,0.2-0.1,0.2s-0.1,0.1-0.2,0.2s-0.1,0.1-0.1,0.2s0,0.2-0.1,0.3c-0.1,0.1-0.1,0.1-0.2,0.2
			c-0.1,0.1-0.2,0.1-0.3,0.1s0,0.2-0.1,0.3c-0.1,0.1-0.1,0.1-0.2,0.2s-0.2,0-0.3,0s-0.1,0.2-0.1,0.3c0,0.1-0.1,0.2-0.2,0.2
			c-0.1,0-0.2,0-0.3,0s-0.1,0.2-0.2,0.2c-0.1,0-0.1,0.1-0.2,0.1c-0.1,0-0.2,0-0.3,0s-0.1,0.2-0.2,0.2c-0.1,0-0.2,0-0.3,0
			s-0.2,0-0.3,0s-0.2,0-0.2,0.1s-0.1,0.1-0.2,0.1c-0.1,0-0.2,0.1-0.2,0.1S-195.2-1638.9-195.4-1638.8c0,0.1-0.1-0.1-0.2-0.1
			c-0.1,0-0.2,0.1-0.3,0.1S-195.4-1638.8-195.4-1638.8 M-195.4-1647c-0.1,0-0.2,0.1-0.3,0.1s-0.2,0-0.3,0s-0.1,0.1-0.2,0.1
			c-0.1,0-0.2,0-0.3,0s-0.1,0.2-0.1,0.2s-0.2,0-0.3,0.1s-0.1,0.2-0.1,0.2l-0.1,0.2c0,0.1-0.1,0.1-0.1,0.2c-0.1,0.1-0.1,0.1-0.1,0.2
			c-0.2,0.1-0.2,0.2-0.2,0.3c0,0.1,0,0.2,0,0.2l-0.2,0.2c0,0,0.1,0.2,0.1,0.3s0,0.2,0,0.3c0,0.1-0.1,0.2,0,0.3
			c0.1,0.1,0.2,0.1,0.2,0.2s0.1,0.2,0.1,0.2c0,0.1,0.1,0.2,0.1,0.2c0.1,0.1,0.2,0.1,0.2,0.1s0,0.2,0.1,0.3c0.1,0,0.2,0.1,0.2,0.1
			c0.1,0,0.2,0,0.3,0.1s0.1,0.2,0.2,0.2c0.1,0,0.2,0,0.3,0s0.2,0.1,0.3,0.1s0.2,0,0.3,0s0.2,0,0.3-0.1c0.1,0,0.2-0.1,0.2-0.1
			c0.1,0,0.2,0,0.3-0.1c0.1,0,0.1-0.2,0.2-0.2c0.1,0,0.2-0.1,0.2-0.1c0.1-0.1,0.2,0,0.3-0.1s0.1-0.1,0.2-0.2
			c0.1-0.1,0.1-0.1,0.2-0.2c0-0.1,0-0.2,0-0.3s0.2-0.1,0.2-0.2s0-0.2,0.1-0.3c0-0.1,0-0.1,0-0.3c0-0.2,0-0.1,0-0.3s0-0.1,0-0.3
			c0-0.2,0.2-0.1,0.2-0.2s-0.1-0.2,0-0.3c0.1-0.1,0.1-0.1,0.1-0.3c0-0.2,0-0.1,0.1-0.3c0.1-0.2,0.1-0.2,0-0.3
			c-0.1-0.1-0.1,0-0.3-0.1s-0.1,0-0.3,0s-0.1-0.1-0.2-0.1s-0.3,0.4-0.5,0.4s-0.1-0.1-0.2-0.2c-0.1-0.1-0.1,0-0.3,0s-0.1-0.1-0.3-0.1
			s-0.2,0.1-0.3,0.1C-195.2-1646.8-195.2-1646.9-195.4-1647C-195.4-1646.9-195.4-1647-195.4-1647"/>
		<path class="st8" d="M-157.2-1629.9c-0.1-0.1-0.2,0-0.2-0.1s0-0.2-0.1-0.3c-0.1-0.1-0.1-0.1-0.1-0.2s0-0.1-0.1-0.2
			s-0.1-0.1-0.2-0.2c-0.1-0.1-0.1-0.1-0.2-0.2c-0.1-0.1,0-0.2-0.1-0.3c-0.1-0.1-0.2,0-0.3-0.1s0.1-0.2,0-0.3c-0.1-0.1-0.2,0-0.3-0.1
			s0-0.1-0.1-0.3c-0.1-0.2-0.1-0.1-0.1-0.2s0-0.2-0.1-0.3c-0.1-0.1-0.1-0.1-0.2-0.2c-0.1-0.1,0-0.1,0-0.3c0.1,0,0-0.1,0.1-0.2
			s0.1-0.1,0.2-0.1c0.1,0,0.2,0,0.3,0s0.2-0.1,0.2-0.1s0.1-0.2,0.2-0.2s0.1-0.1,0.2-0.2c0.1-0.1,0.2,0,0.3-0.1s0.1-0.2,0.1-0.2
			s0.2,0,0.3,0s0.1-0.1,0.2-0.2c0.1-0.1,0.1-0.1,0.2-0.2s0.2-0.1,0.2-0.1s0-0.2,0.1-0.3c0.1-0.1,0.1-0.1,0.2-0.2
			c0.1-0.1,0.2,0,0.3-0.1s0.1-0.2,0.1-0.2l0.1-0.2c0,0,0.2-0.1,0.2-0.2s0.2-0.1,0.2-0.1s0-0.2,0.1-0.3c0.1-0.1,0-0.2,0.1-0.3
			c0.1-0.1,0.1-0.1,0.2-0.2c0.1-0.1,0.1-0.1,0.2-0.2c0.1-0.1,0.2-0.1,0.2-0.2s0-0.2,0.1-0.3c0.1-0.1,0-0.2,0-0.3
			c0-0.1,0.1-0.1,0.2-0.2c0.1-0.1,0-0.2,0-0.3c0-0.1,0-0.2,0.1-0.2s0-0.2,0.1-0.2s0.1-0.1,0.1-0.2s0-0.2,0-0.3
			c0-0.1,0.1-0.2,0.1-0.3s0-0.2,0-0.3c0-0.1-0.2-0.2-0.2-0.2s0.1-0.2,0.1-0.3c0-0.1-0.1-0.1-0.2-0.2c-0.1-0.1,0-0.2,0-0.3
			c0-0.1,0-0.2,0-0.3s0-0.2-0.1-0.3c-0.1-0.1-0.2-0.1-0.2-0.2s-0.1-0.2-0.1-0.2s0-0.2,0-0.3s-0.1-0.1-0.2-0.2
			c-0.1-0.1-0.2-0.1-0.2-0.2s-0.1-0.2-0.1-0.2s-0.1-0.1-0.2-0.2s-0.2,0-0.3,0s0-0.2-0.1-0.3c-0.1-0.1-0.2,0-0.3-0.1
			s-0.1-0.2-0.2-0.2s-0.2,0-0.3,0s-0.2-0.1-0.2-0.1s-0.2,0-0.3,0s-0.2,0.1-0.3,0s-0.2,0.1-0.3,0s-0.1-0.2-0.2-0.2s-0.2,0-0.3,0
			s-0.2,0-0.3,0s-0.2,0-0.3,0s-0.2,0-0.3,0s-0.1,0-0.3,0s-0.1,0-0.3,0s-0.1-0.2-0.3-0.1s0.2,0.4,0,0.4s-0.1,0-0.3,0
			s-0.1-0.1-0.3-0.1s0,0.1-0.2,0.1s-0.1,0-0.3,0s-0.1,0-0.3,0s-0.1,0.1-0.3,0.1s-0.1-0.1-0.3-0.1s0,0-0.1,0s-0.2,0.1-0.3,0.1
			s0.1-0.2,0.1-0.3c0-0.1-0.1-0.2-0.1-0.3s0.1-0.1,0.1-0.3c0-0.2,0-0.1,0-0.3c0-0.2,0-0.1,0-0.3c0-0.2-0.1,0-0.1-0.1s0-0.1,0-0.3
			c0-0.2,0-0.1,0-0.3c0-0.2,0-0.1,0-0.3c0-0.2,0.1-0.1,0.1-0.3c0-0.2,0-0.1,0-0.3s0-0.1,0-0.3c0-0.2-0.1,0.1-0.1-0.1
			s0.2-0.1,0.2-0.3c0-0.2,0-0.1,0-0.3s0-0.1,0-0.3c0-0.2,0-0.1,0-0.3c0-0.2-0.2,0.1-0.2-0.1s0.2-0.1,0.2-0.3s-0.1-0.1-0.1-0.3
			c0-0.2,0-0.1,0-0.3c0-0.2,0-0.1,0-0.3c0-0.2,0-0.1,0-0.3c0-0.2,0-0.1,0-0.3s0-0.1,0-0.3c0-0.2,0.1-0.1,0.1-0.3
			c0-0.2-0.2,0.2-0.2,0.1s0.1-0.1,0.1-0.3c0-0.2,0-0.1,0-0.3c0-0.2,0.1-0.1,0.1-0.3c0-0.2-0.1-0.1-0.1-0.3c0-0.2,0.1-0.1,0.1-0.3
			s-0.1-0.1-0.1-0.3c0-0.2,0.1-0.1,0.1-0.3c0-0.2-0.2,0.2-0.2,0s0.2-0.1,0.2-0.3c0-0.2-0.1-0.1-0.1-0.3c0-0.2,0-0.1,0-0.3
			s0.1-0.1,0.1-0.3c0-0.2-0.2,0.1-0.2-0.1s0.1-0.1,0.1-0.3c0-0.2,0.1-0.1,0.1-0.3c0-0.1,0-0.1,0-0.3c0-0.2-0.1-0.1-0.1-0.3
			c0-0.2,0.1-0.1,0.1-0.3c0-0.2,0-0.1,0-0.3c0-0.2,0-0.1,0-0.3s0-0.1,0-0.3c0-0.2-0.1-0.1-0.1-0.3c0-0.2,0.1-0.1,0.1-0.3
			c0-0.2,0-0.1,0-0.3c0-0.2,0-0.1,0-0.3s0.1-0.1,0.1-0.3c0-0.2-0.1-0.1-0.1-0.3c0-0.2,0-0.1,0-0.3c0-0.2-0.1-0.1-0.1-0.3
			c0-0.2,0-0.1,0-0.3s0.1-0.1,0.1-0.3c0-0.2,0-0.1,0-0.3c0-0.2,0-0.1,0-0.3c0-0.2,0-0.1,0-0.3c0-0.2,0-0.1,0-0.3s0-0.1,0-0.3
			c0-0.2-0.1-0.1-0.1-0.3c0-0.2,0.1-0.1,0.1-0.3c0-0.2-0.1-0.1-0.1-0.3c0-0.2,0-0.1,0-0.3s0-0.1,0-0.3c0-0.2,0-0.1,0-0.3
			c0-0.2,0.1-0.1,0.1-0.3c0-0.2-0.1-0.1-0.1-0.3c0-0.2,0.2-0.1,0.2-0.3s0-0.1,0-0.3c0-0.1-0.2-0.1-0.2-0.3c0-0.2,0-0.1,0-0.3
			c0-0.2-0.1-0.2,0-0.3c0.1-0.1,0.2,0.1,0.3,0.1s0.1-0.1,0.3-0.1s0.1,0,0.3,0s0.1,0,0.3,0s0.1,0,0.3,0s0.1,0.1,0.3,0.1
			s0.1-0.1,0.3-0.1s0.1,0.1,0.3,0.1s0.1-0.2,0.3-0.2s0.1,0.1,0.3,0.1s0.1,0,0.3,0s0.1-0.1,0.3-0.1s0.1,0,0.3,0s0.1,0,0.3,0
			s0.1,0,0.2,0.1c0.1,0.1,0.1,0.1,0.1,0.2s0,0.1,0,0.3c0,0.2,0.1,0.1,0.1,0.3c0,0.1,0,0.1,0,0.3c0,0.2-0.1,0.1-0.1,0.3
			c0,0.1-0.1,0.1-0.1,0.3s0.1,0.1,0.1,0.3c0,0.2,0,0.1,0,0.3c0,0.2-0.6,1.4-0.6,1.5s0,0.1,0,0.3c0,0.2,0.1,0.1,0.1,0.3
			c0,0.2-0.1,0-0.1,0.2s0.1,0.1,0.1,0.3c0,0.2-0.1,0-0.1,0.2s0,0.1,0,0.3c0,0.2,0,0.1,0,0.3s0.1,0.1,0.1,0.3c0,0.2-0.1,0-0.1,0.1
			s0,0.1,0,0.3c0,0.2,0.1,0.1,0.1,0.3s-0.1,0-0.1,0.2s0.1,0.1,0.1,0.3s-0.1,0-0.1,0.2s0.1,0.1,0.1,0.3s-0.1,0.1-0.1,0.3
			c0,0.2,0.1,0.1,0.1,0.3c0,0.2-0.1,0.1-0.1,0.3c0,0.2,0,0.1,0,0.3c0,0.2,0.1,0.1,0.1,0.3s-0.1-0.2-0.2,0c-0.1,0.2,0.1,0.1,0.1,0.3
			c0,0.2-0.1,0.1-0.1,0.3c0,0.2,0.1,0.1,0.1,0.3c0,0.2,0,0.1,0,0.3c0,0.1,0,0.1,0,0.3s0-0.1,0,0s0,0.1,0,0.3c0,0.2-0.1,0.1-0.1,0.3
			c0,0.2,0.1,0.1,0.1,0.3c0,0.2,0,0.1,0,0.3c0,0.2,0,0.1,0,0.3s0.1,0.1,0.1,0.3c0,0.2,0,0.1,0,0.3c0,0.2-0.1-0.2-0.1,0
			s-0.1,0.1-0.1,0.3c0,0.2,0.1,0.1,0.1,0.2s0,0.1,0,0.3c0,0.2,0,0.1,0,0.3c0,0.2,0,0,0,0.2s0,0.1,0,0.3c0,0.2-0.1,0.1-0.1,0.3
			s0,0.1,0,0.3c0,0.2,0.1,0.1,0.1,0.3c0,0.2,0,0.1,0,0.3c0,0.2,0,0.1,0,0.3c0,0.2,0,0.1,0,0.3s0,0.1,0,0.3c0,0.2,0,0.1,0,0.3
			c0,0.2,0,0.1,0,0.3c0,0.2-0.1,0.1-0.1,0.3c0,0.1,0,0.2,0.1,0.3c0.1,0,0.2,0,0.3,0s0.2,0.1,0.2,0.1s0.2,0,0.3,0s0.2,0,0.3,0
			s0.2,0,0.3,0.1s0.2,0.1,0.2,0.1l0.2,0.1c0,0,0.2,0,0.3,0s0.2,0.1,0.2,0.1l0.2,0.1l0.2,0.1c0,0,0.2-0.1,0.3,0s0.1,0.1,0.2,0.2
			s0.2,0,0.2,0.1s0.1,0.1,0.2,0.1c0.1,0,0.2,0,0.3,0s0.1-0.6,0.2-0.6c0.1,0,0.1,0.1,0.2,0.2c0.1,0.1,0.1,0.1,0.2,0.2
			s0.2,0.1,0.2,0.1l0.2,0.1l0.2,0.1c0,0,0.1,0.1,0.2,0.2s0.1,0.2,0.1,0.2s0.1,0.1,0.2,0.2c0.1,0.1,0.1,0.1,0.2,0.2s0.2,0.1,0.3,0.1
			s0.1,0.2,0.1,0.2s0,0.2,0.1,0.3c0.1,0.1,0.2,0.1,0.2,0.2s0,0.2,0.1,0.3c0.1,0.1,0.2,0.1,0.2,0.2s0.2,0.1,0.2,0.2s0.1,0.2,0.1,0.2
			s0,0.2,0,0.3s0.1,0.2,0.1,0.2s0.2,0.1,0.2,0.2s-0.1,0.2,0,0.3c0.1,0.1,0.1,0.1,0.1,0.2s0.2,0.1,0.2,0.2s-0.1,0.2-0.1,0.3
			s0.1,0.1,0.2,0.2c0.1,0.1,0,0.2,0,0.3s0.1,0.2,0.1,0.2s0.1,0.2,0.1,0.3s0.1,0.2,0.1,0.2s0,0.2,0,0.3s-0.1,0.1-0.1,0.2s0,0.2,0,0.3
			s0,0.2,0,0.3c0,0.1,0,0.2,0,0.3s0.1,0.2,0.1,0.3c0,0.1-0.1,0.2-0.1,0.3s0,0,0,0.1s0,0.2,0,0.3s0.1,0.2,0.1,0.3c0,0.1,0,0.2,0,0.3
			s-0.2,0.1-0.2,0.2s-0.1,0.2-0.1,0.2s0,0.2,0,0.3c0,0.1-0.2,0.1-0.2,0.2s0.1,0.2,0,0.3c-0.1,0.1-0.2,0.1-0.3,0.2s0.1,0.2,0,0.3
			c-0.1,0.1-0.2,0.1-0.2,0.2s-0.1,0-0.1,0s0,0.2-0.1,0.2s0,0.2-0.1,0.3c-0.1,0.1-0.2,0.1-0.2,0.2s0,0.2-0.1,0.2s-0.1,0.1-0.1,0.2
			s0,0.2-0.1,0.3c-0.1,0.1-0.3,0-0.3,0.1s0,0.2-0.1,0.3c-0.1,0.1-0.2,0.1-0.2,0.2s-0.1,0.1-0.2,0.2c-0.1,0.1,0,0.2-0.1,0.3
			c-0.1,0.1-0.1,0.1-0.2,0.2c-0.1,0.1-0.2,0-0.3,0.1s-0.1,0.2-0.1,0.2h-0.1c0,0-0.1,0.1-0.2,0.2c-0.1,0.1-0.2,0.1-0.2,0.1
			s-0.1,0.2-0.1,0.3s-0.2,0.1-0.2,0.1s-0.2,0-0.3,0.1s0,0.3-0.1,0.3s-0.2,0-0.3,0.1s-0.1,0.2-0.1,0.2s-0.2,0-0.3,0.1
			s-0.1,0.2-0.2,0.2c-0.1,0-0.2,0.1-0.2,0.1s-0.1,0.2-0.2,0.2c-0.1,0-0.2,0-0.3,0s-0.1,0.1-0.2,0.2c-0.1,0.1-0.2,0-0.2,0.1
			s-0.1,0.2-0.1,0.2L-157.2-1629.9"/>
		<g transform="translate(96.384 1.672)">
			<path class="st8" d="M-200.1-1634.6c-0.1,0.1-0.1,0-0.2,0c-0.1,0-0.1-0.1-0.2-0.1s-0.1,0-0.2,0c-0.1,0-0.1,0-0.2-0.1
				c-0.1-0.1-0.1,0-0.2-0.1c-0.1-0.1-0.3-0.1-0.4-0.1s-0.1,0-0.3,0s-0.1,0-0.2-0.1s-0.1,0-0.2-0.1c-0.1-0.1-0.1,0-0.2-0.1
				c-0.1-0.1-0.1,0-0.3,0s-0.1-0.1-0.2-0.2c-0.1-0.1-0.1,0-0.2-0.1c-0.1-0.1-0.2,0.1-0.2,0s-0.2,0-0.2-0.1s0-0.1,0.1-0.2
				s0.1-0.1,0.1-0.2s0-0.1,0-0.3c0-0.2,0-0.1,0-0.3c0-0.2,0.1-0.1,0.1-0.2s0-0.1,0-0.3c0-0.2,0.1-0.1,0.1-0.2s0-0.1,0-0.3
				c0-0.2,0-0.1,0.1-0.3c0.1-0.2,0.1-0.1,0.1-0.2s0-0.1,0-0.3c0-0.2,0-0.1,0-0.3c0-0.1,0.1-0.1,0.1-0.2s0.1-0.1,0.1-0.2
				s0-0.1,0.1-0.3c0-0.1,0-0.1,0-0.3c0-0.1,0.1-0.1,0.1-0.2s0-0.1,0.1-0.2s0-0.1,0-0.3c0-0.2,0.1-0.1,0.1-0.2s0-0.1,0-0.3
				c0-0.2,0-0.1,0-0.3c0-0.2,0-0.1,0.1-0.3c0.1-0.2,0.1-0.1,0.1-0.2s0.1-0.1,0.1-0.2s-0.1-0.1,0-0.3c0.1-0.2,0.1-0.1,0.1-0.2
				s0.1-0.1,0.1-0.2s0-0.1,0.1-0.2s0-0.1,0-0.3c0-0.2,0-0.1,0.1-0.2c0-0.1,0.1-0.1,0.1-0.2s0-0.1,0-0.3c0-0.2,0-0.1,0.1-0.3
				c0.1-0.2,0.1-0.1,0.1-0.2s0-0.1,0-0.3c0-0.2,0.1-0.1,0.1-0.2s0-0.1,0.1-0.2s0-0.1,0-0.3c0-0.2,0.1-0.1,0.1-0.2s0-0.1,0.1-0.2
				s0.1-0.1,0.1-0.2s0-0.1,0.1-0.3c0.1-0.2,0-0.1,0-0.3s0.1-0.1,0.1-0.2s0-0.1,0-0.3s0.1-0.2,0.1-0.3c0-0.1,0-0.1,0-0.3
				c0-0.2,0.1-0.1,0.1-0.2s0-0.1,0.1-0.3c0.1-0.2,0.1-0.1,0.1-0.2s0-0.1,0-0.3c0-0.2,0.1-0.1,0.1-0.2s0-0.1,0-0.3
				c0-0.2,0-0.1,0.1-0.3c0.1-0.2,0.1-0.1,0.1-0.2s0-0.1,0.1-0.2s0-0.1,0-0.3c0-0.2,0-0.1,0-0.3c0-0.2,0.1-0.1,0.1-0.2
				s-0.1-0.2,0-0.3c0.1-0.1,0.1,0.1,0.3,0.1s0.1,0,0.2,0.1c0.1,0.1,0.1,0,0.2,0c0.1,0,0.1,0.1,0.2,0.1s0.1,0,0.3,0s0.1,0,0.2,0.1
				s0.1,0.1,0.2,0.1c0.1,0,0.1,0,0.3,0s0.1,0,0.3,0s0.1,0.1,0.2,0.1s0.1,0.1,0.2,0.1c0.1,0,0.1,0,0.3,0s0.1,0,0.3,0s0.2,0,0.3,0.1
				s0,0.1-0.1,0.3c-0.1,0.2,0,0.2-0.1,0.3c-0.1,0.1,0,0.1,0,0.3c0,0.2,0,0.1,0,0.3c0,0.2-0.1,0-0.1,0.2s0,0.1,0,0.3
				c0,0.2,0,0.1-0.1,0.2s0,0.1-0.1,0.3c-0.1,0.2-0.1,0.1-0.1,0.2s0,0.1,0,0.3c0,0.2-0.1,0.1-0.1,0.2s0,0.1-0.1,0.2s0.1,0.1,0,0.3
				c-0.1,0.2-0.1,0.1-0.1,0.2s0,0.1,0,0.3c0,0.2-0.1,0.1-0.1,0.2s0,0.1-0.1,0.2s0,0.1-0.1,0.2s0,0.1,0,0.3c0,0.2,0,0.1-0.1,0.2
				s0,0.2,0,0.3c0,0.1,0,0.1-0.1,0.3c-0.1,0.2,0,0.1,0,0.3c0,0.1-0.1,0.1-0.1,0.2s0,0.1-0.1,0.2s0,0.1,0,0.3s-0.1,0.1-0.1,0.2
				s0,0.1,0,0.3s-0.1,0.1-0.1,0.2s0,0.1,0,0.3s0,0.1-0.1,0.2s0,0.1,0,0.3s-0.1,0.1-0.1,0.2s0,0.1,0,0.3s-0.1,0.1-0.1,0.2
				s0,0.1,0,0.3s0,0.1,0,0.3l-0.2,0.2c0,0.1-0.1,0.1-0.1,0.2s0,0.1-0.1,0.3c-0.1,0.2,0,0.1,0,0.3c0,0.2-0.1,0-0.1,0.2s0,0.1,0,0.3
				c0,0.2,0,0.1-0.1,0.3c-0.1,0.2-0.1,0.1-0.1,0.2s0,0.1,0,0.3c0,0.1,0,0.1-0.1,0.2s-0.1,0.1-0.1,0.2s0,0.1,0,0.3
				c0,0.2-0.1,0.1-0.1,0.2s0,0.1,0,0.3c0,0.2,0,0.1,0,0.3c0,0.2-0.2,0-0.2,0.1s0,0.1,0,0.3s-0.1,0.1-0.1,0.2s0,0.1-0.1,0.3
				c-0.1,0.2,0,0.1,0,0.3c0,0.2,0,0.1,0,0.3c0,0.2-0.1,0.1-0.1,0.2s0,0.1,0,0.3c0,0.2-0.1,0.1-0.1,0.2
				C-199.9-1634.7-199.9-1634.7-200.1-1634.6"/>
			<path class="st8" d="M-190.9-1638c-0.1-0.1-0.1,0-0.2-0.2c-0.1-0.2,0.1-0.2,0.1-0.3s-0.2-0.1-0.2-0.2s0-0.1,0-0.3
				c0-0.2-0.1-0.1-0.1-0.2s0-0.1-0.1-0.3c-0.1-0.2,0.1-0.2,0.1-0.3c0-0.1-0.2-0.1-0.2-0.2s0.1-0.2,0.1-0.3c0-0.1-0.1-0.1-0.2-0.2
				c-0.1-0.1,0-0.1,0-0.3c0-0.2-0.1-0.1-0.1-0.2s0.1-0.2,0.1-0.3c0-0.1,0-0.1-0.1-0.2s-0.2-0.1-0.2-0.2s0-0.1-0.1-0.3
				c-0.1-0.2,0-0.1-0.1-0.2s0.1-0.1,0-0.3c-0.1-0.2-0.1-0.1-0.1-0.2s0-0.1,0-0.3c0-0.2,0-0.1,0-0.3c0-0.2,0-0.1,0-0.3s0-0.1,0-0.3
				c0-0.2-0.1-0.1-0.2-0.2c-0.1-0.1,0.1-0.1,0-0.3c-0.1-0.2-0.1-0.1-0.2-0.2c-0.1-0.1,0.1-0.1,0.1-0.3c0-0.2-0.1-0.1-0.1-0.2
				s0.1-0.1,0.1-0.3c0-0.2,0-0.1,0-0.3c0-0.2,0,0.1,0,0v-0.3c0-0.1,0-0.1-0.1-0.2s0-0.1,0-0.3c0-0.2,0-0.1,0-0.3c0-0.2,0-0.1,0-0.3
				s0-0.1,0-0.3c0-0.2-0.1-0.1-0.1-0.2s0-0.1,0-0.3c0-0.2-0.1-0.1-0.1-0.2s0-0.1,0-0.3c0-0.2-0.1-0.1-0.1-0.2s0.1-0.1,0.1-0.3
				c0-0.2,0-0.1-0.1-0.2s-0.1-0.1-0.2-0.2c-0.1-0.1,0.1-0.1,0-0.3c-0.1-0.2,0-0.1,0-0.3c0-0.2-0.1-0.1-0.1-0.2s0.1-0.1,0-0.3
				c-0.1-0.2-0.1-0.1-0.1-0.2s0.1-0.2,0.1-0.3c0-0.1-0.1-0.1-0.1-0.2s0-0.1,0-0.3c0-0.2-0.1-0.1-0.1-0.2s0-0.1,0-0.3
				c0-0.2-0.1-0.1-0.1-0.2s0-0.1,0-0.3c0-0.2,0-0.1-0.1-0.3c-0.1-0.2,0-0.1,0-0.3c0-0.2-0.1-0.1-0.2-0.2s0-0.1-0.1-0.3
				c-0.1-0.2,0-0.1,0-0.3c0-0.2,0-0.1,0-0.3s-0.1-0.1-0.1-0.2s0.2-0.2,0.1-0.3c-0.1-0.1,0-0.1-0.1-0.3c-0.1-0.2,0-0.1,0-0.3
				c0-0.2-0.2-0.1-0.2-0.2s0-0.1-0.1-0.3c-0.1-0.2,0.1-0.2,0.1-0.3s-0.1-0.1-0.1-0.2s-0.2,0.3-0.2,0.1s0.1-0.1,0.1-0.3
				c0-0.2-0.2,0-0.2-0.2s0.1-0.1,0.1-0.2s-0.1-0.1-0.1-0.2s0-0.1-0.1-0.2s0.1-0.1,0-0.3c-0.1-0.2-0.1-0.1-0.1-0.2s-0.1-0.1-0.1-0.2
				s0.1-0.1,0-0.3c-0.1-0.2,0.1-0.1,0-0.3c-0.1-0.2,0-0.1-0.1-0.3c-0.1-0.2-0.1-0.1-0.2-0.2c-0.1-0.1,0.1-0.1,0-0.3
				c-0.1-0.2,0-0.1,0-0.3s-0.1-0.1-0.1-0.2s0.1-0.1,0-0.3s-0.2-0.1-0.1-0.2c0.1-0.1,0.1-0.1,0.2-0.1c0.1,0,0.1,0,0.2-0.1
				c0.1-0.1,0.1,0.1,0.3,0.1s0.1,0,0.3,0s0.1-0.2,0.2-0.2c0.1,0,0.1,0,0.3,0s0.1,0,0.3,0s0.1,0,0.3,0s0.1-0.1,0.2-0.1
				c0.1,0,0.1,0,0.3,0s0.1,0.1,0.3,0s0.1-0.1,0.2-0.1s0.1,0,0.3-0.1s0.1,0,0.3,0s0.2-0.2,0.3-0.1s0,0.2,0,0.3s0,0.1,0,0.3
				c0,0.2,0.1,0.1,0.2,0.2c0.1,0.1-0.1,0.1,0,0.3c0.1,0.2,0,0.1,0,0.3s0,0.1,0,0.3c0,0.2,0,0.1,0.1,0.2s0.1,0.1,0.1,0.2
				s-0.1,0.1,0,0.3s0.2,0.1,0.2,0.2s-0.1,0.2-0.1,0.3s0.2,0.1,0.2,0.2s0,0.1,0,0.3s0,0.1,0.1,0.3c0.1,0.2-0.1,0.1,0,0.3
				c0.1,0.2,0.1,0.1,0.1,0.2s-0.1,0.1-0.1,0.3c0,0.2,0.2,0.1,0.2,0.2s0,0.1,0,0.3c0,0.2-0.1,0.2-0.1,0.3s0,0.1,0,0.3
				c0,0.2,0.1,0.1,0.1,0.2s0.1,0.1,0.1,0.2s-0.1,0.1,0,0.3c0.1,0.2,0.1,0.1,0.2,0.2c0.1,0.1-0.1,0.2-0.1,0.3s0,0.1,0.1,0.2
				s0.1,0.1,0.1,0.2s0,0.1,0,0.3c0,0.2,0.1,0.1,0.2,0.2c0.1,0.1,0,0.1,0,0.3c0,0.2-0.1,0.1-0.1,0.3c0,0.2,0.1,0.1,0.1,0.2
				s0.1,0.1,0.1,0.2s0,0.1,0,0.3c0,0.2-0.1,0.1,0,0.3c0.1,0.2,0.1,0.1,0.1,0.2s0.1,0.1,0.1,0.2s0,0.1,0,0.3c0,0.2,0,0.1,0,0.3
				c0,0.2-0.1,0.1-0.1,0.3c0,0.2,0.1,0.1,0.1,0.2s0.1,0.1,0.2,0.2c0.1,0.1-0.1,0.1,0,0.3c0.1,0.2,0.1,0.1,0.1,0.2s0,0.1,0.1,0.3
				c0.1,0.2,0,0.1,0.1,0.3c0.1,0.2-0.1,0.1,0,0.3c0,0.1,0.1,0.1,0.1,0.2s-0.1,0.1-0.1,0.3s0,0.1,0,0.3c0,0.2,0.2,0.1,0.2,0.2
				s-0.1,0.2-0.1,0.3c0,0.1,0.1,0.1,0.2,0.2c0.1,0.1,0,0.1,0,0.3c0,0.2,0,0.1,0,0.3c0,0.2,0,0.1,0,0.3c0,0.2,0.1,0.1,0.2,0.2
				s0,0.1,0,0.3c0,0.2-0.1,0.2-0.1,0.3c0,0.1,0,0.1,0.1,0.2s0.1,0.1,0.1,0.2s0,0.1,0,0.3c0,0.2,0,0.1,0,0.3c0,0.2,0.2,0.1,0.2,0.2
				s-0.1,0.2-0.1,0.3c0,0.1,0.1,0.1,0.1,0.2s-0.1,0.1,0,0.3c0.1,0.2,0.1,0.1,0.1,0.2s0,0.1,0,0.3c0,0.2,0.1,0.1,0.1,0.2
				s-0.1,0.2-0.1,0.3c0,0.1,0.1,0.1,0.1,0.2c0.1,0,0.1,0,0.2,0c0.1,0,0.1-0.1,0.2-0.2c0.1-0.1,0.1-0.1,0.2-0.2l0.2-0.1
				c0.1,0,0.2,0,0.2-0.1s0.1-0.1,0.2-0.1c0.1,0,0.1-0.1,0.2-0.2c0.1-0.1,0.2,0.1,0.3,0s0.1-0.2,0.1-0.3c0-0.1,0.1-0.1,0.2-0.1
				c0.1,0,0.2,0,0.3,0s0.1-0.2,0.1-0.2l0.2-0.1l0.2-0.1c0,0,0.1-0.2,0.2-0.2c0.1,0,0.2,0,0.3,0s0.1-0.1,0.2-0.2
				c0.1-0.1,0.1-0.2,0.2-0.2c0.1,0,0.2,0,0.3-0.1s0.1-0.2,0.1-0.2l0.2-0.1c0,0,0.1-0.1,0.2-0.2c0.1-0.1,0.1-0.1,0.2-0.2
				c0.1-0.1,0.1-0.2,0.1-0.2s0.1-0.1,0.2-0.2c0.1-0.1,0-0.2,0.1-0.3c0.1-0.1,0.1-0.1,0.2-0.2c0.1-0.1,0.2,0,0.3-0.1s0.1-0.2,0.1-0.2
				s0.1-0.1,0.2-0.2c0.1-0.1,0-0.2,0-0.3s0.2,0,0.3-0.1s0.1-0.1,0.1-0.2s0.1-0.2,0.1-0.2l0.1-0.2c0,0,0-0.2,0.1-0.3
				c0.1-0.1,0.2-0.1,0.3-0.1s0-0.2,0.1-0.3c0.1-0.1,0.1-0.1,0.2-0.2s0.1-0.1,0.1-0.2s0.1-0.2,0.1-0.2s0.1-0.1,0.1-0.2
				s0.1-0.2,0.1-0.2s0.2-0.1,0.2-0.2s-0.1-0.2,0-0.3c0.1-0.1,0.2-0.1,0.2-0.2s0-0.2,0.1-0.2s0.1-0.1,0.2-0.2c0.1-0.1,0-0.2,0-0.3
				c0-0.1,0.2-0.1,0.2-0.2s0-0.2,0-0.3c0-0.1,0.2-0.1,0.2-0.2s-0.1-0.2,0-0.3c0.1-0.1,0.2-0.1,0.2-0.2s0-0.2,0-0.3
				c0-0.1,0.1-0.1,0.1-0.2s0.1-0.1,0.2-0.2c0.1-0.1,0.3-0.7,0.3-0.8s0.1-0.1,0.1-0.2s0.2-0.1,0.2-0.2s0-0.2,0-0.3s0-0.2,0-0.3
				s0.1-0.1,0.2-0.2s0.1-0.2,0.1-0.2s0-0.2,0-0.3s0-0.2,0.1-0.3c0.1-0.1,0-0.2,0-0.3c0-0.1,0.1-0.1,0.1-0.2s0.1-0.2,0.1-0.2
				s0-0.2,0-0.3s0.1-0.1,0.1-0.2s-0.1-0.2,0-0.3s0.1-0.2,0.1-0.3c0-0.1,0-0.2,0-0.3s0-0.2,0-0.3c0-0.1,0.1-0.2,0.1-0.2
				s0.1-0.2,0.1-0.3c0-0.1,0-0.2,0-0.3s0.1-0.2,0.1-0.3s0-0.2,0-0.3c0-0.1,0-0.2,0-0.3s0-0.2,0-0.3c0-0.1,0.1-0.2,0.1-0.2
				s-0.1-0.2-0.1-0.3c0-0.1,0-0.2,0-0.3s0-0.2,0-0.3s0-0.2,0-0.3c0-0.1,0.1-0.2,0.1-0.3s-0.1-0.2-0.1-0.3c0-0.1,0.2-0.2,0.2-0.3
				s0-0.2,0-0.3s-0.2-0.2-0.2-0.3c0-0.1,0-0.2,0-0.3s0-0.2,0-0.3c0-0.1,0.1-0.2,0.1-0.3s-0.1-0.2-0.1-0.3s0-0.2,0-0.3
				c0-0.1,0.1,0.7,0.1,0.6s0-0.2,0-0.3s0.1-0.2,0.1-0.3c0-0.1-0.1-0.2-0.1-0.3s0.1-0.2,0.1-0.3c0-0.1-0.2-0.2-0.2-0.3
				s0.1-0.2,0.1-0.3s0-0.2,0-0.3c0-0.1-0.1-0.2-0.1-0.3s0-0.2-0.1-0.3c-0.1-0.1,0-0.2,0-0.3s0.1-0.2,0.1-0.3s-0.1-0.2-0.1-0.3
				c0-0.1,0-0.2,0-0.3s-0.1-0.2-0.1-0.3c0-0.1,0-0.2,0-0.3s0-0.2,0-0.3s0-0.2,0-0.3c0-0.1-0.1-0.2-0.1-0.2s0-0.2-0.1-0.3
				c-0.1-0.1,0.1-0.2,0.1-0.3s-0.1-0.2-0.1-0.3c0-0.1,0,0.6,0,0.5s0-0.2,0-0.3s-0.1-0.2-0.1-0.3c0.1-0.1,0.2,0,0.3,0s0.1,0,0.3,0
				s0.1,0,0.3-0.1s0.1-0.2,0.2-0.2c0.1,0,0.2,0.1,0.3,0.1s0.1,0,0.3,0s0.1-0.1,0.2-0.2c0.1-0.1,0.1,0,0.3,0s0.1-0.1,0.2-0.1
				c0.1,0,0.2,0.1,0.3,0.1s0.1-0.1,0.2-0.1c0.1,0,0.2,0.1,0.3,0.1s0.1-0.1,0.2-0.1c0.1,0,0.1,0.1,0.3,0s0-0.1,0.1-0.1
				c0,0.1,0.1,0.1,0.1,0.2s-0.1,0.2-0.1,0.3s0.1,0.2,0.1,0.2s0.1,0.2,0.1,0.3s0.1,0.1,0.1,0.2s0,0.2,0,0.3s0.1,0.2,0.1,0.3
				c0,0.1-0.1,0.1,0,0.2s0.1,0.2,0.1,0.3c0,0.1-0.1,0.2-0.1,0.3s0.1,0.2,0.1,0.2s0,0.2,0.1,0.3c0.1,0.1,0,0.2,0,0.3s0.1,0.2,0.1,0.2
				s0,0.2,0,0.3s0,0.2,0,0.3c0,0.1-0.1,0.2,0,0.3c0.1,0.1,0.1,0.2,0.1,0.2s0,0.2,0,0.3s0,0.2,0,0.3c0,0.1,0,0.2,0,0.3s0,0.2,0,0.3
				s-0.1,0.2-0.1,0.3c0,0.1,0,0.2,0,0.3s0.1,0.2,0.1,0.3c0,0.1,0,0.2,0,0.3s0,0.2,0,0.3s0,0.2,0,0.3c0,0.1,0,0.2,0,0.3s0,0.2,0,0.3
				c0,0.1,0,0.2,0,0.3s-0.1,0.2-0.1,0.3s0,0.2,0,0.3c0,0.1,0,0.2,0,0.3s-0.1,0.2-0.1,0.3c0,0.1,0,0.2,0,0.3s0,0.2,0,0.3s0,0.2,0,0.3
				c0,0.1,0,0.2,0,0.3s-0.1,0.2-0.1,0.3c0,0.1,0.1,0.2,0.1,0.3s0,0.2,0,0.3s-0.1,0.2-0.1,0.3c0,0.1-0.1,0.2-0.1,0.3s0.1,0.2,0.1,0.3
				c0,0.1-0.1,0.2-0.1,0.2s0,0.2,0,0.3c0,0.1-0.1,0.2-0.1,0.2s0.1,0.2,0.1,0.3c0,0.1,0,0.2,0,0.3s-0.1-1.2-0.1-1.1s-0.1,0.2-0.1,0.2
				s0,0.2,0,0.3s0,0.2,0,0.3c0,0.1,0,0.2,0,0.3s-0.1,0.2-0.1,0.2l-0.1,0.2c0,0,0,0.2,0,0.3c0,0.1,0,0.2,0,0.3s0.1,0.2,0,0.3
				s-0.1,0.2-0.1,0.2s-0.1,0.1-0.2,0.2c-0.1,0.1,0,0.2,0,0.3s-0.1,0.1-0.1,0.2s0,0.2,0,0.3s0,0.2,0,0.3s-0.1,0.2-0.1,0.2
				s-0.1,0.1-0.2,0.2c-0.1,0.1,0,0.2-0.1,0.2s0,0.2,0,0.3c0,0.1-0.2,0.1-0.2,0.2s0,0.2,0,0.3c0,0.1,0.1,0.2,0,0.3
				c-0.1,0.1-0.2,0.1-0.2,0.2s0,0.2,0,0.3s-0.1,0.2-0.1,0.2s0,0.2,0,0.3s-0.2,0.1-0.2,0.2s0,0.2,0,0.3s-0.1,0.2-0.1,0.2
				s-0.2,0.1-0.2,0.2s-0.1,0.2-0.1,0.2s0,0.2-0.1,0.2s0,0.2-0.1,0.3c-0.1,0.1,0,0.2,0,0.3s-0.1,0.1-0.2,0.2
				c-0.1,0.1-0.1,0.1-0.2,0.2c-0.1,0.1-0.1,0.2-0.1,0.2s0,0.2,0,0.3s-0.1,0.1-0.1,0.2s-0.2,0.1-0.2,0.2s-0.1,0.1-0.1,0.2
				s0,0.2-0.1,0.3c-0.1,0.1-0.2,0.1-0.2,0.2s0,0.2,0,0.3c0,0.1-0.2,0-0.3,0.1s0.1,0.2,0,0.3c-0.1,0.1-0.2,0.1-0.2,0.2
				s-0.1,0.1-0.2,0.2s-0.1,0.2-0.1,0.2s0,0.2-0.1,0.2s-0.2,0.1-0.2,0.1l-0.1,0.2c0,0-0.1,0.1-0.1,0.2s0,0.2-0.1,0.3
				c-0.1,0.1-0.3,0-0.3,0.1s0,0.2-0.1,0.3c-0.1,0.1-0.2,0.1-0.2,0.2s-0.1,0.1-0.2,0.2c-0.1,0.1,0,0.2-0.1,0.3s-0.2,0.1-0.3,0.1
				s-0.2,0.1-0.3,0.1s-0.1,0.2-0.1,0.2l-0.2,0.1c0,0-0.1,0.2-0.2,0.2c-0.1,0-0.2,0.1-0.2,0.2s-0.1,0.2-0.1,0.3s-0.2,0.1-0.2,0.1
				s-0.2,0-0.3,0.1s0,0.3-0.1,0.3s-0.2,0-0.3,0.1s0,0.3-0.1,0.3s-0.2,0-0.3,0.1s-0.1,0.2-0.2,0.2c-0.1,0-0.2,0.1-0.2,0.1
				s-0.1,0.1-0.2,0.2c-0.1,0.1-0.2,0-0.3,0s-0.1,0.1-0.2,0.2c-0.1,0.1-0.2,0-0.3,0.1s-0.1,0.2-0.2,0.2c-0.1,0-0.2,0-0.3,0
				s-0.1,0.3-0.1,0.3s-0.2,0-0.3,0.1s-0.2,0.1-0.2,0.1s-0.1,0.2-0.2,0.2s0,0.2-0.1,0.2s-0.2,0-0.3,0.1s-0.2,0-0.3,0
				s-0.2,0.1-0.2,0.1s-0.1,0.2-0.2,0.2c-0.1,0-0.2,0-0.3,0s-0.1,0.1-0.2,0.2c-0.1,0.1-0.1,0.1-0.2,0.1c-0.1,0-0.2,0.1-0.2,0.1
				s-0.2-0.1-0.3-0.1s-0.1,0.1-0.2,0.2s-0.1,0.1-0.2,0.1s-0.2,0-0.3,0s-0.1,0.2-0.2,0.2s-0.2,0-0.3,0.1s-0.2,0-0.3,0s-0.2,0-0.3,0
				s-0.2,0-0.3,0s-0.1,0.1-0.3,0.2s-0.1,0.1-0.3,0.1s-0.2-0.1-0.3-0.1s-0.1,0-0.3,0s-0.1,0.1-0.3,0.1s-0.1,0-0.3,0.1
				C-190.8-1637.9-190.8-1637.9-190.9-1638"/>
		</g>
		<g transform="translate(66.725 1.285)">
			<path class="st8" d="M-196.7-1642.6c-0.1,0-0.2,0-0.3,0s-0.1,0-0.2,0c-0.1,0-0.2,0-0.3,0s-0.2-0.1-0.2-0.1s-0.2,0-0.3,0
				s-0.2,0-0.3,0s-0.1,0-0.2,0s-0.2,0-0.3,0s-0.1,0.1-0.2,0.1s-0.2-0.1-0.2-0.1s-0.2-0.1-0.3-0.1s-0.2,0-0.3,0s-0.2,0.1-0.3,0.1
				s-0.2-0.1-0.2-0.1s-0.2,0-0.2-0.1s-0.2,0-0.3,0s-0.2-0.1-0.2-0.1s-0.2,0-0.3,0s-0.2,0.1-0.3,0s-0.2,0-0.3,0s-0.1-0.1-0.2-0.2
				c-0.1-0.1-0.2-0.1-0.2-0.1s-0.1,0.1-0.2,0c-0.1-0.1-0.1-0.1-0.2-0.1c-0.1,0-0.1-0.1-0.2-0.1c0-0.1,0-0.1,0.1-0.2s0-0.1,0-0.3
				c0-0.2,0-0.1,0.1-0.2s0.1-0.1,0.2-0.2c0.1-0.1,0-0.1,0-0.3c0-0.2,0-0.1,0.1-0.3c0.1-0.2,0.1-0.1,0.1-0.2s0-0.1,0-0.3
				c0-0.2,0.1-0.1,0.1-0.2s0-0.1,0.1-0.2s-0.1-0.1,0-0.3c0.1-0.2,0.1-0.1,0.1-0.2s0.1-0.1,0.1-0.2s0.1-0.1,0.1-0.2s0-0.1,0-0.2
				c0.1,0,0.1,0,0.2,0c0.1,0,0.1,0.1,0.2,0.1c0.1,0,0.2-0.1,0.3-0.1s0.1,0.2,0.2,0.2c0.1,0,0.2-0.1,0.3-0.1s0.2,0.1,0.2,0.1
				s0.2,0,0.3,0s0.2,0.1,0.2,0.1s0.2,0,0.3,0s0.1,0.1,0.2,0.1c0.1,0,0.2-0.1,0.3-0.1s0.2,0,0.3,0s0.2,0.1,0.2,0.1s0.2,0,0.3,0
				s0.2-0.1,0.3-0.1s0.2,0,0.3,0s0.2,0.1,0.3,0.1s0,0,0,0s0.2,0.2,0.3,0.2s0.2,0,0.3,0s0.2,0,0.3,0s0.2,0.1,0.3,0.1s0.2-0.1,0.3-0.1
				s0.2,0,0.3,0s0.2,0.1,0.3,0.1s0.2-0.1,0.3-0.1s-0.1-0.2,0-0.2s0.2,0,0.3,0s0.2,0.1,0.3,0s0,0,0.1,0s0.2-0.1,0.2-0.1s0.2,0,0.3,0
				s0.2,0,0.3,0s0.2,0.1,0.3,0s0.2-0.1,0.2-0.1s0.1-0.1,0.2-0.1c0.1,0,0.2,0,0.3,0s0.2-0.1,0.2-0.1s0.2,0,0.2-0.1s0.2,0,0.2-0.1
				s0.2,0,0.3,0s0.2-0.1,0.2-0.1s0.2,0,0.3,0s0.2,0,0.2-0.1s0.1-0.2,0.2-0.2c0.1,0,0.2,0.1,0.3,0s0.1-0.1,0.2-0.2
				c0.1-0.1,0.2,0,0.3,0s0.2,0,0.2-0.1s0.2,0,0.2-0.1s0.1-0.2,0.2-0.2c0.1,0,0.2-0.1,0.2-0.1s0.2,0,0.3,0s0.1-0.1,0.2-0.1
				c0.1,0,0.1-0.1,0.2-0.2c0.1-0.1,0.2,0,0.2-0.1s0.2-0.1,0.2-0.1s0.1-0.2,0.2-0.2c0.1,0,0.2,0,0.3,0s0.1-0.2,0.2-0.2
				c0.1,0,0.2,0,0.3-0.1s0.1-0.2,0.2-0.2c0.1,0,0.3-0.1,0.4-0.1c0.1,0,0.1-0.1,0.2-0.2c0.1-0.1,0.2,0,0.3-0.1s0.1-0.2,0.2-0.2
				s0.2,0,0.3-0.1s0.1-0.1,0.2-0.2c0.1-0.1,0.1-0.1,0.2-0.2l0.2-0.2c0.1-0.1,0.2-0.1,0.2-0.1s0.1-0.1,0.2-0.2s0.1-0.1,0.2-0.2
				c0.1-0.1,0.2,0,0.3-0.1s0-0.2,0.1-0.3c0.1-0.1,0.1-0.1,0.2-0.2c0.1-0.1,0.2-0.1,0.2-0.1s0-0.2,0.1-0.3c0.1-0.1,0.1-0.1,0.2-0.2
				s0.1-0.1,0.2-0.2c0.1-0.1,0.1-0.2,0.1-0.2s0.2,0,0.3-0.1s0.1-0.2,0.1-0.2l0.1-0.2l0.2-0.1l0.1-0.2c0,0,0.2-0.1,0.2-0.2
				s0.1-0.1,0.1-0.2s0.1-0.2,0.1-0.2l0.1-0.2c0,0,0.1-0.1,0.2-0.2c0.1-0.1,0-0.2,0.1-0.3c0.1-0.1,0.1-0.1,0.2-0.2
				c0.1-0.1,0.2-0.1,0.2-0.2s0.1-0.2,0.1-0.2s0.1-0.1,0.1-0.2s0-0.2,0-0.3s0.2-0.1,0.2-0.2s0.1-0.2,0.1-0.2l0.1-0.2
				c0,0,0-0.2,0.1-0.2s0-0.2,0.1-0.3c0.1-0.1,0.2-0.1,0.2-0.2s0-0.2,0-0.3c0-0.1,0.1-0.1,0.1-0.2s0.1-0.2,0.1-0.2s0-0.2,0.1-0.3
				c0.1-0.1,0-0.1,0-0.2s0-0.2,0.1-0.2s0.1-0.1,0.2-0.2s-0.1-0.2,0-0.3c0.1-0.1,0.1-0.1,0.2-0.2c0.1-0.1,0-0.2,0-0.3
				c0-0.1,0.1-0.1,0.1-0.2s-0.1-0.2,0-0.3c0.1-0.1,0.1-0.1,0.1-0.2s0-0.2,0-0.3c0-0.1,0.1-0.1,0.2-0.2c0.1-0.1-0.1-0.2-0.1-0.3
				c0-0.1,0.2-0.1,0.2-0.2s-0.1-0.2,0-0.3c0.1-0.1,0.1-0.2,0.1-0.2l0.1-0.2c0,0-0.3-0.3-0.3-0.4s0.1-0.1,0.1-0.2
				c0.1,0,0.1,0.1,0.2,0.1c0.1,0,0.1,0,0.3,0s0.1-0.1,0.3,0s0.1,0.1,0.2,0.1s0.2,0,0.3,0s0.1,0,0.3,0s0.1,0,0.3,0s0.1,0,0.3,0
				s0.1,0.1,0.2,0.1c0.1,0,0.1,0,0.3,0.1s0.1,0,0.3,0s0.1,0.1,0.3,0.1s0.1-0.1,0.3,0s0.1,0,0.3,0.1s0.2-0.1,0.3,0c0,0.1,0,0.2,0,0.3
				c0,0.1-0.1,0.2-0.1,0.2s0,0.2-0.1,0.3c-0.1,0.1,0,0.2,0,0.3s-0.1,0.2-0.1,0.2s0,0.2,0,0.3s0,0.2,0,0.3c0,0.1,0,0.2,0,0.3
				s-0.1,0.2-0.1,0.2s0,0.2,0,0.3s-0.1,0.2-0.1,0.2s-0.1,0.2-0.1,0.3s0,0.2,0,0.3s-0.1,0.1-0.1,0.2s0,0.2,0,0.3s-0.2,0.1-0.2,0.2
				s-0.1,0.2-0.1,0.2s0.1,0.2,0,0.3c-0.1,0.1-0.1,0.2-0.1,0.2l-0.1,0.2c0,0-0.1,0.1-0.1,0.2s0,0.2,0,0.3s-0.1,0.2-0.1,0.2
				s0,0.2-0.1,0.3c-0.1,0.1-0.1,0.2-0.1,0.2s-0.2,0.1-0.2,0.2s0,0.2,0,0.3c0,0.1-0.1,0.1-0.2,0.2c-0.1,0.1,0.1,0.2,0,0.3
				c-0.1,0.1-0.2,0.1-0.2,0.2s-0.1,0.1-0.1,0.2s0,0.2-0.1,0.3c-0.1,0.1-0.1,0.2-0.1,0.2l-0.1,0.2c0,0-0.2,0.1-0.2,0.2s0,0.2-0.1,0.3
				c-0.1,0.1-0.1,0.1-0.2,0.2c-0.1,0.1,0,0.2-0.1,0.3c-0.1,0.1-0.1,0.2-0.1,0.2s-0.1,0.1-0.2,0.2c-0.1,0.1-0.1,0.1-0.2,0.2
				c-0.1,0.1,0,0.2-0.1,0.3c-0.1,0.1-0.4-0.1-0.4,0s-0.2,0.1-0.2,0.2s-0.1,0.2-0.1,0.2l-0.1,0.2c0,0-0.2,0.1-0.2,0.2
				s-0.1,0.2-0.1,0.2s-0.3,0.1-0.3,0.2s-0.1,0.1-0.2,0.2c-0.1,0.1-0.1,0.1-0.2,0.2c-0.1,0.1,0,0.2-0.1,0.3s-0.2,0.1-0.3,0.1
				s-0.1,0.1-0.2,0.2s0,0.2-0.1,0.3c-0.1,0.1-0.2,0.1-0.2,0.1l-0.1,0.2c0,0-0.2,0-0.3,0.1s-0.1,0.2-0.1,0.2s-0.2,0-0.3,0.1
				s-0.1,0.2-0.1,0.2l-0.2,0.1c0,0-0.1,0.1-0.2,0.2c-0.1,0.1-0.1,0.2-0.1,0.3c0,0.1-0.2,0-0.3,0.1s0,0.2-0.1,0.2s-0.2,0-0.3,0.1
				s-0.1,0.2-0.1,0.3s-0.2,0.1-0.2,0.1s-0.1,0.1-0.2,0.2c-0.1,0.1-0.2,0-0.3,0.1s-0.1,0.1-0.2,0.2c-0.1,0.1-0.2,0-0.3,0.1
				s-0.1,0.2-0.2,0.2c-0.1,0-0.1,0-0.1,0.1s-0.1,0.1-0.2,0.1c-0.1,0-0.1,0.2-0.2,0.2c-0.1,0-0.1,0.1-0.2,0.1c-0.1,0-0.2,0-0.2,0.1
				s-0.2,0-0.3,0.1s-0.1,0.2-0.2,0.2s-0.1,0.1-0.2,0.1c-0.1,0-0.1,0.1-0.2,0.1c-0.1,0-0.2,0-0.3,0.1s-0.1,0.1-0.2,0.1
				c-0.1,0-0.2,0-0.3,0s-0.1,0.1-0.2,0.1c-0.1,0-0.2,0.3-0.3,0.3s-0.2,0.1-0.2,0.1l-0.2,0.1l-0.2,0.1l-0.2,0.1l-0.2,0.1l-0.2,0.1
				c0,0-0.2,0-0.3,0s-0.1,0.1-0.2,0.1c-0.1,0-0.2,0.1-0.2,0.1s-0.2,0-0.3,0s-0.3,0.2-0.4,0.2c-0.1,0-0.2,0.1-0.2,0.1s-0.2,0-0.3,0.1
				s-0.2,0-0.3,0s-0.2,0-0.3,0s-0.1,0.1-0.2,0.1c-0.1,0-0.2,0-0.3,0s-0.2,0-0.3,0s-0.2,0-0.3,0s-0.1,0.1-0.2,0.2s-0.2,0-0.3,0
				s-0.2,0-0.3,0.1s-0.2,0-0.3,0s-0.2,0.1-0.2,0.1s-0.2,0-0.3,0.1s-0.2,0-0.3,0s-0.2,0-0.3,0s-0.2,0-0.3,0s-0.2,0-0.3,0.1
				s0.3,0.1,0.2,0.1s-0.2,0-0.3,0s-0.2,0-0.3,0s-0.2,0-0.3,0s-0.2,0-0.3,0s-0.2,0.1-0.3,0.1s0-0.1-0.1-0.1
				S-196.6-1642.6-196.7-1642.6"/>
			<path class="st8" d="M-190.9-1667.3c0,0.1,0,0.2,0,0.3s0,0.2,0,0.3s0,0.2,0,0.3c0,0.1,0,0.2-0.1,0.2s0,0.2-0.1,0.2
				s-0.1,0.1-0.1,0.2s-0.1,0.1-0.2,0.2c-0.1,0.1-0.1,0.1-0.1,0.2s-0.1,0.2-0.1,0.2s-0.1,0.1-0.2,0.2c-0.1,0.1-0.1,0.1-0.2,0.2
				c-0.1,0.1-0.1,0.1-0.2,0.1c-0.1,0-0.2,0.1-0.3,0.2c-0.1,0-0.1,0.1-0.2,0.1c-0.1,0-0.2,0-0.2,0.1s-0.1,0.1-0.2,0.1
				c-0.1,0-0.2,0-0.3,0s-0.2,0.1-0.3,0.1s-0.2,0-0.3,0s-0.2,0-0.3,0s-0.2,0-0.3,0s-0.2,0-0.3,0s-0.2,0-0.3,0s-0.2,0-0.2-0.1
				s0-0.1,0-0.1c-0.1,0-0.2-0.1-0.3-0.1s-0.1-0.1-0.2-0.1c-0.1,0-0.1-0.1-0.2-0.2c-0.1-0.1-0.1-0.1-0.2-0.1c-0.1,0-0.1-0.2-0.2-0.2
				s-0.1-0.2-0.1-0.2s-0.2-0.1-0.2-0.2s-0.1-0.2-0.2-0.2s-0.1-0.2-0.1-0.2s-0.1-0.2-0.1-0.3s-0.1-0.1-0.1-0.2s0-0.2,0-0.3
				s0-0.2,0-0.3c0-0.1-0.1-0.1-0.1-0.2s0-0.2,0-0.3c0-0.1,0-0.2,0-0.3s0-0.2,0-0.3s0-0.2,0.1-0.3c0.1-0.1,0-0.2,0.1-0.2s0,0,0-0.1
				s0-0.2,0.1-0.2s0.1-0.1,0.1-0.2s0.1-0.2,0.1-0.2s0.1-0.1,0.2-0.2c0.1-0.1,0.2-0.2,0.2-0.3s0.1-0.1,0.2-0.2
				c0.1-0.1,0.1-0.1,0.2-0.2c0.1-0.1,0.1-0.1,0.2-0.2c0.1-0.1,0.2-0.1,0.2-0.1s0.2,0.1,0.3,0.1s0.2-0.1,0.2-0.1s0.2,0,0.3-0.1
				s0.1-0.1,0.2-0.1c0.1,0,0.2,0,0.3,0s0.2,0,0.3,0s0.2,0,0.3,0s0.2,0,0.3,0s0.2,0,0.3,0.1s0.2,0,0.2,0.1c0.1,0,0.2,0.1,0.2,0.1
				c0.1,0,0.2,0.1,0.2,0.1s0.1,0,0.1,0.1s0.2,0.1,0.2,0.1s0.1,0.1,0.2,0.2c0.1,0.1,0.1,0.1,0.2,0.2c0.1,0.1,0.1,0.1,0.2,0.2
				c0.1,0.1,0.1,0.1,0.2,0.2s0.1,0.2,0.1,0.2s0.1,0.1,0.1,0.2s0.1,0.2,0.1,0.2s0.1,0.1,0.1,0.2s0.1,0.2,0.1,0.2s0,0.2,0,0.3
				c0,0.1,0,0.2,0,0.3S-190.9-1667.4-190.9-1667.3"/>
			<path class="st8" d="M-197-1658.2c0,0.1,0,0.2,0,0.3c0,0.1,0,0.2,0,0.3s0,0.2,0,0.3c0,0.1,0,0.2-0.1,0.2s0,0.2-0.1,0.2
				s-0.1,0.2-0.1,0.2s-0.1,0.1-0.1,0.2s-0.1,0.2-0.2,0.3c-0.1,0.1-0.1,0.1-0.2,0.2c-0.1,0.1-0.1,0.1-0.2,0.2
				c-0.1,0.1-0.1,0.1-0.2,0.2c-0.1,0.1,0,0-0.1,0.1s-0.1,0.1-0.2,0.1s-0.2,0.1-0.2,0.1l-0.2,0.1c0,0-0.2,0-0.2,0.1
				c-0.1,0-0.2,0.1-0.2,0.1c-0.1,0-0.2,0-0.3,0s-0.2,0.1-0.3,0.1s-0.2,0-0.3,0s-0.2,0-0.3,0s-0.2,0-0.3,0s-0.2-0.1-0.2-0.1
				s-0.2,0-0.3,0s-0.1-0.1-0.2-0.2s-0.2,0-0.2-0.1s-0.1-0.1-0.2-0.1c-0.1,0-0.2-0.1-0.2-0.1s-0.2-0.1-0.2-0.2s-0.2-0.1-0.2-0.2
				s-0.1-0.1-0.2-0.2c-0.1-0.1-0.1-0.1-0.2-0.2c-0.1-0.1-0.1-0.1-0.1-0.2s-0.1-0.1-0.1-0.2s-0.1-0.1-0.1-0.2s-0.1-0.2-0.1-0.2
				s0-0.2-0.1-0.2s0-0.2,0-0.3s0-0.2,0-0.3c0-0.1,0-0.2,0-0.3s0-0.2,0-0.3s0-0.2,0-0.3c0-0.1,0.1-0.2,0.1-0.2s0-0.2,0.1-0.3
				c0.1-0.1,0.1-0.2,0.1-0.2s-0.1-0.1,0-0.1s0.1-0.2,0.1-0.2s0.1-0.1,0.1-0.2s0.1-0.1,0.2-0.2c0.1-0.1,0.1-0.1,0.2-0.2
				c0.1-0.1,0.1-0.2,0.2-0.2c0.1,0,0.1-0.1,0.2-0.2c0.1-0.1,0.1-0.1,0.2-0.1c0.1,0,0.1-0.1,0.2-0.1c0.1,0,0.1-0.1,0.2-0.2
				s0.2-0.1,0.2-0.1s0.2,0,0.3-0.1s0.2,0,0.2-0.1s0.2,0,0.3,0s0.2,0,0.3,0s0.2,0,0.3,0s0.2,0,0.3,0s0.2,0,0.3,0s0.2,0,0.3,0
				s0.2,0.1,0.2,0.1l0.2,0.1c0,0,0,0.3,0.1,0.4s0.2,0.1,0.2,0.1s0.1,0.1,0.2,0.2c0.1,0.1,0.1,0.1,0.2,0.2c0.1,0.1,0.1,0.1,0.2,0.2
				c0.1,0.1,0.1,0.1,0.2,0.2s0.1,0.1,0.1,0.2s0.1,0.1,0.1,0.2s0.1,0.2,0.1,0.2l0.1,0.2l0.1,0.2c0,0,0,0.2,0,0.3s0,0.2,0,0.3
				C-197-1658.3-197-1658.2-197-1658.2"/>
		</g>
	</g>
</g>
<rect x="287.5" y="570.2" class="st7" width="287" height="109.1"/>
<g transform="translate(1013 1674.617)" class="st0">
	<path class="st9" d="M-175.7-1597l18.4-5.1l4.3-48.5h-22.7V-1597z"/>
	<path class="st10" d="M-203.5-1655.2l5.1,56.7l22.7,6.3l22.8-6.3l5.1-56.7H-203.5z"/>
	<path class="st11" d="M-185.6-1636.6h9.8v-7h-17.4l0.2,1.9l1.7,19.1h15.6v-7h-9.2L-185.6-1636.6z"/>
	<path class="st11" d="M-184-1619.1h-7l1,10.9l14.2,4l0,0v-7.2l0,0l-7.7-2.1L-184-1619.1z"/>
	<path class="st10" d="M-191.6-1670.6v3.5h-3.2v-3.5h-3.5v10.6h3.5v-3.6h3.2v3.5h3.5v-10.5H-191.6z"/>
	<path class="st10" d="M-186.5-1670.6v3.5h3.1v7.1h3.5v-7.1h3.1v-3.5H-186.5z"/>
	<path class="st10" d="M-167-1670.6l-2.3,3.7l-2.2-3.7h-3.7v10.6h3.5v-5.3l2.4,3.8h0.1l2.4-3.8v5.2h3.5v-10.5L-167-1670.6
		L-167-1670.6z"/>
	<path class="st10" d="M-161.5-1670.6v10.6h8.5v-3.5h-5v-7.1H-161.5z"/>
	<path class="st5" d="M-175.7-1622.6h8.6l-0.8,9l-7.8,2.1v7.2l14.3-4l0.1-1.2l1.6-18.1l0.2-1.9h-16.2L-175.7-1622.6L-175.7-1622.6z"
		/>
	<path class="st5" d="M-175.7-1636.7L-175.7-1636.7h16.8l0.1-1.6l0.3-3.5l0.2-1.9h-17.4L-175.7-1636.7L-175.7-1636.7z"/>
</g>
<g transform="translate(1091.44 1674.617)" class="st0">
	<path class="st10" d="M-203.5-1654.9l5.1,57.6l23.1,6.4l23.1-6.4l5.1-57.6H-203.5z"/>
	<path class="st10" d="M-156.6-1601l4.4-49.2h-23.1v54.4L-156.6-1601z"/>
	<path class="st11" d="M-191.7-1628.8l0.6,7.1h15.8v-7.1H-191.7z"/>
	<path class="st11" d="M-193-1643.2l0.6,7.1h17.1v-7.1H-193z"/>
	<path class="st11" d="M-175.3-1610.5L-175.3-1610.5l-7.9-2.1l-0.5-5.6h-7.1l1,11.1l14.5,4l0,0V-1610.5z"/>
	<path class="st10" d="M-190.2-1670.6v10.7h8.6v-3.5h-5v-3.6h5v-3.6H-190.2z"/>
	<path class="st10" d="M-179.9-1670.6v7h5v0.6h-5v3.3h8.6v-7.2h-5v-0.6h5v-3.1L-179.9-1670.6L-179.9-1670.6z"/>
	<path class="st10" d="M-169.7-1670.6v7h5v0.6h-5v3.3h8.6v-7.2h-5v-0.6h5v-3.1L-169.7-1670.6L-169.7-1670.6z"/>
	<path class="st5" d="M-158.9-1628.8l1.3-14.3h-17.7v7.1h10l-0.6,7.2h-9.3v7.1h8.7l-0.9,9.1l-7.9,2.1v7.4l14.5-4l0.1-1.2l1.7-18.6
		L-158.9-1628.8z"/>
</g>
<g transform="translate(1047.968 1777)" class="st0">
	<g class="st1">
		<g>
			<g>
				<g>
					<defs>
						<rect id="SVGID_00000167379371137176958050000013810823324648214706_" x="-203.5" y="-1670.6" width="77.7" height="58.3"/>
					</defs>
					<clipPath id="SVGID_00000067957140193423978550000016719129704460736428_">
						<use xlink:href="#SVGID_00000167379371137176958050000013810823324648214706_"  style="overflow:visible;"/>
					</clipPath>
					<g transform="translate(0 0)" style="clip-path:url(#SVGID_00000067957140193423978550000016719129704460736428_);">
						<path class="st13" d="M-136.6-1637.1c-2.4,0-4.8,0.6-7,1.6c-0.7-1.1-1.2-2.4-1.6-3.6c-0.2-1-0.3-2-0.1-3.1s0.5-2.2,0.9-3.3
							c0-0.1-0.2-0.8-1.7-0.8s-2.9,0.3-3.1,0.7c-0.3,0.8-0.5,1.5-0.7,2.3c-0.3,1.4-3.1,6.5-4.8,9.1c-0.5-0.8-0.9-1.7-1.1-2.7
							c-0.2-1-0.3-2-0.1-3.1s0.5-2.2,0.9-3.3c0-0.1-0.2-0.8-1.7-0.8s-2.9,0.3-3.1,0.7c-0.2,0.4-0.3,1.4-0.7,2.3s-4,9.5-5,11.7
							c-0.5,1.1-1,2-1.3,2.6c0,0,0,0.1-0.1,0.1c-0.3,0.5-0.4,0.8-0.4,0.8l0,0c-0.2,0.4-0.4,0.7-0.6,0.7c-0.2-0.8-0.2-1.6,0-2.4
							c0.6-2.9,1.9-7.5,1.9-7.7c0-0.1,0.3-0.9-0.9-1.3c-0.5-0.3-1.2-0.1-1.6,0.3c-0.1,0-0.2,0.2-0.2,0.2s1.2-5.1-2.4-5.1
							c-2.2,0-5.3,2.5-6.9,4.7c-1,0.5-3,1.6-5.2,2.9c-0.8,0.5-1.7,0.9-2.5,1.4c-0.1-0.1-0.1-0.1-0.2-0.2c-4.3-4.6-12.4-7.9-12-14.2
							c0.4-2.2,1.1-8.2,15.7-15.4c12-5.9,21.5-4.3,23.1-0.6c2.4,5.2-5.1,14.8-17.4,16.2c-4.7,0.5-7.2-1.3-7.8-2
							c-0.7-0.7-0.8-0.8-1-0.6c-0.4,0.2-0.1,0.9,0,1.2c1,1.7,2.6,3,4.5,3.5c2.3,0.7,7.8,1.1,14.5-1.4c7.5-2.9,13.3-10.9,11.6-17.7
							c-1.9-6.9-13.2-9.2-24-5.4c-6.3,2.3-13.3,5.9-18.3,10.6c-5.9,5.5-6.9,10.3-6.5,12.4c1.4,7.1,11.3,11.7,15.3,15.2
							c-0.2,0.1-0.4,0.2-0.5,0.3c-2,1-9.5,4.9-11.4,9.1c-2.1,4.7,0.3,8.1,2,8.5c5.1,1.4,10.3-1.1,13.1-5.3c2.8-4.2,2.5-9.6,1.2-12.1
							c0,0,0-0.1-0.1-0.1c0.5-0.3,1-0.6,1.5-0.9c1-0.6,2-1.2,2.9-1.6c-0.6,1.7-0.9,3.4-1,5.2c-0.2,2.7,0.9,6.1,2.3,7.5
							c0.5,0.4,1.2,0.7,1.9,0.6c1.7,0,2.4-1.4,3.3-3c1-2,1.9-4.4,1.9-4.4s-1.2,6.3,2,6.3c1.1,0,2.3-1.5,2.8-2.2l0,0c0,0,0,0,0.1-0.1
							c0.1-0.2,0.2-0.3,0.2-0.3l0,0c0.5-0.8,1.5-2.6,3-5.6c2-3.9,3.8-8.7,3.8-8.7c0.2,1.1,0.4,2.1,0.8,3.1c0.5,1.2,1,2.5,1.6,3.6
							c-0.5,0.6-0.7,1-0.7,1l0,0c-0.4,0.5-0.8,1-1.2,1.5c-1.3,1.4-2.5,3-3.6,4.6c-0.4,0.6-0.2,1.3,0.3,1.7c0.6,0.3,1.2,0.4,1.9,0.3
							c1-0.1,1.9-0.3,2.9-0.7c0.9-0.3,1.7-0.7,2.5-1.3c1.6-1.1,2.5-2.9,2.4-4.8c-0.1-1.2-0.4-2.3-0.9-3.4c0.1-0.2,0.3-0.4,0.4-0.6
							c1.6-2.4,3-4.8,4.3-7.4c0.2,1.1,0.4,2.1,0.7,3.1c0.4,1.1,0.8,2.1,1.4,3.1c-1.8,1.4-3.2,3.2-4.1,5.4c-0.9,2.6-0.2,3.7,1.1,4
							c0.7,0.1,1.4-0.1,2.1-0.4c0.9-0.3,1.8-0.8,2.6-1.3c1.5-1.1,3-2.7,2.9-4.8c-0.1-1-0.3-1.9-0.7-2.8c2.4-0.9,5-1.2,7.5-0.9
							c6.8,0.8,8.1,5,7.8,6.8c-0.2,1.3-1,2.4-2.1,3c-0.5,0.3-0.6,0.4-0.6,0.6c0.1,0.3,0.3,0.3,0.7,0.2c2.1-0.7,3.5-2.5,3.7-4.7
							C-125.6-1632.6-129.6-1637.1-136.6-1637.1 M-188.7-1619.5c-2.2,2.4-5.4,3.4-6.7,2.6c-1.4-0.8-0.9-4.4,1.9-7
							c1.6-1.5,3.4-2.8,5.3-3.9c0.3-0.2,0.8-0.5,1.4-0.8c0.1-0.1,0.2-0.1,0.2-0.1l0.3-0.2C-185.4-1625.7-186.3-1622-188.7-1619.5
							 M-172.4-1630.6c-0.8,1.9-2.4,6.8-3.4,6.5c-0.9-0.2-1.4-3.9-0.2-7.6c0.6-1.8,1.5-3.4,2.7-4.9c1.2-1.4,2.6-1.8,2.9-1.3
							C-170-1637.1-171.9-1631.8-172.4-1630.6 M-158.9-1624.2c-0.3,0.2-0.6,0.3-0.8,0.2c-0.1-0.1,0.1-0.3,0.1-0.3s1.7-1.8,2.4-2.6
							c0.4-0.5,0.8-1,1.3-1.7v0.2C-155.9-1626.2-158-1624.8-158.9-1624.2 M-148.5-1626.5c-0.2-0.2-0.2-0.7,0.6-2.5
							c0.6-1.1,1.4-2.2,2.3-3c0.1,0.4,0.2,0.9,0.2,1.3C-145.3-1628.8-146.6-1627.1-148.5-1626.5"/>
					</g>
				</g>
			</g>
		</g>
	</g>
</g>
<g transform="translate(1047.303 1843.065)" class="st0">
	<rect x="-203.5" y="-1670.6" class="st5" width="70.9" height="70.9"/>
	<g transform="translate(0 0)" class="st1">
		<g>
			<g>
				<g>
					<g>
						<defs>
							<rect id="SVGID_00000131354980861647785450000011497923951903113648_" x="-203.5" y="-1670.6" width="70.9" height="70.9"/>
						</defs>
						<clipPath id="SVGID_00000145770574688565252690000014682674914279084166_">
							<use xlink:href="#SVGID_00000131354980861647785450000011497923951903113648_"  style="overflow:visible;"/>
						</clipPath>
						<g style="clip-path:url(#SVGID_00000145770574688565252690000014682674914279084166_);">
							<path class="st13" d="M-184.8-1611.3l5.4-3.3c1,1.9,2,3.4,4.3,3.4c2.2,0,3.6-0.9,3.6-4.2v-22.6h6.7v22.8c0,6.9-4,10-10,10
								C-180.2-1605.2-183.3-1608-184.8-1611.3"/>
							<path class="st13" d="M-161.3-1612l5.4-3.1c1.4,2.3,3.3,4,6.6,4c2.8,0,4.5-1.4,4.5-3.3c0-2.3-1.8-3.1-4.9-4.4l-1.6-0.8
								c-4.8-2-8-4.6-8-10c0-5,3.8-8.8,9.8-8.8c4.2,0,7.3,1.5,9.5,5.3l-5.2,3.3c-1.1-2-2.4-2.9-4.3-2.9c-1.6-0.2-3,1-3.2,2.6
								c0,0.1,0,0.2,0,0.3c0,2,1.2,2.8,4.1,4l1.7,0.7c5.7,2.4,8.9,4.9,8.9,10.5c0,6-4.7,9.3-11,9.3
								C-155.3-1605.2-159.3-1608.2-161.3-1612"/>
						</g>
					</g>
				</g>
			</g>
		</g>
	</g>
</g>
<g transform="translate(1067.566 1935.381)" class="st0">
	<g class="st1">
		<g>
			<g>
				<g>
					<defs>
						<rect id="SVGID_00000114785848390595239030000005946085672598912168_" x="-271.5" y="-1674.6" width="70.1" height="15.9"/>
					</defs>
					<clipPath id="SVGID_00000147941162551149816170000006169677013467518655_">
						<use xlink:href="#SVGID_00000114785848390595239030000005946085672598912168_"  style="overflow:visible;"/>
					</clipPath>
					<g transform="translate(-17 -1)" style="clip-path:url(#SVGID_00000147941162551149816170000006169677013467518655_);">
						<path class="st16" d="M-136.4-1669.4h2.9c0,0-5.5,7.4-5.9,8c-0.2,0.2-0.3,0.4-0.5,0.7c-0.2,0.7-0.4,1.4-0.6,2.1h-2.7
							c0.2-0.8,0.3-1.5,0.4-2.3c-0.1-0.7-0.3-1.4-0.6-2.1c-0.2-0.7-0.5-2.1-0.5-2.1h2.8l0.5,1.5L-136.4-1669.4z"/>
						<path class="st16" d="M-141.9-1667.9c0.5,0.3,0.9,2.1,0.9,2.1s-2.8,0-4.4,0h-1.3l-1.7,7.2h-2.5c0,0,1.5-7.7,1.9-9.1
							c0.1-0.5,0.8-0.4,2-0.4h1.9C-143.9-1668.1-142.5-1668.2-141.9-1667.9"/>
						<path class="st16" d="M-153.5-1664.4c0-0.3-0.1-0.7-0.3-1c-0.3-0.4-0.6-0.6-1.3-0.6c-2.2-0.1-2.1,1.5-2.1,1.5L-153.5-1664.4z
							 M-151.1-1666.3c0.1,1.3,0,2.6-0.3,3.8c0,0-3.1-0.1-4.9,0c-0.5,0-1.2-0.1-1.3,0.2c-0.2,0.3,0.1,0.9,0.3,1.1
							c0.3,0.2,0.7,0.3,1.1,0.3c1.4,0.1,2.9,0.1,4.3,0l-0.5,2.2c-2.1,0.1-4.1,0-6.2-0.3c-0.4-0.1-0.8-0.3-1-0.6
							c-0.1-0.1-0.1-0.2-0.2-0.3c-0.1-0.2-0.2-0.3-0.3-0.5c-0.5-1.3,0.1-3.7,0.6-5c0,0.1,0.1,0,0.2-0.2c0.1-0.2,0.2-0.4,0.3-0.5
							s0.1-0.1,0.2-0.2c0.1-0.1,0.1-0.2,0.2-0.3c0.2-0.2,0.4-0.4,0.7-0.6c1.3-0.8,2.8-1.2,4.3-1c0.9,0,1.7,0.4,2.3,1
							C-151.3-1666.8-151.2-1666.5-151.1-1666.3"/>
						<path class="st16" d="M-162.5-1668.1h2.4c0,0-1.3,6.4-2,9.5h-2.8c-1.9,0-3.7,0.2-4.4-1.1c-0.7-1.3,0-3.6,0.3-5.1
							c0.2-1.1,0.7-3.2,0.7-3.2h2.5c0,0-0.7,3.4-1,5.1c-0.1,0.6-0.3,1.2-0.1,1.6s0.5,0.5,1.4,0.5c0.3,0,1.2,0,1.2,0L-162.5-1668.1z"
							/>
						<path class="st16" d="M-173.8-1663.5c0.3-0.9,0.5-1.8,0.6-2.7c-0.1-0.7-0.6-1.4-1.3-1.8c-1.1-0.4-2.4-0.1-3.2,0.8
							c-0.6,0.8-1,1.8-1.1,2.8c-0.3,0.8-0.3,1.7,0,2.5c0.6,1.2,2.4,0.9,4.3,1C-174.3-1661.8-174-1662.6-173.8-1663.5 M-170.4-1667
							c0.3,2-0.8,4.2-1.5,6.1c0.7,0.1,1.4,0,1.4,0c-0.1,0.8-0.3,1.6-0.7,2.3c-0.6,0-2.5,0-3.3,0c-2.6,0-5.1,0.2-6.4-1.1
							c-0.5-0.6-0.8-1.3-1-2.1c-0.1-1.1,0-2.2,0.3-3.2c0.2-0.9,0.5-1.7,1-2.5c1.2-2.3,3.8-3.5,6.3-3.1c0.7,0.1,1.4,0.3,2.1,0.7
							l0.2,0.1C-171.2-1669.1-170.6-1668.1-170.4-1667"/>
						<path class="st16" d="M-182.2-1668.1c-0.2,0.7-0.3,1.6-0.5,2.3h-2.7c0.2-0.8,0.4-1.6,0.6-2.3
							C-183.9-1668.1-183.1-1668.1-182.2-1668.1"/>
						<path class="st16" d="M-185.4-1665.1h2.6c-0.3,1.9-1,4.9-1.5,7c-0.3,1.3-0.5,2.3-1.4,3c-0.1,0.1-0.1,0-0.2,0.1
							c-0.4,0.2-0.9,0.3-1.3,0.4c-0.8,0-1.5,0-2.3,0c0.2-0.8,0.5-1.8,0.7-2.5c2,0.2,2.1-1.7,2.5-3.5
							C-186.3-1661.8-185.6-1664.7-185.4-1665.1"/>
						<path class="st17" d="M-191.4-1660.2l-0.1,0.1c-0.9,1.9-2.9,3.1-5,3c-1,0-2-0.2-2.9-0.6c-1.5-0.7-2.7-1.8-3.4-3.2
							c-1.2-2.1-0.9-4.8,0.9-6.5l-0.2,0.4l-0.1,0.2c-1.5,4.6,3.1,8.6,7.5,8.1C-193.5-1658.9-192.3-1659.4-191.4-1660.2"/>
						<path class="st17" d="M-194.1-1662.2c1.1,0,2.2-0.5,3-1.2c-0.7,1.5-2.4,2.5-4.7,2.2c-2.1-0.4-3.7-2.1-4-4.2
							c-0.2-1.2,0.3-2.4,1.1-3.3c-0.2,0.4-0.3,0.8-0.4,1.2c-0.2,2.8,2,5.2,4.7,5.3C-194.3-1662.2-194.2-1662.2-194.1-1662.2"/>
						<path class="st17" d="M-191.3-1666c-0.4,0.6-1,1-1.6,1.2c-1.3,0.4-2.7-0.2-3.4-1.4c-0.1-0.2-0.2-0.4-0.3-0.6
							c-0.3-0.9-0.1-1.8,0.6-2.5c-0.2,0.5-0.3,1.1-0.2,1.7c0.1,0.4,0.3,0.7,0.5,1c0.3,0.4,0.6,0.7,1,0.9c0.2,0.1,0.4,0.2,0.6,0.2
							C-193.1-1665.1-192.1-1665.3-191.3-1666"/>
					</g>
				</g>
			</g>
		</g>
	</g>
</g>
<g transform="translate(1016.564 1963.749)" class="st0">
	<g class="st1">
		<g>
			<g>
				<g>
					<defs>
						<rect id="SVGID_00000006683145365115423150000000539111765841735826_" x="-203.5" y="-1670.6" width="50" height="50"/>
					</defs>
					<clipPath id="SVGID_00000080177358554535538640000000231030688631748798_">
						<use xlink:href="#SVGID_00000006683145365115423150000000539111765841735826_"  style="overflow:visible;"/>
					</clipPath>
					<g transform="translate(0 0)" style="clip-path:url(#SVGID_00000080177358554535538640000000231030688631748798_);">
						<path class="st13" d="M-199.9-1645.6c0,8.2,4.7,15.7,12.1,19.3l-10.2-28C-199.3-1651.6-199.9-1648.6-199.9-1645.6
							 M-164-1646.7c0-2.1-0.6-4.1-1.8-5.9c-1.1-1.8-2.1-3.3-2.1-5c-0.1-2,1.6-3.7,3.6-3.8c0.1,0,0.2,0,0.3,0
							c-8.7-8-22.3-7.4-30.3,1.3c-0.8,0.8-1.5,1.7-2.1,2.7c0.5,0,1,0,1.4,0c2.2,0,5.7-0.3,5.7-0.3c0.5,0,0.9,0.3,1,0.8
							c0,0.5-0.3,0.9-0.8,1l0,0c0,0-1.2,0.1-2.5,0.2l7.8,23.2l4.7-14.1l-3.4-9.1c-1.2-0.1-2.2-0.2-2.2-0.2c-0.5,0-0.9-0.5-0.8-1
							s0.5-0.9,1-0.8c0,0,3.5,0.3,5.6,0.3c2.2,0,5.7-0.3,5.7-0.3c0.5,0,0.9,0.3,1,0.8c0,0.5-0.3,0.9-0.8,1c0,0-1.2,0.1-2.5,0.2
							l7.7,23.1l2.1-7.1C-164.7-1642.7-164-1644.8-164-1646.7 M-178.1-1643.7l-6.4,18.7c4.3,1.3,8.9,1.2,13.2-0.3
							c-0.1-0.2-0.2-0.3-0.2-0.4L-178.1-1643.7z M-159.7-1655.9c0.1,0.7,0.1,1.5,0.1,2.2c0,2.6-0.6,5.3-1.6,7.7l-6.6,18.9
							C-157.7-1632.9-154.1-1645.7-159.7-1655.9 M-178.5-1670.6c-13.8,0-25,11.2-25,25s11.2,25,25,25s25-11.2,25-25
							S-164.7-1670.6-178.5-1670.6 M-178.5-1621.7c-13.2,0-23.9-10.7-23.9-23.9s10.7-23.9,23.9-23.9s23.9,10.7,23.9,23.8l0,0
							C-154.7-1632.4-165.3-1621.8-178.5-1621.7"/>
					</g>
				</g>
			</g>
		</g>
	</g>
</g>
<g transform="translate(1104 1956.887)" class="st0">
	<g class="st1">
		<g>
			<g>
				<g>
					<defs>
						<rect id="SVGID_00000018934096169547132610000003950591204297430146_" x="-203.5" y="-1670.6" width="50" height="56.9"/>
					</defs>
					<clipPath id="SVGID_00000067194405715722752000000016584402680644945290_">
						<use xlink:href="#SVGID_00000018934096169547132610000003950591204297430146_"  style="overflow:visible;"/>
					</clipPath>
					<g transform="translate(0 0)" style="clip-path:url(#SVGID_00000067194405715722752000000016584402680644945290_);">
						<path class="st13" d="M-159.7-1659.5c0-0.3-0.2-0.4-0.5-0.5c-0.2,0-4.6-0.3-4.6-0.3s-3-3-3.4-3.3c-0.4-0.2-0.8-0.3-1.2-0.2
							c0,0-0.7,0.2-1.7,0.5c-1-2.9-2.8-5.6-6-5.6c-0.1,0-0.2,0-0.3,0c-0.7-1-1.8-1.6-3-1.7c-7.3,0-10.8,9.2-11.9,13.8
							c-2.8,0.9-4.9,1.5-5.1,1.6c-1.6,0.5-1.6,0.5-1.8,2c-0.1,1.2-4.3,33.4-4.3,33.4l32.4,6.1l17.6-3.8
							C-153.5-1617.5-159.7-1659.2-159.7-1659.5 M-172.9-1662.8l-2.7,0.9c0-0.2,0-0.4,0-0.6c0-1.5-0.2-3-0.7-4.4
							C-174.7-1666.7-173.6-1664.9-172.9-1662.8 M-178.3-1666.6c0.6,1.6,0.8,3.3,0.8,5c0,0.1,0,0.2,0,0.3l-5.7,1.7
							C-182.1-1663.8-180.1-1665.8-178.3-1666.6 M-180.5-1668.6c0.3,0,0.7,0.1,0.9,0.3c-2.4,1.1-4.9,3.9-5.9,9.5l-4.5,1.4
							C-188.7-1661.7-185.7-1668.6-180.5-1668.6"/>
						<path class="st20" d="M-160.2-1660c-0.2,0-4.6-0.3-4.6-0.3s-3-3-3.4-3.3c-0.1-0.1-0.3-0.2-0.5-0.2l-2.4,50.2l17.6-3.9
							c0,0-6.2-41.7-6.2-42C-159.7-1659.8-160-1660-160.2-1660"/>
						<path class="st21" d="M-177-1650.3l-2.2,6.4c-1.3-0.6-2.8-1-4.2-1c-3.4,0-3.6,2.1-3.6,2.7c0,2.9,7.7,4.1,7.7,11
							c0,5.4-3.4,8.9-8.1,8.9c-3.2,0.1-6.2-1.2-8.4-3.5l1.5-4.9c0,0,2.9,2.5,5.4,2.5c1.2,0.1,2.2-0.9,2.3-2.1v-0.1
							c0-3.8-6.3-4-6.3-10.3c0-5.3,3.8-10.4,11.5-10.4C-179.9-1651.2-178.4-1650.9-177-1650.3"/>
					</g>
				</g>
			</g>
		</g>
	</g>
</g>
<g transform="translate(1104 2039.479)" class="st0">
	<g class="st1">
		<g>
			<g>
				<g>
					<defs>
						<rect id="SVGID_00000118393886089411396650000011296121453410974871_" x="-203.5" y="-1670.6" width="50" height="39"/>
					</defs>
					<clipPath id="SVGID_00000031898767261672658960000010888313014093914811_">
						<use xlink:href="#SVGID_00000118393886089411396650000011296121453410974871_"  style="overflow:visible;"/>
					</clipPath>
					<g transform="translate(0 0)" style="clip-path:url(#SVGID_00000031898767261672658960000010888313014093914811_);">
						<path class="st17" d="M-203.5-1647.2c0,4.3,11.2,7.8,25,7.8v7.8c-13.8,0-25-3.5-25-7.8V-1647.2z M-153.5-1647.2v7.8
							c0,1.8-2,3.5-5.5,4.9l-19.5-4.9v-7.8l19.6,4.9C-155.5-1643.7-153.5-1645.3-153.5-1647.2 M-178.5-1670.6c13.8,0,25,3.5,25,7.8
							v7.8c0,1.8-2,3.5-5.4,4.9l-19.6-4.9v7.8c-13.8,0-25-3.5-25-7.8v-7.8C-203.5-1667.1-192.3-1670.6-178.5-1670.6"/>
					</g>
				</g>
			</g>
		</g>
	</g>
</g>
<g transform="translate(1068.564 2092.871)" class="st0">
	<g class="st1">
		<g>
			<g>
				<g>
					<defs>
						<rect id="SVGID_00000145059211355555747580000011893216870986248077_" x="-203.5" y="-1670.6" width="50" height="49.1"/>
					</defs>
					<clipPath id="SVGID_00000052101351037895889060000014384147082532946075_">
						<use xlink:href="#SVGID_00000145059211355555747580000011893216870986248077_"  style="overflow:visible;"/>
					</clipPath>
					<g transform="translate(0 0)" style="clip-path:url(#SVGID_00000052101351037895889060000014384147082532946075_);">
						<path class="st13" d="M-157.4-1632.6c-2.2-0.2-4.5,0.2-6.6,1c-0.5,0.2-1.3,0.2-1.4,0.8c0.3,0.3,0.3,0.7,0.5,1.1
							c0.5,0.8,1.1,1.5,1.8,2.1c0.7,0.5,1.4,1.1,2.2,1.6c1.3,0.8,2.8,1.3,4.1,2.1c0.7,0.5,1.5,1.1,2.2,1.6c0.4,0.3,0.6,0.7,1.1,0.9
							v-0.2c-0.2-0.3-0.3-0.7-0.5-1.1c-0.3-0.3-0.7-0.6-1-1c-1-1.3-2.2-2.5-3.5-3.4c-1.1-0.7-3.5-1.8-3.9-3l-0.1-0.1
							c0.8-0.1,1.6-0.3,2.3-0.5c1.2-0.3,2.2-0.2,3.4-0.5c0.5-0.1,1.1-0.3,1.6-0.5v-0.3c-0.6-0.6-1.1-1.4-1.7-2
							c-1.8-1.6-3.6-3-5.6-4.3c-1.1-0.7-2.4-1.1-3.5-1.7c-0.4-0.2-1.1-0.3-1.3-0.6c-0.6-0.8-1-1.7-1.4-2.6c-1-1.9-1.9-3.9-2.8-5.9
							c-0.5-1.3-1.1-2.6-1.7-3.9c-3.2-5.4-7.8-9.8-13.3-12.8c-1.4-0.7-2.8-1.1-4.3-1.4c-0.9,0-1.7-0.1-2.6-0.1
							c-0.5-0.3-1-0.7-1.5-1.2c-2-1.2-7-3.9-8.4-0.4c-0.9,2.3,1.4,4.4,2.2,5.6c0.6,0.7,1.2,1.6,1.7,2.5c0.2,0.6,0.3,1.2,0.5,1.8
							c0.5,1.6,1.1,3.1,1.8,4.6c0.4,0.7,0.8,1.4,1.3,2.1c0.3,0.4,0.7,0.5,0.9,1.2c-0.4,0.8-0.6,1.7-0.8,2.5c-1.2,3.8-0.7,8.6,1,11.4
							c0.5,0.8,1.8,2.7,3.6,2c1.5-0.6,1.2-2.5,1.6-4.2c0.1-0.4,0-0.7,0.2-1v0.1c0.5,1,1,1.9,1.4,2.8c1.2,1.8,2.7,3.3,4.4,4.6
							c0.8,0.6,1.5,1.7,2.5,2v-0.1h-0.1c-0.2-0.3-0.5-0.5-0.8-0.7c-0.6-0.6-1.2-1.3-1.8-2c-1.4-2-2.7-4-3.8-6.2
							c-0.5-1.1-1-2.2-1.5-3.3c-0.2-0.4-0.2-1-0.5-1.2c-0.6,0.7-1.2,1.5-1.6,2.3c-0.6,1.7-0.9,3.4-1,5.1c-0.1,0-0.1,0-0.1,0.1
							c-1.1-0.3-1.5-1.4-1.9-2.3c-1.1-2.9-1.2-6.1-0.3-9.1c0.2-0.7,1.3-3,0.9-3.6c-0.2-0.6-0.9-1-1.3-1.5c-0.5-0.7-0.9-1.4-1.2-2.2
							c-0.8-2-1.2-4.1-2.1-6c-0.5-0.9-1.1-1.8-1.7-2.6c-0.7-0.8-1.4-1.7-1.9-2.7c-0.2-0.4-0.4-1-0.1-1.4c0-0.2,0.2-0.4,0.5-0.4
							c0.4-0.4,1.7,0.1,2.1,0.3c1.2,0.4,2.3,1,3.4,1.7c0.5,0.3,1,1,1.6,1.2h0.7c1.1,0.2,2.3,0.1,3.3,0.4c1.7,0.5,3.4,1.3,4.9,2.3
							c4.5,2.9,8.2,6.9,10.6,11.6c0.4,0.8,0.6,1.5,1,2.3c0.7,1.7,1.6,3.4,2.3,5c0.6,1.6,1.4,3.1,2.4,4.6c0.5,0.7,2.5,1.1,3.5,1.5
							c0.8,0.3,1.6,0.6,2.3,1c1.2,0.7,2.3,1.5,3.4,2.3C-159.2-1634.2-157.5-1633.3-157.4-1632.6z"/>
					</g>
				</g>
			</g>
		</g>
	</g>
</g>
<g transform="translate(1028 2027.698)" class="st0">
	<g class="st1">
		<g>
			<g>
				<g>
					<defs>
						<rect id="SVGID_00000014624299330092700180000007209400590632298429_" x="-263.5" y="-1630.6" width="50" height="51.5"/>
					</defs>
					<clipPath id="SVGID_00000108284671745974608410000007126067624511669910_">
						<use xlink:href="#SVGID_00000014624299330092700180000007209400590632298429_"  style="overflow:visible;"/>
					</clipPath>
					<g transform="translate(-15 10)" style="clip-path:url(#SVGID_00000108284671745974608410000007126067624511669910_);">
						<path class="st13" d="M-153.5-1659c0,0.1,0,0.1,0,0.2v11c0,0.3-0.2,0.6-0.4,0.7l-9.3,5.3v10.6c0,0.3-0.2,0.6-0.4,0.7
							l-19.3,11.3c0,0-0.1,0-0.1,0.1c0,0,0,0-0.1,0s-0.3,0-0.4,0c0,0,0,0-0.1,0c0,0-0.1,0-0.1-0.1l-19.4-11.2
							c-0.2-0.1-0.4-0.4-0.4-0.7v-33.1c0-0.1,0-0.1,0-0.2c0,0,0,0,0-0.1c0,0,0-0.1,0.1-0.1c0,0,0-0.1,0.1-0.1c0,0,0-0.1,0.1-0.1
							c0,0,0.1,0,0.1-0.1c0,0,0.1,0,0.1-0.1l0,0l9.7-5.6c0.2-0.1,0.6-0.1,0.8,0l9.7,5.6l0,0c0,0,0.1,0,0.1,0.1s0.1,0,0.1,0.1
							c0,0,0,0.1,0.1,0.1c0,0,0,0,0.1,0.1c0,0,0,0.1,0.1,0.1c0,0,0,0,0,0.1s0,0.1,0,0.2v20.7l8.1-4.6v-10.6c0-0.1,0-0.1,0-0.2
							c0,0,0,0,0-0.1c0,0,0-0.1,0.1-0.1c0,0,0,0,0.1-0.1c0,0,0-0.1,0.1-0.1c0,0,0.1,0,0.1-0.1c0,0,0.1,0,0.1-0.1l9.7-5.6
							c0.2-0.1,0.6-0.1,0.8,0l9.7,5.6c0,0,0.1,0,0.1,0.1c0,0,0.1,0,0.1,0.1c0,0,0,0.1,0.1,0.1c0,0,0,0,0.1,0.1
							C-153.6-1659.1-153.6-1659.1-153.5-1659L-153.5-1659 M-155.1-1648.2v-9.2l-3.4,2l-4.7,2.7v9.2L-155.1-1648.2L-155.1-1648.2z
							 M-164.8-1631.5v-9.2l-4.6,2.6l-13.1,7.5v9.3L-164.8-1631.5z M-201.9-1662.8v31.3l17.7,10.2v-9.3l-9.3-5.2l0,0l0,0
							c0,0-0.1,0-0.1-0.1c0,0-0.1,0-0.1-0.1l0,0c0,0,0-0.1-0.1-0.1c0,0,0-0.1-0.1-0.1l0,0c0-0.1-0.1-0.1-0.1-0.2l0,0v-0.1v-0.1
							v-21.6l-4.5-2.7L-201.9-1662.8L-201.9-1662.8z M-193-1668.9l-8.1,4.7l8.1,4.6l8.1-4.6L-193-1668.9L-193-1668.9z
							 M-188.8-1639.9l4.7-2.7v-20.2l-3.4,2l-4.7,2.7v20.2L-188.8-1639.9z M-164-1663.4l-8.1,4.6l8.1,4.6l8.1-4.6L-164-1663.4z
							 M-164.8-1652.7l-4.7-2.7l-3.4-1.9v9.2l4.7,2.7l3.4,2V-1652.7z M-183.3-1632l11.8-6.8l5.9-3.4l-8.1-4.6l-9.3,5.3l-8.4,4.9
							L-183.3-1632z"/>
					</g>
				</g>
			</g>
		</g>
	</g>
</g>
<g transform="translate(686.246 2255.766)" class="st0">
	<g transform="translate(0.498 0.497)" class="st1">
		<path class="st21" d="M-175.8-1641.6c-4-2.1-7.9-4.5-11.5-7.3c0.1-0.3,0.1-0.5,0.2-0.8c3.9-1,7.6-2.4,11.1-4.2
			c2.4-1.3,0.7-5.2-1.7-3.9c-2.7,1.4-5.6,2.6-8.5,3.5c0.5-3.4,0.8-6.9,1-10.4c0.2-2.7-4-3.2-4.2-0.5c-0.2,4-0.6,8-1.3,11.9
			c-2.5,0.5-5,0.7-7.5,0.8c-2.7,0-3.2,4.3-0.5,4.2c2.3,0,4.7-0.2,7-0.6c-0.3,1.1-0.6,2.2-1,3.2c-2.1,5.5-5.5,10.5-10,14.3
			c-2.1,1.8,0.5,5.1,2.6,3.3c4.9-4.1,8.7-9.4,11-15.3c0.2-0.4,0.3-0.9,0.5-1.3c3.6,2.6,7.4,4.9,11.3,6.9
			C-174.9-1636.3-173.4-1640.3-175.8-1641.6L-175.8-1641.6z"/>
		<path class="st25" d="M-201.4-1626.9c-1.1-0.1-2.1-0.8-2.4-1.8c-0.4-1-0.1-2.2,0.8-2.9c2.2-1.9,4.2-4,5.8-6.4c1.7-2.4,3-5,4.1-7.7
			c0.3-0.8,0.6-1.6,0.8-2.5c-2.1,0.3-4.2,0.4-6.3,0.5l0,0c-0.6,0-1.3-0.2-1.7-0.7c-0.4-0.4-0.6-1-0.6-1.6c0-0.7,0.2-1.4,0.7-2
			s1.3-1,2.1-1c2.4,0,4.8-0.3,7.1-0.7c0.6-3.8,1-7.7,1.2-11.5c0-1.3,1.1-2.3,2.4-2.3l0,0c0.8,0,1.5,0.3,2,0.9c0.5,0.5,0.7,1.2,0.7,2
			c-0.2,2.9-0.4,6.3-0.9,9.6c2.7-0.8,5.2-1.9,7.7-3.2c1.1-0.6,2.6-0.2,3.2,0.9c0.1,0.3,0.2,0.5,0.3,0.8c0.3,1.2-0.2,2.5-1.3,3.1
			c-3.5,1.8-7.1,3.2-10.9,4.2v0.2c3.5,2.6,7.3,5,11.2,7l0.3,0.1l0,0c1,0.7,1.4,1.9,1.1,3c-0.2,1.1-1.1,1.9-2.2,2l0,0
			c-0.4,0-0.8-0.1-1.1-0.3c-3.7-1.9-7.3-4.1-10.8-6.6c-0.1,0.2-0.2,0.5-0.3,0.7c-2.4,6-6.2,11.3-11.2,15.5
			C-200.2-1627.1-200.8-1626.9-201.4-1626.9z M-191-1649.4l-0.2,0.8c-0.3,1.1-0.7,2.2-1.1,3.3c-1,2.8-2.5,5.5-4.2,7.9
			s-3.7,4.6-6,6.6c-0.5,0.4-0.7,1.1-0.5,1.8c0.2,0.7,0.8,1.1,1.5,1.2c0.3,0,0.7-0.1,0.9-0.4c4.8-4.1,8.5-9.3,10.9-15.1
			c0.2-0.4,0.3-0.8,0.5-1.3l0.2-0.6l0.5,0.4c3.6,2.6,7.3,4.9,11.2,6.9c0.2,0.1,0.4,0.2,0.7,0.2l0,0c0.7-0.1,1.2-0.6,1.3-1.2
			c0.2-0.8-0.1-1.6-0.9-2l-0.3-0.1l0,0c-4-2.1-7.7-4.5-11.3-7.2l-0.1-0.4l0.1-0.3c0-0.1,0-0.2,0.1-0.3c0-0.2,0.1-0.3,0.1-0.5
			l0.1-0.3l0.3-0.1c3.8-0.9,7.5-2.3,11-4.2c0.7-0.4,1.1-1.2,0.8-1.9c-0.1-0.7-0.7-1.2-1.4-1.3c-0.2,0-0.5,0.1-0.7,0.2
			c-2.8,1.5-5.6,2.6-8.6,3.5l-0.8,0.2l0.1-0.8c0.5-3.6,0.8-7.3,1-10.3c0-0.4-0.1-0.9-0.4-1.2c-0.3-0.4-0.8-0.5-1.3-0.5
			c-0.8,0-1.4,0.5-1.5,1.3v0.1c-0.2,4-0.6,8-1.3,12l-0.1,0.3l-0.3,0.1c-2.5,0.5-5.1,0.7-7.6,0.8c-1,0.1-1.8,0.9-1.8,1.9
			c-0.1,0.7,0.4,1.2,1.1,1.3c0.1,0,0.1,0,0.2,0l0,0c2.3,0,4.6-0.2,6.9-0.6L-191-1649.4z"/>
		<path class="st21" d="M-150.8-1659.9c-1.3,0.4-2.5,0.9-3.8,1.3c0-1.5,0.1-3,0.1-4.5c0.1-2.7-4-3.2-4.2-0.5
			c-0.1,2.2-0.2,4.4-0.3,6.6c-2.9,1.1-5.7,2.3-8.5,3.5c-2.5,1.1-0.8,5,1.7,3.9c2.2-0.9,4.4-1.8,6.5-2.7c-0.1,1-0.2,2-0.3,3.1
			c-0.4,4.3-1.4,8.6-4.1,12.1c-1.7,2.2,1.7,4.7,3.4,2.5c4.2-5.4,5.1-12.4,5.4-19.4c1.9-0.7,3.7-1.4,5.6-2
			C-146.6-1656.9-148.3-1660.8-150.8-1659.9L-150.8-1659.9z"/>
		<path class="st25" d="M-156.7-1665.9c0.8,0,1.5,0.3,2,0.9c0.5,0.5,0.8,1.2,0.7,2c-0.1,1.2-0.1,2.5-0.1,3.8c1-0.4,1.9-0.7,2.8-1
			l0,0l0.3-0.1c0.3-0.1,0.6-0.2,0.9-0.2l0,0c0.7,0,1.3,0.3,1.8,0.8c0.5,0.4,0.8,1,0.9,1.7c0.2,1.1-0.4,2.3-1.6,2.6
			c-1.6,0.6-3.3,1.2-5.3,1.9c-0.1,3.4-0.5,6.7-1.2,10c-0.7,3.4-2.2,6.5-4.3,9.3c-0.5,0.6-1.2,1-2,1c-1.1,0-2-0.6-2.5-1.6
			c-0.4-0.9-0.3-1.9,0.3-2.6c2.9-3.7,3.6-8.2,4-11.8c0.1-0.8,0.1-1.6,0.2-2.3c-2.2,0.9-4.1,1.7-5.8,2.4c-0.3,0.1-0.7,0.2-1,0.2
			c-1.3-0.1-2.3-1-2.5-2.2c-0.3-1.2,0.3-2.4,1.5-2.8c2.6-1.1,5.4-2.3,8.2-3.4c0-0.9,0.1-1.7,0.1-2.6c0-1.2,0.1-2.4,0.2-3.7
			c0-1.3,1-2.3,2.3-2.3C-156.8-1665.9-156.8-1665.9-156.7-1665.9z M-155.1-1657.9v-0.7c0-1.5,0.1-3,0.1-4.5c0-0.5-0.1-0.9-0.4-1.2
			c-0.3-0.4-0.8-0.5-1.3-0.5c-0.7,0-1.4,0.5-1.4,1.2v0.1c-0.1,1.2-0.1,2.5-0.2,3.7c0,1-0.1,1.9-0.1,2.9v0.3l-0.3,0.1
			c-2.9,1.1-5.7,2.3-8.5,3.5c-0.7,0.3-1.1,1-0.9,1.7c0.1,0.8,0.8,1.4,1.5,1.4c0.2,0,0.4-0.1,0.7-0.1c1.9-0.8,4-1.7,6.6-2.7l0.7-0.3
			l-0.1,0.8c-0.1,0.9-0.1,2-0.3,3.1c-0.2,2.2-0.6,4.3-1.2,6.4c-0.6,2.1-1.6,4.1-3,5.9c-0.4,0.4-0.5,1-0.2,1.5c0.3,0.6,0.9,1,1.6,1
			c0.5,0,0.9-0.2,1.2-0.6c4.2-5.3,5-12.3,5.3-19.1v-0.3l0.3-0.1c2.1-0.8,3.9-1.4,5.6-2c0.6-0.2,1-0.8,0.9-1.5
			c-0.1-0.9-0.8-1.5-1.7-1.6l0,0c-0.1,0-0.3,0-0.4,0.1l-0.1,0.1c-1.2,0.4-2.4,0.8-3.8,1.3L-155.1-1657.9z"/>
		<path class="st21" d="M-128-1647.6c-0.4-2.2-0.4-4.4-0.1-6.6c0.2-1.5,0.6-3-0.5-4.2c-1.1-1.2-2.6-0.9-3.9-0.4
			c-3.6,1.3-6.8,3.8-10.6,4.5c-2.6,0.5-2,4.7,0.7,4.2c1.9-0.4,3.8-1.1,5.5-2c1-0.5,2-1,3-1.5c0.3-0.2,1-0.4,1.6-0.6
			c-0.1,1.1-0.2,2.1-0.2,3.2s0.1,2.2,0.2,3.3c0.1,0.7,0.5,1.6,0.6,2.4c-1.2,0.5-3,0.8-4.1,1.2c-1.8,0.6-3.6,1.2-5.5,1.8
			c-2.6,0.9-0.8,4.7,1.7,3.9c2.2-0.7,4.4-1.5,6.6-2.2c1.5-0.5,3.7-0.8,4.8-2C-126.7-1644.1-127.7-1646-128-1647.6L-128-1647.6z"/>
		<path class="st25" d="M-140.1-1637.8c-0.7,0-1.3-0.3-1.8-0.8c-0.5-0.4-0.8-1-0.9-1.7c-0.2-1.1,0.5-2.3,1.6-2.6
			c1.8-0.6,3.6-1.2,5.5-1.8c0.4-0.1,0.9-0.3,1.5-0.4c0.7-0.2,1.4-0.4,2.1-0.6c-0.1-0.3-0.1-0.5-0.2-0.8c-0.1-0.4-0.2-0.8-0.3-1.3
			c-0.2-1.1-0.2-2.2-0.2-3.4c0-0.9,0-1.7,0.1-2.5c-0.3,0.1-0.5,0.2-0.8,0.3c-0.5,0.2-0.9,0.5-1.4,0.7c-0.5,0.3-1.1,0.6-1.6,0.8
			c-1.8,0.9-3.7,1.6-5.7,2c-0.3,0.3-0.5,0.3-0.6,0.3c-1.3,0-2.3-1.1-2.4-2.3c-0.2-1.4,0.7-2.6,2.1-2.9c2.1-0.5,4.2-1.4,6.1-2.5
			c1.4-0.8,2.9-1.5,4.4-2c0.7-0.3,1.4-0.4,2.2-0.5c0.9,0,1.7,0.3,2.3,1c1.2,1.3,0.9,2.9,0.7,4.3c0,0.1,0,0.2-0.1,0.4
			c-0.3,2.1-0.3,4.3,0.1,6.4l0.1,0.3c0.1,0.2,0.1,0.5,0.2,0.8c0.4,1.4,0.8,3-0.4,4.3c-0.9,1.1-2.5,1.5-3.9,1.9
			c-0.4,0.1-0.8,0.2-1.1,0.3l-2.7,0.9c-1.3,0.4-2.7,0.9-4,1.3C-139.5-1637.8-139.8-1637.8-140.1-1637.8z M-131.7-1655l-0.1,0.8
			c-0.1,1-0.2,2.1-0.2,3.1c0,1.1,0.1,2.2,0.2,3.2c0.1,0.4,0.2,0.8,0.3,1.1c0.1,0.4,0.3,0.8,0.3,1.3l0.1,0.4l-0.4,0.2
			c-0.9,0.3-1.8,0.6-2.7,0.8c-0.5,0.1-1,0.3-1.4,0.4c-1.8,0.6-3.6,1.2-5.5,1.8c-0.6,0.2-1,0.8-0.9,1.5c0.1,0.9,0.8,1.5,1.7,1.6
			c0.2,0,0.4,0,0.6-0.1c1.3-0.4,2.6-0.9,4-1.3l2.7-0.9c0.4-0.1,0.8-0.2,1.2-0.3c1.2-0.2,2.4-0.7,3.4-1.5c0.8-1,0.5-2.1,0.2-3.4
			c-0.1-0.4-0.2-0.8-0.3-1.1l-0.1-0.6l0,0c-0.3-2-0.3-4.1,0-6.2c0-0.1,0-0.2,0.1-0.4c0.2-1.3,0.4-2.5-0.4-3.4
			c-0.4-0.4-1-0.7-1.6-0.7s-1.3,0.2-1.8,0.4c-1.5,0.6-2.9,1.2-4.3,2c-2,1.2-4.1,2-6.4,2.6c-0.9,0.2-1.4,1-1.3,1.8
			c0,0.8,0.6,1.4,1.4,1.4c0.1,0,0.2,0,0.3,0c1.9-0.4,3.7-1,5.4-1.9c0.5-0.3,1.1-0.5,1.6-0.8c0.5-0.2,0.9-0.5,1.4-0.7
			c0.3-0.2,0.7-0.3,1-0.4c0.2-0.1,0.4-0.1,0.6-0.2L-131.7-1655z"/>
		<g transform="translate(75.386)">
			<g transform="translate(5.273)">
				<path class="st21" d="M-177.5-1663.1c0.1-3.7-3.6-3-5.9-2.2c-3.3,1.2-6.4,2.7-9.5,4.3c-0.4-1.2-0.8-2.3-1.1-3.6
					c-0.6-2.6-4.7-2-4.1,0.7c0.4,1.7,1,3.4,1.7,5c-1.7,1.1-3.4,2.2-5,3.3c-2.2,1.6,0.4,4.9,2.6,3.3c1.4-1,2.8-1.9,4.2-2.8
					c0.3,0.6,0.6,1.2,0.9,1.9c1.7,3.7,3.4,7.4,5.1,11.1c1.1,2.5,5,0.7,3.8-1.7c-1.6-3.4-3.2-6.9-4.8-10.3c-0.4-1-0.9-2-1.4-3
					c0.4-0.2,0.8-0.5,1.2-0.7c1.5-0.8,3.1-1.5,4.7-2.2c0.7-0.3,1.4-0.6,2.1-0.9l0,0c-0.2,0.4-0.5,0.9-0.7,1.3
					c-0.8,1.4-1.5,2.8-2.3,4.2c-1.3,2.4,2.6,3.9,3.9,1.6l2.7-4.9C-178.8-1660-177.6-1661.6-177.5-1663.1L-177.5-1663.1z"/>
				<path class="st25" d="M-196.1-1666.8c1.3,0,2.4,0.8,2.6,2.1c0.2,1,0.5,2,0.9,3c2.9-1.6,5.9-2.9,9-4.1c1.1-0.4,2.2-0.6,3.3-0.7
					l0,0c1-0.1,1.8,0.3,2.5,0.9c0.6,0.7,0.9,1.6,0.8,2.5v0.2l0,0c-0.2,1.3-0.7,2.5-1.5,3.5c-0.2,0.3-0.4,0.6-0.6,0.9l-2.6,4.9
					c-0.5,0.9-1.4,1.5-2.4,1.4c-1,0-1.9-0.5-2.4-1.2c-0.4-0.7-0.4-1.6,0-2.2c0.4-0.7,0.8-1.4,1.1-2.1c0.4-0.7,0.8-1.4,1.2-2.1
					l0.1-0.1c-0.2,0.1-0.5,0.2-0.8,0.3c-1.5,0.7-3.1,1.4-4.7,2.2c-0.3,0.1-0.5,0.3-0.8,0.4c0.4,0.8,0.8,1.7,1.2,2.5
					c1.6,3.5,3.2,7,4.8,10.3l0,0c0.4,0.8,0.3,1.7-0.1,2.4c-0.5,0.8-1.4,1.3-2.4,1.3s-1.9-0.6-2.3-1.5l-1.8-3.9
					c-1.1-2.4-2.2-4.8-3.3-7.2c-0.2-0.4-0.4-0.8-0.6-1.4c-1.2,0.8-2.5,1.6-3.7,2.5c-0.4,0.3-1,0.5-1.5,0.5c-1.2,0-2.2-0.8-2.6-2
					c-0.3-1,0-2.1,0.9-2.7c1.5-1.1,3-2.1,4.7-3.1c-0.6-1.3-1.2-2.9-1.5-4.5c-0.2-0.7,0-1.5,0.4-2.1
					C-197.7-1666.4-196.9-1666.8-196.1-1666.8z M-193.1-1660.3l-0.2-0.5c-0.5-1.2-0.9-2.4-1.2-3.7c-0.1-0.7-0.8-1.3-1.6-1.3
					c-0.5,0-1,0.2-1.3,0.6s-0.4,0.8-0.2,1.2c0.4,1.7,0.9,3.3,1.6,4.9l0.2,0.4l-0.4,0.2c-1.8,1.1-3.5,2.2-5,3.3
					c-0.5,0.3-0.8,1-0.6,1.6c0.2,0.7,0.9,1.2,1.6,1.3c0.3,0,0.7-0.1,0.9-0.3c1.4-1,2.8-2,4.2-2.8l0.6-0.4l0.2,0.5
					c0.4,0.7,0.6,1.3,0.9,1.9c1.1,2.4,2.2,4.8,3.3,7.2l1.8,3.9c0.2,0.6,0.8,0.9,1.4,0.9c0.6,0,1.2-0.3,1.5-0.8
					c0.3-0.4,0.3-1,0.1-1.4l0,0c-1.6-3.4-3.2-6.9-4.8-10.3c-0.4-1-0.9-1.9-1.4-2.9l-0.2-0.4l0.4-0.2l0.4-0.2
					c0.3-0.1,0.5-0.3,0.8-0.4c1.6-0.8,3.2-1.6,4.7-2.3c0.8-0.3,1.5-0.6,2.1-0.9l0,0l0,0l0,0l0,0h0.1h0.8l-0.4,0.7
					c-0.1,0.2-0.2,0.4-0.4,0.7c-0.1,0.2-0.2,0.4-0.4,0.7c-0.4,0.7-0.8,1.4-1.2,2.1s-0.8,1.4-1.1,2.1c-0.3,0.4-0.3,0.9-0.1,1.2
					c0.3,0.5,0.9,0.8,1.5,0.8c0.7,0,1.3-0.3,1.6-0.9l2.7-4.9c0.2-0.3,0.4-0.6,0.6-1c0.7-0.9,1.2-2,1.3-3.2v-0.2l0,0
					c0-0.6-0.2-1.1-0.5-1.6c-0.5-0.4-1.1-0.6-1.7-0.6c-1,0-2,0.3-2.9,0.6c-3.2,1.2-6.4,2.7-9.4,4.3L-193.1-1660.3z"/>
				<path class="st21" d="M-198.2-1665.2c0.1-1.7-0.4-3.4-1.6-4.6c-0.7-0.9-2-1-2.9-0.3c-0.9,0.8-1,2.1-0.3,3
					c0.1,0.1,0.3,0.3,0.4,0.4c-0.2-0.1,0.1,0.3,0.1,0.4l0,0l0.1,0.3c0,0.1,0,0.1,0,0.2v0.1c-0.1,1.2,0.7,2.2,1.8,2.4
					C-199.4-1663.2-198.4-1664-198.2-1665.2L-198.2-1665.2L-198.2-1665.2z"/>
				<path class="st25" d="M-200.4-1662.8c-0.1,0-0.1,0-0.2,0c-0.6,0-1.2-0.3-1.6-0.8c-0.5-0.6-0.7-1.4-0.7-2.1l0,0v-0.1v-0.1v-0.2
					v-0.1c-0.1-0.1-0.2-0.2-0.2-0.3c-0.1-0.1-0.2-0.2-0.3-0.3c-0.4-0.4-0.6-1-0.6-1.7c0-0.8,0.4-1.5,1-2.1c0.4-0.4,1-0.6,1.5-0.6
					c0.8,0,1.5,0.4,2.1,0.9c1.1,1.2,1.7,2.8,1.7,4.4l0,0v0.5c0,0.7-0.4,1.3-0.9,1.7C-199.1-1663.1-199.7-1662.8-200.4-1662.8z
					 M-201.9-1665.6c0,0.5,0.1,1,0.4,1.3c0.3,0.3,0.6,0.4,1,0.5h0.1c0.8,0,1.5-0.5,1.7-1.3v-0.1c0.2-1.5-0.4-3.1-1.4-4.2
					c-0.4-0.5-0.9-0.7-1.4-0.7c-0.3,0-0.6,0.1-0.9,0.3c-0.4,0.4-0.6,0.9-0.6,1.4c0,0.3,0.1,0.7,0.3,0.9c0.2,0.2,0.3,0.3,0.4,0.5
					l-0.4,0.3l0.4,0.2c0.1-0.1,0.1-0.3,0-0.4l0.1,0.2c0,0,0.2,0.1,0.2,0.2l0,0v0.1l0.1,0.4c0,0.1,0,0.1,0,0.2L-201.9-1665.6
					C-201.9-1665.8-201.9-1665.7-201.9-1665.6L-201.9-1665.6z"/>
			</g>
			<path class="st21" d="M-199.3-1666.1c-0.1-1.2-1.2-2-2.3-1.9c-1.2,0.1-2,1.2-1.9,2.3c0,0.1,0,0.2,0,0.2c0.5,1.9,1.3,3.7,2.5,5.3
				c0.7,0.9,2,1,2.9,0.3l0,0c0.9-0.8,1-2.1,0.3-3C-198.5-1663.9-199-1665-199.3-1666.1z"/>
			<path class="st25" d="M-201.4-1668.4c1.2,0,2.3,0.9,2.5,2.2c0.4,1,0.9,2.1,1.6,3c0.9,1.1,0.7,2.8-0.4,3.7c-0.5,0.4-1,0.6-1.6,0.6
				c-0.8,0-1.5-0.4-2-1c-1.3-1.7-2.1-3.5-2.6-5.4c-0.2-0.6,0-1.3,0.3-1.8c0.4-0.7,1.1-1.1,1.8-1.3
				C-201.6-1668.4-201.5-1668.4-201.4-1668.4z M-199.4-1659.9c0.4,0,0.7-0.1,1-0.3c0.7-0.7,0.8-1.7,0.2-2.4c-0.7-1-1.3-2.2-1.6-3.4
				c-0.1-0.8-0.8-1.4-1.6-1.4c-0.1,0-0.2,0-0.3,0c-0.4,0.1-0.8,0.4-1,0.8c-0.3,0.3-0.3,0.7-0.3,1c0.5,1.8,1.3,3.5,2.4,5
				C-200.3-1660.1-199.9-1659.9-199.4-1659.9L-199.4-1659.9z"/>
		</g>
		<path class="st21" d="M-84.1-1658.2c-0.3-0.7-0.9-1.1-1.7-1.2c0-0.9,0.1-1.7,0.1-2.6c0.1-2.7-4.1-3.2-4.2-0.5
			c-0.1,1.6-0.1,3.3-0.2,4.9l-1.3,0.7c-1,0.5-1.5,1.7-1.1,2.8c0.4,0.8,1.2,1.3,2.1,1.3c-0.1,2.4-0.2,5.3-1.5,7.2
			c-1.5,2.3,1.8,4.8,3.4,2.5c1.7-2.5,1.9-5.5,2.2-8.4c0.1-1.1,0.2-2.3,0.3-3.4l0.9-0.5C-84.1-1655.9-83.7-1657.2-84.1-1658.2
			L-84.1-1658.2z"/>
		<path class="st25" d="M-88-1664.9c0.8,0,1.5,0.3,2,0.9c0.5,0.5,0.8,1.2,0.7,2v0.1c0,0.6-0.1,1.2-0.1,1.9l0.4,0.4
			c0.5,0.3,1,0.7,1.2,1.3l1,2.4l-0.9-0.9c-0.2,0.8-0.7,1.5-1.5,1.9l-0.7,0.3c-0.1,1-0.2,2.1-0.3,3.1c0,0.2,0,0.3,0,0.5
			c-0.3,2.8-0.5,5.7-2.2,8.1c-0.4,0.7-1.2,1.1-2,1.1c-1,0-1.9-0.6-2.4-1.5s-0.4-1.9,0.2-2.7c1.1-1.6,1.2-4,1.3-6.2
			c0-0.1,0-0.2,0-0.3c-1.4-0.2-2.4-1.6-2.2-3c0.1-0.9,0.7-1.6,1.5-2l1.1-0.6c0.1-1.5,0.2-3,0.2-4.6c0-1.3,1-2.3,2.3-2.3
			C-88-1664.9-88-1664.9-88-1664.9z M-84.6-1658.1c-0.3-0.5-0.7-0.8-1.3-0.9l-0.5-0.1v-0.5c0-0.8,0.1-1.7,0.1-2.5l0,0
			c0-0.5-0.1-0.9-0.4-1.2c-0.4-0.4-0.8-0.5-1.3-0.5c-0.7,0-1.3,0.5-1.4,1.2v0.1c-0.1,1.7-0.1,3.3-0.2,4.9v0.3l-1.6,0.8
			c-0.8,0.4-1.2,1.3-0.8,2.2c0.3,0.6,0.8,0.9,1.5,1h0.1h0.6v0.6c0,0.3,0,0.5,0,0.8c-0.1,2.3-0.3,4.8-1.5,6.7
			c-0.4,0.5-0.4,1.1-0.1,1.7s0.9,0.9,1.5,1c0.5,0,0.9-0.3,1.1-0.7c1.5-2.3,1.8-4.9,2-7.7c0-0.2,0-0.3,0-0.5c0.1-1.1,0.2-2.3,0.3-3.4
			v-0.3l1.2-0.6C-84.6-1656.2-84.2-1657.2-84.6-1658.1L-84.6-1658.1z"/>
		<path class="st21" d="M-72.3-1660.7c-1.9-2.6-4.7-4.3-7.9-4.8c-2.7-0.4-3.1,3.8-0.5,4.2c0.2,0,0.5,0.1,0.7,0.1
			c-0.7,0.9-0.6,2.3,0.4,3c0.3,0.2,0.7,0.4,1,0.4l4.4,0.4c1.2,0.1,2.2-0.8,2.3-2C-71.8-1659.8-72-1660.3-72.3-1660.7L-72.3-1660.7z"
			/>
		<path class="st25" d="M-73.9-1656.8c-0.1,0-0.2,0-0.3,0l-4.4-0.4c-0.9-0.1-1.6-0.6-2-1.4c-0.3-0.7-0.3-1.5-0.1-2.2h-0.1
			c-0.7-0.1-1.3-0.5-1.7-1.1c-0.3-0.5-0.5-1.2-0.5-1.8s0.3-1.2,0.7-1.6c0.4-0.5,1.1-0.8,1.7-0.8c0.1,0,0.3,0,0.4,0
			c3.2,0.5,6.1,2.2,8.1,4.8l0,0l0.1,0.2c0.6,0.8,0.7,1.9,0.2,2.8C-72.1-1657.3-73-1656.8-73.9-1656.8z M-80.5-1665
			c-0.8,0-1.4,0.7-1.4,1.5c-0.1,0.9,0.5,1.7,1.4,1.8c0.3,0,0.5,0.1,0.8,0.2l0.7,0.2l-0.5,0.5c-0.4,0.5-0.4,1.2-0.2,1.8
			c0.2,0.5,0.7,0.8,1.2,0.8l4.4,0.4c0.1,0,0.1,0,0.2,0c0.6,0,1.1-0.3,1.4-0.9c0.3-0.5,0.3-1.2-0.1-1.7l-0.1-0.1
			c-1.8-2.5-4.5-4.1-7.6-4.6C-80.4-1665-80.5-1665-80.5-1665L-80.5-1665z"/>
		<path class="st21" d="M-71.5-1650.7c-1.5-0.2-2.9-0.4-4.4-0.5c-0.1-0.9-0.2-1.8-0.3-2.7c-0.2-2.7-4.4-2-4.1,0.7
			c0.1,0.6,0.1,1.2,0.2,1.8c-0.6,0-1.2,0.1-1.8,0.3c-2.9,1.1-2.5,4.1-1,6.2s4.8,3.3,6.6,0.7c0.5-0.8,0.7-1.7,0.7-2.7
			c1.2,0.1,2.4,0.3,3.6,0.5C-69.3-1646-68.9-1650.3-71.5-1650.7z"/>
		<path class="st25" d="M-78-1656.2c0.6,0,1.1,0.2,1.6,0.5c0.5,0.4,0.8,1,0.8,1.7c0.1,0.7,0.1,1.4,0.2,2v0.3c1.2,0.1,2.6,0.3,4,0.5
			c0.7,0.1,1.3,0.5,1.7,1.1c0.3,0.5,0.5,1.2,0.5,1.8c0,1.3-1.1,2.4-2.4,2.4c-0.1,0-0.3,0-0.4,0c-1-0.2-2-0.3-3-0.4
			c0,0.9-0.3,1.7-0.8,2.4c-0.7,1.1-1.8,1.7-3.1,1.7c-1.7-0.1-3.3-1-4.3-2.4c-1.1-1.3-1.5-3-1.1-4.7c0.4-1.1,1.2-2,2.3-2.3
			c0.4-0.2,0.9-0.3,1.4-0.3v-0.4c0-0.3-0.1-0.6-0.1-0.9c-0.1-0.7,0.2-1.5,0.7-2.1C-79.6-1655.9-78.8-1656.2-78-1656.2z
			 M-71.6-1646.9c0.8,0,1.4-0.7,1.4-1.5c0.1-0.9-0.5-1.7-1.4-1.8c-1.6-0.2-3-0.4-4.3-0.5h-0.4v-0.4c0-0.2,0-0.5-0.1-0.7
			c-0.1-0.7-0.1-1.4-0.2-2c0-0.7-0.6-1.3-1.3-1.3l0,0c-0.5,0-1,0.2-1.4,0.6c-0.3,0.4-0.5,0.8-0.4,1.3c0,0.3,0.1,0.6,0.1,0.9
			s0.1,0.6,0.1,0.9v0.5H-80c-0.5,0-1.1,0.1-1.6,0.3c-0.8,0.2-1.5,0.9-1.7,1.7c-0.3,1.3,0.1,2.7,1,3.8c0.8,1.1,2.1,1.9,3.5,2
			c0.9,0,1.8-0.5,2.3-1.3c0.4-0.7,0.7-1.6,0.6-2.4v-0.5l0.5,0.1c1.2,0.1,2.4,0.3,3.6,0.5C-71.8-1646.9-71.7-1646.9-71.6-1646.9
			L-71.6-1646.9z"/>
		<path class="st21" d="M-130.8-1608.4c-2.8,0.2-1.9-5-1.6-6.4c0.4-2.3-3.3-3.3-4-1c-0.9,3-2.1,5.9-3.8,8.6
			c-1.4,2.3-3.3,5.3-5.6,6.8c-3.2,1.9-4.6-2-4.1-4.6c0.6-3.2,2.6-6.1,3.5-9.2c0.6-2.2-2.2-4.2-3.6-2.1c-1.9,2.7-3.9,5.9-7.3,6.7
			c-2.6,0.6-2,4.9,0.7,4.2c1-0.2,1.9-0.6,2.8-1.1c-0.3,1.1-0.4,2.3-0.4,3.5c0.2,3.7,2.8,7.3,6.7,7.4c3.8,0,6.7-3.4,8.8-6.3
			c1.1-1.5,2.2-3.2,3.1-4.9c1.2,1.8,3.3,2.8,5.5,2.6C-127.4-1604.4-128.1-1608.6-130.8-1608.4L-130.8-1608.4z"/>
		<path class="st25" d="M-148.4-1617.8c0.8,0,1.6,0.4,2.1,1.1c0.6,0.7,0.7,1.6,0.5,2.5c-0.4,1.5-1,2.9-1.7,4.2
			c-0.8,1.6-1.4,3.2-1.8,5c-0.3,1.3,0,2.7,0.8,3.9c0.3,0.4,0.7,0.6,1.2,0.6s0.9-0.2,1.3-0.4c2.2-1.4,4-4.2,5.4-6.5l0,0
			c1.6-2.7,2.8-5.5,3.7-8.5c0.3-1,1.2-1.7,2.3-1.7c0.8,0,1.6,0.4,2.2,1c0.5,0.5,0.6,1.2,0.5,1.9v0.1c-0.2,1.1-0.7,4.3,0.2,5.4
			c0.2,0.2,0.5,0.4,0.8,0.3h0.1c0.8-0.1,1.6,0.3,2.2,0.9c0.4,0.5,0.7,1.2,0.7,1.9c0,0.6-0.1,1.2-0.5,1.6c-0.4,0.5-1,0.8-1.7,0.8
			c-0.2,0-0.3,0-0.5,0c-1.9,0-3.7-0.8-5-2.2c-0.8,1.5-1.7,2.9-2.7,4.2c-1.1,1.6-2.4,3-3.8,4.3c-1.5,1.4-3.3,2.1-5.3,2.2l0,0
			c-2,0-3.9-0.9-5.1-2.5c-1.3-1.5-2-3.4-2.1-5.4c0-0.9,0-1.8,0.2-2.6c-0.6,0.3-1.3,0.5-2,0.7c-0.2,0.1-0.4,0.1-0.7,0.1
			c-0.6,0-1.2-0.2-1.6-0.7c-1-1.2-0.9-3,0.3-4c0.3-0.3,0.7-0.5,1.1-0.6c3-0.7,5-3.6,6.8-6.2l0.2-0.3
			C-149.9-1617.3-149.2-1617.8-148.4-1617.8z M-147.4-1599.5c-0.8,0-1.5-0.4-2-1c-1-1.4-1.3-3.1-1-4.7c0.4-1.8,1.1-3.5,1.9-5.2
			c0.7-1.3,1.2-2.7,1.6-4.1c0.2-0.6,0-1.2-0.3-1.6s-0.8-0.7-1.3-0.7s-0.9,0.3-1.1,0.7l-0.2,0.3c-1.9,2.7-4,5.8-7.4,6.6
			c-0.9,0.2-1.4,1.1-1.3,2c0,0.7,0.6,1.3,1.3,1.3c0.1,0,0.3,0,0.4-0.1c0.9-0.2,1.8-0.6,2.7-1l1-0.6l-0.3,1.1
			c-0.3,1.1-0.4,2.2-0.4,3.4c0.1,1.7,0.7,3.4,1.9,4.8c1.1,1.3,2.7,2.1,4.4,2.1l0,0c1.8-0.1,3.4-0.8,4.7-2c1.4-1.2,2.6-2.6,3.7-4.1
			c1.1-1.5,2.1-3.1,3-4.8l0.4-0.7l0.5,0.7c1,1.6,2.8,2.5,4.6,2.4c0.1,0,0.3,0,0.4,0c0.7,0,1.3-0.6,1.2-1.3v-0.1c0-1-0.7-1.8-1.7-1.8
			h-0.2c-0.7,0.1-1.3-0.2-1.8-0.7c-1.1-1.3-0.8-4-0.4-6.2v-0.1c0.1-0.4,0-0.8-0.3-1.1c-0.4-0.4-0.9-0.6-1.4-0.6
			c-0.6,0-1.2,0.4-1.3,1c-0.9,3.1-2.2,6-3.8,8.7l0,0c-1.5,2.4-3.3,5.4-5.8,6.9C-146.1-1599.7-146.7-1599.5-147.4-1599.5
			L-147.4-1599.5z"/>
		<path class="st21" d="M-102.5-1610.2c-1.9,1.5-4.1,2.5-6.4,3c-1.9,0.4-5.6,0.8-7.3-0.4c-1.2-0.8-0.2-3.3,0.8-4.8
			c0.7,0.1,1.3,0,1.9-0.2c1.7-0.8,2.7-3,3.8-4.4c1.5-2.3-1.8-4.8-3.4-2.5c-0.8,1.2-2.1,1.7-3.2,2.4c-0.1-0.1-0.3-0.2-0.3-0.3
			c-1.5-1.1-2.5-2.7-2.8-4.5c-0.5-2.7-4.7-2-4.1,0.7c0.5,2.8,2,5.3,4.2,7c-0.1,0.2-0.2,0.4-0.3,0.6c-1.3,2.7-2.3,7.3,0.5,9.4
			c2.5,1.8,6.7,1.9,9.6,1.6c3.5-0.4,6.8-1.8,9.6-4.1C-97.8-1608.6-100.4-1611.9-102.5-1610.2L-102.5-1610.2z"/>
		<path class="st25" d="M-112.2-1602.2c-2.1,0-5.1-0.3-7.2-1.8c-1.5-1.2-2.2-3-2-4.9c0.1-1.8,0.6-3.5,1.3-5.1c0-0.1,0.1-0.2,0.1-0.2
			c-2.1-1.8-3.6-4.3-4.1-7.1c-0.2-0.7,0-1.5,0.5-2.1s1.3-0.9,2.1-0.9c1.3,0,2.4,0.9,2.6,2.1c0.3,1.7,1.2,3.1,2.6,4.1l0,0l0.1,0.1
			c0.2-0.1,0.3-0.2,0.5-0.3c0.9-0.4,1.7-1,2.3-1.8l0,0c0.4-0.7,1.2-1.1,2-1.1c1,0,1.9,0.6,2.4,1.5s0.4,1.9-0.2,2.7l0,0
			c-0.2,0.3-0.5,0.7-0.7,1.1c-0.9,1.3-1.8,2.9-3.3,3.5c-0.5,0.2-1,0.3-1.6,0.3c-0.1,0-0.2,0-0.3,0c-1,1.5-1.5,3.4-0.8,3.9
			c1,0.6,2.2,0.8,3.3,0.7c1.2,0,2.4-0.1,3.6-0.4c2.3-0.5,4.4-1.4,6.2-2.9l0.6-0.4v0.1c0.3-0.1,0.6-0.2,1-0.2c1.1,0,2.1,0.8,2.5,1.9
			c0.4,1,0,2.2-0.8,2.8c-2.8,2.3-6.2,3.7-9.9,4.2C-110.4-1602.2-111.3-1602.2-112.2-1602.2z M-121.5-1623.3c-0.5,0-1,0.2-1.3,0.6
			c-0.3,0.3-0.4,0.8-0.3,1.2c0.5,2.7,1.9,5,4.1,6.7l0.3,0.3l-0.2,0.4c-0.1,0.2-0.2,0.4-0.3,0.5l0,0c-0.7,1.5-1.1,3.1-1.2,4.7
			c-0.2,1.5,0.4,3,1.6,4c1.8,1.3,4.6,1.6,6.6,1.6c0.9,0,1.8-0.1,2.7-0.2c3.4-0.4,6.7-1.8,9.3-4c0.5-0.4,0.7-1.1,0.5-1.7
			c-0.2-0.7-0.8-1.2-1.6-1.2c-0.3,0-0.7,0.1-0.9,0.4l-0.6,0.4l0,0c-1.8,1.3-3.9,2.2-6,2.7c-1.2,0.2-2.5,0.4-3.8,0.4
			c-1.4,0.1-2.7-0.2-3.9-0.9c-1.5-1.1-0.4-4,0.7-5.5l0.2-0.3h0.3c0.2,0,0.3,0,0.5,0c0.4,0,0.8-0.1,1.1-0.2c1.2-0.5,2.1-1.9,2.9-3.2
			c0.3-0.4,0.5-0.8,0.7-1.1c0.4-0.5,0.4-1.1,0.1-1.7s-0.9-0.9-1.5-0.9c-0.5,0-0.9,0.3-1.2,0.7c-0.7,0.9-1.6,1.6-2.6,2.1
			c-0.3,0.1-0.5,0.3-0.8,0.4l-0.3,0.2h-0.1c-0.2-0.1-0.3-0.2-0.4-0.3c-1.6-1.1-2.6-2.8-3-4.8C-120-1622.7-120.7-1623.3-121.5-1623.3
			L-121.5-1623.3z"/>
		<path class="st21" d="M-78.6-1616.2c-1.3-2.4-3.8-4-6.6-4.2c-1.1-0.1-2.1,0.7-2.3,1.9c0,0.2,0,0.4,0,0.5c-0.4,0.2-0.7,0.6-0.8,1.1
			c-0.9,2.6-0.6,5.7,1.6,7.6c2,1.8,5.1,1.7,7-0.2C-78-1611.4-77.6-1614-78.6-1616.2L-78.6-1616.2z M-82.4-1612.8
			c-0.2,0.4-0.7,0.6-1.2,0.5c-0.1,0-0.2-0.1-0.3-0.2c-0.8-0.6-0.8-1.9-0.4-2.8c0-0.1,0.1-0.3,0.1-0.4
			C-82.9-1615.3-81.6-1614.3-82.4-1612.8L-82.4-1612.8z"/>
		<path class="st25" d="M-85.4-1620.9c0.1,0,0.2,0,0.3,0c2.9,0.2,5.6,1.9,7,4.5l0.3,0.7h-0.1c0.3,1,0.4,2,0.2,3
			c-0.2,1.3-0.7,2.5-1.6,3.4c-1,1.1-2.4,1.7-3.9,1.7c-1.4,0-2.7-0.5-3.8-1.4c-1.1-1-1.9-2.3-2.1-3.8c-0.2-1.4-0.1-2.9,0.4-4.3
			c0.1-0.4,0.4-0.8,0.8-1.2c0-0.7,0.2-1.4,0.7-1.9C-86.7-1620.6-86.1-1620.9-85.4-1620.9z M-79.2-1616.2c-1.3-2.2-3.5-3.5-6-3.7
			c-0.5-0.1-0.9,0.1-1.3,0.4c-0.3,0.4-0.5,0.9-0.4,1.4v0.3l-0.3,0.2c-0.3,0.2-0.5,0.5-0.6,0.8c-0.4,1.2-0.5,2.5-0.3,3.8
			c0.2,1.2,0.8,2.4,1.8,3.2c0.9,0.8,2,1.2,3.1,1.2c1.2,0,2.3-0.5,3.2-1.3c1.5-1.7,1.8-4,0.9-6.1L-79.2-1616.2z M-84.6-1616.5
			l0.6,0.2c1,0.3,1.8,1,2.2,1.9c0.2,0.5,0.2,1.1-0.1,1.7l0,0l-0.1,0.1c-0.2,0.5-0.7,0.8-1.2,0.8c-0.4,0-0.7-0.1-1-0.4
			c-0.9-0.9-1.1-2.2-0.6-3.3c0-0.1,0.1-0.2,0.1-0.3L-84.6-1616.5z M-82.9-1613L-82.9-1613c0.2-0.3,0.3-0.7,0.2-1
			c-0.2-0.5-0.6-0.9-1.1-1.1c-0.1,0.4-0.4,1.6,0.3,2.1c0.1,0.1,0.2,0.2,0.4,0.2C-83.1-1612.8-83-1612.8-82.9-1613L-82.9-1613z"/>
	</g>
</g>
<g>
	<g>
		<path class="st26" d="M516.8,384.7c0,88.7-71.9,160.6-160.6,160.6s-160.6-71.9-160.6-160.6s71.9-160.6,160.6-160.6l0,0
			C444.8,224,516.8,295.9,516.8,384.7"/>
		<g>
			<text transform="matrix(1 0 0 1 293.3351 462.5332)" class="st8 st27 st28">Planning</text>
			<g transform="translate(-16 10)">
				<path class="st8" d="M368,345.5c-0.3,0-0.5,0-0.8,0.3c-1.1,0.5-2.1,1.3-2.9,2.4c-0.3,0.5-0.3,1.1,0,1.6s0.5,0.8,1.1,1.1
					c0.3,0.3,0.5,0.3,0.8,0.3c0.8,0,1.3-0.3,1.6-1.1c0.3-0.3,0.8-0.5,1.1-0.8c1.1-0.5,1.3-1.6,0.8-2.7
					C369.6,345.8,368.8,345.5,368,345.5"/>
				<path class="st8" d="M365.9,356.6c0-1.1-0.8-1.9-1.9-2.1c-1.1-0.3-1.9,0.8-2.1,1.9c0,0,0,0,0,0.3c0.3,3.2,1.1,6.1,2.7,8.7
					c0.5,1.1,1.6,1.3,2.7,0.8s1.3-1.6,0.8-2.7C367,361.4,366.2,359,365.9,356.6"/>
				<path class="st8" d="M397.5,389.8l-11.9-4.8c-1.1-0.5-1.9-1.3-2.1-2.4v-4c0-0.3,0-0.5,0-0.5c2.1-2.7,8.7-12.2,8.7-21.2
					c0-12.5-8-20.9-19.6-20.9s-19.6,8.5-19.6,20.9c0,9,6.6,18.6,8.7,20.9c0,0.3,0,0.5,0,0.8v4c-0.5,1.1-1.1,1.9-2.1,2.4l-11.9,4.8
					c-3.7,1.6-6.4,5-7.2,9l-1.3,5.8l33.7,6.1l33.7-6.1l-1.3-5.8C403.8,394.8,401.2,391.4,397.5,389.8 M368.8,390.8
					c0,0.8,0.5,1.6,1.3,2.1v9.5l-9-11.7l0.8-0.3c3.4-1.6,5.6-4.8,6.1-8.5v-4c0-1.1-0.3-2.1-0.5-3.2l-0.3-0.5l-0.3-0.5
					c0,0-7.7-9.5-7.7-17.5c0-10.6,6.9-14.3,13.3-14.3s13.3,3.7,13.3,14.3c0,7.7-7.4,17.2-7.7,17.5l-0.3,0.5l-0.3,0.5
					c-0.3,1.1-0.5,2.1-0.5,3.2v4c0.5,3.7,2.7,6.9,6.1,8.5l0.8,0.3l-9,11.7V393c1.1-0.5,1.6-1.9,1.1-2.9c-0.3-0.8-1.1-1.3-2.1-1.3
					h-2.7C369.9,388.7,368.8,389.8,368.8,390.8"/>
				<path class="st8" d="M372.5,330.1c1.3,0,2.4-1.1,2.4-2.4v-5.3c0-1.3-1.1-2.1-2.4-2.1c-1.1,0-2.1,1.1-2.1,2.1v5.3
					C370.2,329.1,371.2,330.1,372.5,330.1"/>
				<path class="st8" d="M349.8,338.4c1.1,0.8,2.4,0.8,3.2-0.3c0.8-0.8,0.8-2.1,0-2.9l-3.7-3.7c-0.8-1.1-2.1-1.1-3.2-0.3
					c-1.1,0.8-1.1,2.1-0.3,3.2l0.3,0.3L349.8,338.4z"/>
				<path class="st8" d="M395.3,377.6c-1.1-0.8-2.4-0.8-3.2,0.3c-0.8,0.8-0.8,2.1,0,2.9l3.7,3.7c0.8,1.1,2.1,1.1,3.2,0.3
					c1.1-0.8,1.1-2.1,0.3-3.2l-0.3-0.3L395.3,377.6z"/>
				<path class="st8" d="M344.7,358c0-1.3-1.1-2.4-2.4-2.4H337c-1.3,0-2.4,0.8-2.4,2.1c0,1.3,0.8,2.4,2.1,2.4h0.3h5.3
					C343.9,360.1,344.7,359,344.7,358"/>
				<path class="st8" d="M407.3,358H402c-1.3,0-2.4,0.8-2.4,2.1c0,1.3,0.8,2.4,2.1,2.4h0.3h5.3c1.3,0,2.4-0.8,2.4-2.1
					C409.6,359,408.9,358,407.3,358C407.5,358,407.5,358,407.3,358"/>
				<path class="st8" d="M347.6,385.3c0.5,0,1.1-0.3,1.6-0.5l3.7-3.7c0.8-0.8,0.8-2.4,0-3.2c-0.8-0.8-2.4-0.8-3.2,0l-3.7,3.7
					c-0.8,0.8-0.8,2.4,0,3.2C346.3,385,346.8,385.3,347.6,385.3"/>
				<path class="st8" d="M393.7,338.9c0.5,0,1.1-0.3,1.6-0.5l3.7-3.7c0.8-0.8,0.8-2.4,0-3.2c-0.8-0.8-2.4-0.8-3.2,0l-3.7,3.7
					c-0.8,0.8-0.8,2.4,0,3.2C392.4,338.6,393.2,338.9,393.7,338.9"/>
			</g>
		</g>
	</g>
	<g>
		<path class="st29" d="M761.5,385.6c0,88.7-71.9,160.6-160.6,160.6s-160.6-71.9-160.6-160.6S512.2,225,600.9,225l0,0
			C689.5,224.9,761.5,296.8,761.5,385.6"/>
		<g>
			<text transform="matrix(1 0 0 1 557.9216 463.0247)" class="st27 st28">Writing</text>
			<path d="M633.8,353l-10.1-10.1c-2.7-2.7-7.2-2.7-9.6,0l0,0l-6.4,6.4l-32.1,32.1c-1.2,1.2-2.2,3-3,4.7l-6.4,18
				c-1,2.7,0.5,5.7,3.2,6.7c1.2,0.5,2.5,0.5,3.5,0l18-6.4c1.7-0.7,3.5-1.7,4.7-3l30.1-30.1l1.7-1.7l6.4-6.4l0,0
				C636.5,360.2,636.5,355.8,633.8,353 M579,384.9l31.6-31.6l5.7,5.7l-32.1,32.1l-5.7-5.7C578.7,385.1,578.7,384.9,579,384.9
				 M589.1,399.7l-11.4,4.2l-4.7-4.7l4.2-11.4v-0.2l12.1,12.1C589.4,399.5,589.1,399.7,589.1,399.7 M592.1,397.7
				c-0.2,0.2-0.2,0.2-0.5,0.5l-5.7-5.7l32.1-32.1l5.7,5.7L592.1,397.7z M630.3,359.5l-4.7,4.9l-0.2,0.2l-13.1-13.1l4.9-4.9
				c0.7-0.7,2.2-0.7,3,0l10.1,10.1C631.1,357.2,631.1,358.5,630.3,359.5L630.3,359.5L630.3,359.5z"/>
		</g>
	</g>
	<g>
		<path class="st30" d="M762.3,168c0,88.7-71.9,160.6-160.6,160.6S441.1,256.7,441.1,168C441,79.3,513,7.4,601.7,7.4
			S762.3,79.3,762.3,168L762.3,168"/>
		<g>
			<text transform="matrix(1 0 0 1 551.9596 226.4239)" class="st8 st27 st28">Design</text>
			<g>
				<path class="st8" d="M628,133.8c16.6-1.5,20-9.3,15.1-16.6c-8.8-13.2-28.2-18.3-47.8-12.4c-24.6,7.5-41,30.3-36.4,50.9
					s28.2,31.2,52.8,23.8c10.2-3.1,19.3-8.9,26.4-17c2.6-3.1,3.6-12.5-8.7-12C616.4,150.9,614.6,134.9,628,133.8 M623.8,115.9
					c2.5-2.5,6.6-2.5,9.1,0s2.5,6.6,0,9.1s-6.6,2.5-9.1,0c-1.2-1.2-1.9-2.9-1.9-4.6S622.6,117.1,623.8,115.9 M569.3,137.1
					c1-2.9,4.1-4.5,7-3.5s4.5,4.1,3.5,7s-4.1,4.5-7,3.5C569.9,143.1,568.3,140,569.3,137.1L569.3,137.1 M579.9,162.7
					c-2,2.1-5.3,2.2-7.5,0.2c-2.1-2-2.2-5.3-0.2-7.5c2-2.1,5.3-2.2,7.5-0.2l0,0C581.8,157.2,581.9,160.6,579.9,162.7 M590.6,127.6
					c-2.6,1.9-6.3,1.3-8.2-1.3s-1.3-6.3,1.3-8.2l0,0c2.6-1.9,6.3-1.4,8.2,1.2s1.4,6.3-1.2,8.2C590.7,127.5,590.6,127.6,590.6,127.6
					 M600.7,116.5c-0.4-3.4,2-6.4,5.4-6.8s6.4,2,6.8,5.4c0.4,3.4-2,6.4-5.4,6.8l0,0C604.2,122.3,601.1,119.8,600.7,116.5
					 M619.5,162.6c0,4.3-3.5,7.8-7.8,7.8s-7.8-3.5-7.8-7.8s3.5-7.8,7.8-7.8c2.1,0,4.1,0.8,5.5,2.3
					C618.7,158.6,619.5,160.5,619.5,162.6"/>
			</g>
		</g>
	</g>
	<g>
		<path class="st31" d="M511.7,168c0,88.7-71.9,160.6-160.6,160.6S190.4,256.7,190.4,168S262.3,7.3,351,7.3S511.7,79.3,511.7,168
			L511.7,168"/>
		<g>
			<g transform="translate(0 23)">
				<path class="st8" d="M405,155.9l-9.7-13.2V91.5c0-2.5-2-4.5-4.5-4.5h-79.6c-2.5,0-4.5,2-4.5,4.5l0,0v51.2l-9.7,12.2
					c-0.3,0.3-0.4,0.7-0.4,1.1v5.4c0,2,1.6,3.6,3.6,3.6l0,0h101.6c2,0,3.6-1.6,3.6-3.6l0,0V156c0-0.4-0.1-0.8-0.4-1.1 M313,93.4h76
					v43h-76V93.4z M361.2,160.7h-20.4v-5.4h20.4V160.7z"/>
				<path class="st8" d="M340.1,107.2C340,107.2,340,107.2,340.1,107.2l-12.3,8.4l-0.1,0.1v2.2c0,0,0,0.1,0.1,0.1l12.2,8.3
					c0,0,0,0,0.1,0c0,0,0,0,0.1,0l0.1-0.1v-3.5v-0.1l-8.5-5.8l8.5-5.8v-0.1v-3.6C340.2,107.3,340.1,107.2,340.1,107.2L340.1,107.2"
					/>
				<path class="st8" d="M361.7,107.2C361.6,107.2,361.6,107.2,361.7,107.2c-0.1,0-0.1,0-0.1,0l-0.1,0.1v3.6c0,0,0,0.1,0.1,0.1
					l8.5,5.8l-8.5,5.8l-0.1,0.1v3.6c0,0,0,0.1,0.1,0.1c0,0,0,0,0.1,0c0,0,0,0,0.1,0l12.2-8.3l0.1-0.1v-2.3c0,0,0-0.1-0.1-0.1
					L361.7,107.2z"/>
				<path class="st8" d="M356.4,105.2H353c0,0-0.1,0-0.1,0.1l-7.8,22.5v0.1l0.1,0.1h3.4c0.1,0,0.1,0,0.1-0.1l7.8-22.5v-0.1
					L356.4,105.2"/>
			</g>
			<text transform="matrix(1 0 0 1 265.1962 225.9831)" class="st8 st27 st28">Engineering</text>
		</g>
	</g>
</g>
</svg>
