<svg width="1000" height="919" viewBox="0 0 1000 919" fill="none" xmlns="http://www.w3.org/2000/svg">
<path d="M997.835 267.27C997.835 320.032 982.189 371.609 952.876 415.479C923.563 459.349 881.899 493.541 833.154 513.732C784.408 533.924 730.77 539.206 679.022 528.913C627.273 518.62 579.74 493.213 542.431 455.905C505.123 418.596 479.715 371.063 469.422 319.315C459.128 267.567 464.411 213.928 484.602 165.182C504.793 116.437 538.985 74.7728 582.855 45.4596C626.724 16.1464 678.301 0.500328 731.063 0.5C766.096 0.499782 800.786 7.39982 833.152 20.8061C865.518 34.2125 894.927 53.8625 919.699 78.6344C944.471 103.406 964.121 132.815 977.528 165.181C990.934 197.547 997.835 232.237 997.835 267.27Z" fill="white" stroke="#333333"/>
<path d="M534.039 272.662C534.039 325.424 518.393 377.001 489.081 420.871C459.768 464.741 418.104 498.934 369.358 519.125C320.613 539.316 266.974 544.599 215.226 534.306C163.478 524.013 115.944 498.606 78.6357 461.297C41.3272 423.989 15.9198 376.456 5.62622 324.707C-4.66732 272.959 0.615364 219.321 20.8063 170.575C40.9972 121.829 75.1894 80.1655 119.059 50.8523C162.929 21.5391 214.506 5.89303 267.268 5.8927C302.301 5.89248 336.991 12.7925 369.357 26.1988C401.723 39.6052 431.132 59.2552 455.904 84.0271C480.676 108.799 500.326 138.207 513.732 170.574C527.139 202.94 534.039 237.629 534.039 272.662Z" fill="white" stroke="#333333"/>
<path d="M764.981 650.17C764.981 702.932 749.335 754.509 720.022 798.379C690.709 842.25 649.045 876.442 600.299 896.633C551.553 916.824 497.914 922.107 446.166 911.813C394.417 901.519 346.883 876.111 309.575 838.802C272.267 801.494 246.86 753.959 236.567 702.211C226.275 650.462 231.558 596.824 251.75 548.078C271.942 499.332 306.135 457.669 350.006 428.356C393.877 399.044 445.454 383.399 498.217 383.4C568.967 383.401 636.82 411.508 686.848 461.537C736.876 511.566 764.981 579.419 764.981 650.17Z" fill="white" stroke="#333333"/>
<path d="M357.334 272.679L341.22 250.757V165.532C341.219 163.553 340.432 161.654 339.031 160.254C337.631 158.855 335.732 158.068 333.752 158.068H201.23C199.25 158.068 197.351 158.855 195.952 160.254C194.552 161.654 193.765 163.553 193.765 165.532V250.757L177.651 271.022C177.229 271.551 176.999 272.207 177 272.884V281.85C177 282.633 177.154 283.407 177.453 284.13C177.752 284.853 178.191 285.51 178.744 286.063C179.297 286.616 179.954 287.055 180.677 287.354C181.4 287.653 182.174 287.807 182.957 287.807H352.025C352.807 287.807 353.582 287.653 354.305 287.354C355.028 287.055 355.684 286.616 356.238 286.063C356.791 285.51 357.229 284.853 357.529 284.13C357.828 283.407 357.982 282.633 357.982 281.85V272.884C357.984 272.207 357.755 271.551 357.334 271.022M204.298 168.609H330.686V240.22H204.298V168.609ZM284.497 280.724H250.481V271.719H284.501L284.497 280.724Z" fill="#1A1311"/>
<path d="M249.249 191.626C249.209 191.625 249.17 191.637 249.138 191.661L228.803 205.537C228.777 205.556 228.755 205.581 228.74 205.61C228.725 205.639 228.717 205.671 228.717 205.704V209.436C228.716 209.469 228.723 209.501 228.738 209.53C228.754 209.56 228.776 209.584 228.803 209.602L249.138 223.483C249.17 223.506 249.209 223.518 249.249 223.517C249.281 223.517 249.312 223.508 249.339 223.493C249.369 223.476 249.394 223.452 249.412 223.423C249.43 223.394 249.44 223.36 249.441 223.326V217.368C249.44 217.335 249.433 217.304 249.418 217.275C249.404 217.246 249.383 217.221 249.357 217.201L235.241 207.564L249.357 197.93C249.383 197.911 249.404 197.885 249.418 197.857C249.433 197.828 249.44 197.796 249.441 197.764V191.824C249.44 191.789 249.43 191.756 249.412 191.727C249.395 191.697 249.369 191.673 249.339 191.657C249.312 191.641 249.281 191.632 249.249 191.632" fill="#1A1311"/>
<path d="M285.192 191.661C285.159 191.638 285.12 191.625 285.08 191.626C285.048 191.624 285.017 191.633 284.99 191.651C284.958 191.668 284.932 191.693 284.913 191.724C284.895 191.755 284.885 191.791 284.885 191.827V197.772C284.884 197.805 284.891 197.837 284.907 197.867C284.922 197.896 284.944 197.921 284.972 197.938L299.092 207.572L284.972 217.213C284.945 217.231 284.923 217.256 284.908 217.285C284.892 217.314 284.885 217.347 284.885 217.379V223.323C284.885 223.359 284.895 223.394 284.914 223.425C284.932 223.456 284.959 223.482 284.99 223.499C285.018 223.514 285.049 223.522 285.08 223.521C285.12 223.523 285.16 223.511 285.192 223.486L305.523 209.606C305.551 209.589 305.575 209.564 305.591 209.535C305.607 209.506 305.614 209.473 305.613 209.439V205.704C305.613 205.671 305.605 205.638 305.59 205.609C305.574 205.58 305.551 205.555 305.523 205.537L285.192 191.661Z" fill="#1A1311"/>
<path d="M276.459 188.373H270.774C270.733 188.372 270.694 188.385 270.661 188.408C270.629 188.432 270.604 188.466 270.592 188.504L257.685 225.93C257.676 225.958 257.673 225.987 257.678 226.016C257.682 226.045 257.693 226.073 257.71 226.096C257.729 226.123 257.754 226.145 257.783 226.16C257.812 226.176 257.844 226.183 257.877 226.183H263.562C263.603 226.182 263.643 226.169 263.676 226.145C263.709 226.121 263.734 226.087 263.747 226.048L276.65 188.627C276.661 188.598 276.664 188.566 276.659 188.535C276.655 188.504 276.643 188.475 276.625 188.449C276.607 188.423 276.582 188.402 276.553 188.387C276.524 188.373 276.491 188.365 276.459 188.366" fill="#1A1311"/>
<path d="M161.305 341.077H146.797V349.772H160.883V354.905H146.797V366.999H161.305V372.131H141.336V335.944H161.305V341.077ZM167.469 349.303H172.766V351.413C174.609 349.584 176.688 348.67 179 348.67C181.656 348.67 183.727 349.506 185.211 351.178C186.492 352.6 187.133 354.92 187.133 358.139V372.131H181.836V359.381C181.836 357.131 181.523 355.577 180.898 354.717C180.289 353.842 179.18 353.405 177.57 353.405C175.82 353.405 174.578 353.983 173.844 355.139C173.125 356.28 172.766 358.272 172.766 361.116V372.131H167.469V349.303ZM215.891 371.592C215.891 372.67 215.852 373.616 215.773 374.428C215.711 375.256 215.617 375.983 215.492 376.608C215.117 378.327 214.383 379.803 213.289 381.038C211.227 383.413 208.391 384.6 204.781 384.6C201.734 384.6 199.227 383.78 197.258 382.139C195.227 380.452 194.055 378.116 193.742 375.131H199.039C199.242 376.256 199.578 377.124 200.047 377.733C201.141 379.155 202.734 379.866 204.828 379.866C208.688 379.866 210.617 377.499 210.617 372.764V369.577C208.523 371.717 206.109 372.788 203.375 372.788C200.266 372.788 197.719 371.663 195.734 369.413C193.734 367.131 192.734 364.28 192.734 360.858C192.734 357.53 193.664 354.702 195.523 352.374C197.523 349.905 200.164 348.67 203.445 348.67C206.32 348.67 208.711 349.741 210.617 351.881V349.303H215.891V371.592ZM210.828 360.764C210.828 358.545 210.234 356.772 209.047 355.444C207.844 354.084 206.305 353.405 204.43 353.405C202.43 353.405 200.852 354.147 199.695 355.631C198.648 356.959 198.125 358.678 198.125 360.788C198.125 362.866 198.648 364.569 199.695 365.897C200.836 367.35 202.414 368.077 204.43 368.077C206.445 368.077 208.039 367.342 209.211 365.874C210.289 364.545 210.828 362.842 210.828 360.764ZM227.82 349.303V372.131H222.547V349.303H227.82ZM221.75 339.811C221.75 338.889 222.086 338.092 222.758 337.42C223.43 336.749 224.234 336.413 225.172 336.413C226.125 336.413 226.938 336.749 227.609 337.42C228.281 338.077 228.617 338.881 228.617 339.834C228.617 340.788 228.281 341.6 227.609 342.272C226.953 342.944 226.148 343.28 225.195 343.28C224.242 343.28 223.43 342.944 222.758 342.272C222.086 341.6 221.75 340.78 221.75 339.811ZM234.5 349.303H239.797V351.413C241.641 349.584 243.719 348.67 246.031 348.67C248.688 348.67 250.758 349.506 252.242 351.178C253.523 352.6 254.164 354.92 254.164 358.139V372.131H248.867V359.381C248.867 357.131 248.555 355.577 247.93 354.717C247.32 353.842 246.211 353.405 244.602 353.405C242.852 353.405 241.609 353.983 240.875 355.139C240.156 356.28 239.797 358.272 239.797 361.116V372.131H234.5V349.303ZM281.633 361.959H265.273C265.414 363.834 266.023 365.327 267.102 366.436C268.18 367.53 269.562 368.077 271.25 368.077C272.562 368.077 273.648 367.764 274.508 367.139C275.352 366.514 276.312 365.358 277.391 363.67L281.844 366.155C281.156 367.327 280.43 368.334 279.664 369.178C278.898 370.006 278.078 370.694 277.203 371.241C276.328 371.772 275.383 372.163 274.367 372.413C273.352 372.663 272.25 372.788 271.062 372.788C267.656 372.788 264.922 371.694 262.859 369.506C260.797 367.303 259.766 364.381 259.766 360.741C259.766 357.131 260.766 354.209 262.766 351.975C264.781 349.772 267.453 348.67 270.781 348.67C274.141 348.67 276.797 349.741 278.75 351.881C280.688 354.006 281.656 356.952 281.656 360.717L281.633 361.959ZM276.219 357.647C275.484 354.834 273.711 353.428 270.898 353.428C270.258 353.428 269.656 353.53 269.094 353.733C268.531 353.92 268.016 354.202 267.547 354.577C267.094 354.936 266.703 355.374 266.375 355.889C266.047 356.405 265.797 356.991 265.625 357.647H276.219ZM308.211 361.959H291.852C291.992 363.834 292.602 365.327 293.68 366.436C294.758 367.53 296.141 368.077 297.828 368.077C299.141 368.077 300.227 367.764 301.086 367.139C301.93 366.514 302.891 365.358 303.969 363.67L308.422 366.155C307.734 367.327 307.008 368.334 306.242 369.178C305.477 370.006 304.656 370.694 303.781 371.241C302.906 371.772 301.961 372.163 300.945 372.413C299.93 372.663 298.828 372.788 297.641 372.788C294.234 372.788 291.5 371.694 289.438 369.506C287.375 367.303 286.344 364.381 286.344 360.741C286.344 357.131 287.344 354.209 289.344 351.975C291.359 349.772 294.031 348.67 297.359 348.67C300.719 348.67 303.375 349.741 305.328 351.881C307.266 354.006 308.234 356.952 308.234 360.717L308.211 361.959ZM302.797 357.647C302.062 354.834 300.289 353.428 297.477 353.428C296.836 353.428 296.234 353.53 295.672 353.733C295.109 353.92 294.594 354.202 294.125 354.577C293.672 354.936 293.281 355.374 292.953 355.889C292.625 356.405 292.375 356.991 292.203 357.647H302.797ZM314 349.303H319.273V351.342C320.242 350.327 321.102 349.631 321.852 349.256C322.617 348.866 323.523 348.67 324.57 348.67C325.961 348.67 327.414 349.124 328.93 350.03L326.516 354.858C325.516 354.139 324.539 353.78 323.586 353.78C320.711 353.78 319.273 355.952 319.273 360.295V372.131H314V349.303ZM337.977 349.303V372.131H332.703V349.303H337.977ZM331.906 339.811C331.906 338.889 332.242 338.092 332.914 337.42C333.586 336.749 334.391 336.413 335.328 336.413C336.281 336.413 337.094 336.749 337.766 337.42C338.438 338.077 338.773 338.881 338.773 339.834C338.773 340.788 338.438 341.6 337.766 342.272C337.109 342.944 336.305 343.28 335.352 343.28C334.398 343.28 333.586 342.944 332.914 342.272C332.242 341.6 331.906 340.78 331.906 339.811ZM344.656 349.303H349.953V351.413C351.797 349.584 353.875 348.67 356.188 348.67C358.844 348.67 360.914 349.506 362.398 351.178C363.68 352.6 364.32 354.92 364.32 358.139V372.131H359.023V359.381C359.023 357.131 358.711 355.577 358.086 354.717C357.477 353.842 356.367 353.405 354.758 353.405C353.008 353.405 351.766 353.983 351.031 355.139C350.312 356.28 349.953 358.272 349.953 361.116V372.131H344.656V349.303ZM393.078 371.592C393.078 372.67 393.039 373.616 392.961 374.428C392.898 375.256 392.805 375.983 392.68 376.608C392.305 378.327 391.57 379.803 390.477 381.038C388.414 383.413 385.578 384.6 381.969 384.6C378.922 384.6 376.414 383.78 374.445 382.139C372.414 380.452 371.242 378.116 370.93 375.131H376.227C376.43 376.256 376.766 377.124 377.234 377.733C378.328 379.155 379.922 379.866 382.016 379.866C385.875 379.866 387.805 377.499 387.805 372.764V369.577C385.711 371.717 383.297 372.788 380.562 372.788C377.453 372.788 374.906 371.663 372.922 369.413C370.922 367.131 369.922 364.28 369.922 360.858C369.922 357.53 370.852 354.702 372.711 352.374C374.711 349.905 377.352 348.67 380.633 348.67C383.508 348.67 385.898 349.741 387.805 351.881V349.303H393.078V371.592ZM388.016 360.764C388.016 358.545 387.422 356.772 386.234 355.444C385.031 354.084 383.492 353.405 381.617 353.405C379.617 353.405 378.039 354.147 376.883 355.631C375.836 356.959 375.312 358.678 375.312 360.788C375.312 362.866 375.836 364.569 376.883 365.897C378.023 367.35 379.602 368.077 381.617 368.077C383.633 368.077 385.227 367.342 386.398 365.874C387.477 364.545 388.016 362.842 388.016 360.764Z" fill="#1A1311"/>
<path d="M778.179 215.397C805.828 212.958 811.517 199.949 803.375 187.755C788.755 165.856 756.453 157.235 723.861 167.139C682.848 179.598 655.716 217.495 663.259 251.783C670.801 286.071 710.167 303.766 751.185 291.304C768.171 286.211 783.372 276.425 795.041 263.072C799.427 257.981 800.949 242.224 780.618 243.037C758.943 243.909 755.941 217.355 778.179 215.392M771.141 185.665C772.897 183.909 775.208 182.816 777.68 182.572C780.151 182.329 782.631 182.95 784.696 184.33C786.761 185.71 788.284 187.764 789.005 190.141C789.725 192.517 789.6 195.071 788.649 197.365C787.699 199.66 785.982 201.554 783.791 202.724C781.601 203.895 779.072 204.27 776.636 203.785C774.2 203.3 772.008 201.986 770.432 200.066C768.857 198.146 767.996 195.739 767.996 193.255C768.005 190.41 769.135 187.683 771.141 185.665ZM680.447 220.901C681.024 219.162 682.105 217.632 683.551 216.507C684.998 215.381 686.745 214.71 688.573 214.577C690.401 214.444 692.228 214.857 693.822 215.762C695.415 216.667 696.705 218.024 697.528 219.662C698.35 221.3 698.669 223.145 698.443 224.964C698.217 226.783 697.457 228.494 696.259 229.881C695.061 231.268 693.479 232.269 691.712 232.757C689.945 233.245 688.074 233.199 686.334 232.623C685.177 232.241 684.107 231.634 683.185 230.838C682.263 230.041 681.507 229.071 680.96 227.982C680.413 226.894 680.087 225.708 679.999 224.493C679.91 223.278 680.063 222.057 680.447 220.901ZM698.184 263.518C696.99 264.78 695.45 265.66 693.757 266.046C692.063 266.432 690.294 266.307 688.671 265.687C687.049 265.068 685.647 263.981 684.642 262.564C683.638 261.147 683.076 259.465 683.028 257.729C682.979 255.993 683.447 254.281 684.372 252.811C685.296 251.341 686.636 250.178 688.221 249.469C689.807 248.76 691.567 248.538 693.279 248.829C694.991 249.121 696.578 249.914 697.839 251.107C699.528 252.709 700.512 254.915 700.577 257.242C700.641 259.568 699.781 261.825 698.184 263.518ZM715.888 205.157C714.848 205.905 713.67 206.441 712.423 206.734C711.176 207.027 709.883 207.072 708.619 206.865C707.354 206.659 706.143 206.205 705.054 205.531C703.965 204.856 703.019 203.973 702.271 202.933C701.523 201.893 700.987 200.716 700.694 199.469C700.401 198.222 700.356 196.929 700.563 195.665C700.769 194.4 701.223 193.189 701.898 192.1C702.572 191.011 703.455 190.065 704.495 189.317C705.534 188.545 706.716 187.987 707.972 187.676C709.228 187.365 710.534 187.307 711.813 187.506C713.092 187.704 714.318 188.155 715.421 188.832C716.524 189.51 717.482 190.399 718.237 191.45C718.993 192.501 719.532 193.692 719.823 194.953C720.114 196.214 720.152 197.52 719.933 198.796C719.714 200.071 719.244 201.291 718.549 202.383C717.855 203.475 716.95 204.418 715.888 205.157ZM732.826 186.645C732.59 184.632 732.957 182.594 733.88 180.79C734.802 178.986 736.239 177.495 738.009 176.508C739.778 175.52 741.801 175.08 743.821 175.242C745.841 175.404 747.768 176.162 749.357 177.419C750.947 178.676 752.127 180.377 752.75 182.305C753.373 184.234 753.41 186.304 752.856 188.253C752.302 190.203 751.182 191.944 749.639 193.257C748.095 194.57 746.197 195.396 744.184 195.63C741.486 195.944 738.774 195.174 736.644 193.489C734.514 191.804 733.141 189.342 732.826 186.645ZM764.056 263.427C764.055 266.436 763.011 269.352 761.102 271.678C759.192 274.004 756.535 275.596 753.584 276.183C750.632 276.769 747.569 276.315 744.915 274.896C742.261 273.477 740.181 271.182 739.029 268.402C737.878 265.622 737.726 262.528 738.599 259.648C739.472 256.769 741.317 254.281 743.819 252.609C746.321 250.937 749.325 250.184 752.32 250.478C755.315 250.773 758.115 252.096 760.244 254.224C762.677 256.669 764.047 259.977 764.056 263.427Z" fill="#1A1311"/>
<path d="M664.336 377.123V340.936H671.93C675.57 340.936 678.445 341.295 680.555 342.014C682.82 342.717 684.875 343.912 686.719 345.6C690.453 349.006 692.32 353.482 692.32 359.029C692.32 364.592 690.375 369.092 686.484 372.529C684.531 374.248 682.484 375.443 680.344 376.115C678.344 376.787 675.508 377.123 671.836 377.123H664.336ZM669.797 371.99H672.258C674.711 371.99 676.75 371.732 678.375 371.217C680 370.67 681.469 369.803 682.781 368.615C685.469 366.162 686.812 362.967 686.812 359.029C686.812 355.061 685.484 351.842 682.828 349.373C680.438 347.17 676.914 346.068 672.258 346.068H669.797V371.99ZM718.992 366.951H702.633C702.773 368.826 703.383 370.318 704.461 371.428C705.539 372.521 706.922 373.068 708.609 373.068C709.922 373.068 711.008 372.756 711.867 372.131C712.711 371.506 713.672 370.35 714.75 368.662L719.203 371.146C718.516 372.318 717.789 373.326 717.023 374.17C716.258 374.998 715.438 375.686 714.562 376.232C713.688 376.764 712.742 377.154 711.727 377.404C710.711 377.654 709.609 377.779 708.422 377.779C705.016 377.779 702.281 376.686 700.219 374.498C698.156 372.295 697.125 369.373 697.125 365.732C697.125 362.123 698.125 359.201 700.125 356.967C702.141 354.764 704.812 353.662 708.141 353.662C711.5 353.662 714.156 354.732 716.109 356.873C718.047 358.998 719.016 361.943 719.016 365.709L718.992 366.951ZM713.578 362.639C712.844 359.826 711.07 358.42 708.258 358.42C707.617 358.42 707.016 358.521 706.453 358.725C705.891 358.912 705.375 359.193 704.906 359.568C704.453 359.928 704.062 360.365 703.734 360.881C703.406 361.396 703.156 361.982 702.984 362.639H713.578ZM738.047 358.186L733.688 360.506C733 359.1 732.148 358.396 731.133 358.396C730.648 358.396 730.234 358.561 729.891 358.889C729.547 359.201 729.375 359.607 729.375 360.107C729.375 360.982 730.391 361.85 732.422 362.709C735.219 363.912 737.102 365.021 738.07 366.037C739.039 367.053 739.523 368.42 739.523 370.139C739.523 372.342 738.711 374.186 737.086 375.67C735.508 377.076 733.602 377.779 731.367 377.779C727.539 377.779 724.828 375.912 723.234 372.178L727.734 370.092C728.359 371.186 728.836 371.881 729.164 372.178C729.805 372.771 730.57 373.068 731.461 373.068C733.242 373.068 734.133 372.256 734.133 370.631C734.133 369.693 733.445 368.818 732.07 368.006C731.539 367.74 731.008 367.482 730.477 367.232C729.945 366.982 729.406 366.725 728.859 366.459C727.328 365.709 726.25 364.959 725.625 364.209C724.828 363.256 724.43 362.029 724.43 360.529C724.43 358.545 725.109 356.904 726.469 355.607C727.859 354.311 729.547 353.662 731.531 353.662C734.453 353.662 736.625 355.17 738.047 358.186ZM749.555 354.295V377.123H744.281V354.295H749.555ZM743.484 344.803C743.484 343.881 743.82 343.084 744.492 342.412C745.164 341.74 745.969 341.404 746.906 341.404C747.859 341.404 748.672 341.74 749.344 342.412C750.016 343.068 750.352 343.873 750.352 344.826C750.352 345.779 750.016 346.592 749.344 347.264C748.688 347.936 747.883 348.271 746.93 348.271C745.977 348.271 745.164 347.936 744.492 347.264C743.82 346.592 743.484 345.771 743.484 344.803ZM778.312 376.584C778.312 377.662 778.273 378.607 778.195 379.42C778.133 380.248 778.039 380.975 777.914 381.6C777.539 383.318 776.805 384.795 775.711 386.029C773.648 388.404 770.812 389.592 767.203 389.592C764.156 389.592 761.648 388.771 759.68 387.131C757.648 385.443 756.477 383.107 756.164 380.123H761.461C761.664 381.248 762 382.115 762.469 382.725C763.562 384.146 765.156 384.857 767.25 384.857C771.109 384.857 773.039 382.49 773.039 377.756V374.568C770.945 376.709 768.531 377.779 765.797 377.779C762.688 377.779 760.141 376.654 758.156 374.404C756.156 372.123 755.156 369.271 755.156 365.85C755.156 362.521 756.086 359.693 757.945 357.365C759.945 354.896 762.586 353.662 765.867 353.662C768.742 353.662 771.133 354.732 773.039 356.873V354.295H778.312V376.584ZM773.25 365.756C773.25 363.537 772.656 361.764 771.469 360.436C770.266 359.076 768.727 358.396 766.852 358.396C764.852 358.396 763.273 359.139 762.117 360.623C761.07 361.951 760.547 363.67 760.547 365.779C760.547 367.857 761.07 369.561 762.117 370.889C763.258 372.342 764.836 373.068 766.852 373.068C768.867 373.068 770.461 372.334 771.633 370.865C772.711 369.537 773.25 367.834 773.25 365.756ZM784.969 354.295H790.266V356.404C792.109 354.576 794.188 353.662 796.5 353.662C799.156 353.662 801.227 354.498 802.711 356.17C803.992 357.592 804.633 359.912 804.633 363.131V377.123H799.336V364.373C799.336 362.123 799.023 360.568 798.398 359.709C797.789 358.834 796.68 358.396 795.07 358.396C793.32 358.396 792.078 358.975 791.344 360.131C790.625 361.271 790.266 363.264 790.266 366.107V377.123H784.969V354.295Z" fill="#1A1311"/>
<path d="M441.932 721.647V685.46H449.525C453.166 685.46 456.041 685.819 458.15 686.538C460.416 687.241 462.471 688.436 464.314 690.124C468.049 693.53 469.916 698.007 469.916 703.553C469.916 709.116 467.971 713.616 464.08 717.053C462.127 718.772 460.08 719.968 457.939 720.639C455.939 721.311 453.104 721.647 449.432 721.647H441.932ZM447.393 716.514H449.854C452.307 716.514 454.346 716.257 455.971 715.741C457.596 715.194 459.064 714.327 460.377 713.139C463.064 710.686 464.408 707.491 464.408 703.553C464.408 699.585 463.08 696.366 460.424 693.897C458.033 691.694 454.51 690.593 449.854 690.593H447.393V716.514ZM476.807 721.647V682.999L503.197 710.608V685.46H508.658V723.85L482.268 696.311V721.647H476.807ZM522.814 685.46V707.257C522.814 710.366 523.322 712.639 524.338 714.077C525.854 716.155 527.986 717.194 530.736 717.194C533.502 717.194 535.643 716.155 537.158 714.077C538.174 712.686 538.682 710.413 538.682 707.257V685.46H544.143V708.757C544.143 712.569 542.955 715.71 540.58 718.178C537.908 720.928 534.627 722.303 530.736 722.303C526.846 722.303 523.572 720.928 520.916 718.178C518.541 715.71 517.354 712.569 517.354 708.757V685.46H522.814Z" fill="#1A1311"/>
<path d="M408.799 612.544H365.441V617.393H408.799V612.544Z" fill="#A2884B"/>
<path d="M379.572 641.096L376.185 637.614L387.121 626.677V601.996H391.962V628.707L379.572 641.096Z" fill="#A2884B"/>
<path d="M334.667 610.028H286.274V614.877H334.667V610.028Z" fill="#A2884B"/>
<path d="M293.341 641.191L289.953 637.803L308.05 619.707V601.996H312.89V621.642L293.341 641.191Z" fill="#A2884B"/>
<path d="M312.231 618.981L308.809 622.404L327.34 640.936L330.763 637.513L312.231 618.981Z" fill="#A2884B"/>
<path d="M481.582 601.996H476.742V606.718H481.582V601.996Z" fill="#A2884B"/>
<path d="M488.065 601.996H483.225V606.718H488.065V601.996Z" fill="#A2884B"/>
<path d="M481.581 639.159H444.416V634.319H476.742V614.965H444.416V610.125H481.581V639.159Z" fill="#A2884B"/>
<path d="M547.393 626.095L543.91 622.707L551.652 614.965H519.616V610.125H563.265L547.393 626.095Z" fill="#A2884B"/>
<path d="M531.686 601.322L527.128 602.943L540.434 640.358L544.992 638.737L531.686 601.322Z" fill="#A2884B"/>
<path d="M644.371 610.125H595.978V614.973H644.371V610.125Z" fill="#A2884B"/>
<path d="M603.043 641.288L599.655 637.9L617.752 619.704V601.995H622.592V621.739L603.043 641.288Z" fill="#A2884B"/>
<path d="M621.88 618.979L618.458 622.401L636.987 640.93L640.409 637.508L621.88 618.979Z" fill="#A2884B"/>
<path d="M722.567 618.158H717.727V612.546H679.013V618.158H674.173V607.707H722.566L722.567 618.158Z" fill="#A2884B"/>
<path d="M685.404 601.996H680.564V608.394H685.404V601.996Z" fill="#A2884B"/>
<path d="M700.792 601.996H695.952V608.394H700.792V601.996Z" fill="#A2884B"/>
<path d="M716.083 601.996H711.243V608.394H716.083V601.996Z" fill="#A2884B"/>
<path d="M701.86 639.354H693.042V634.514H697.01V626.577H701.86V639.354Z" fill="#A2884B"/>
<path d="M699.153 628.998L695.476 625.902L700.121 620.286H687.055V615.449H710.572L699.153 628.998Z" fill="#A2884B"/>
<path d="M722.569 625.224H674.176V630.073H722.569V625.224Z" fill="#A2884B"/>
</svg>
