<svg width="68" height="61" viewBox="0 0 68 61" fill="none" xmlns="http://www.w3.org/2000/svg">
<path d="M55.843 19.5859C55.1383 19.3433 54.4097 19.1136 53.657 18.8969C53.7803 18.3929 53.893 17.8959 53.995 17.4059C55.65 9.37192 54.568 2.89992 50.873 0.768919C47.33 -1.27408 41.535 0.855919 35.683 5.94892C35.1203 6.43892 34.5567 6.95625 33.992 7.50092C33.616 7.14159 33.241 6.79525 32.867 6.46192C26.732 1.01592 20.585 -1.27908 16.893 0.857919C13.353 2.90692 12.305 8.99192 13.793 16.6049C13.937 17.3383 14.1037 18.0883 14.293 18.8549C13.423 19.1019 12.583 19.3649 11.779 19.6449C4.592 22.1529 0 26.0819 0 30.1569C0 34.3659 4.93 38.5879 12.42 41.1479C13.0113 41.3479 13.6233 41.5393 14.256 41.7219C14.0507 42.5479 13.873 43.3559 13.723 44.1459C12.302 51.6279 13.412 57.5679 16.942 59.6049C20.589 61.7049 26.709 59.5459 32.668 54.3369C33.1393 53.9249 33.6117 53.4896 34.085 53.0309C34.699 53.6222 35.311 54.1806 35.921 54.7059C41.693 59.6729 47.394 61.6789 50.921 59.6369C54.564 57.5279 55.748 51.1459 54.211 43.3819C54.0937 42.7893 53.958 42.1843 53.804 41.5669C54.234 41.4396 54.655 41.3079 55.067 41.1719C62.853 38.5919 67.919 34.4219 67.919 30.1559C67.919 26.0659 63.179 22.1099 55.843 19.5849V19.5859ZM54.155 38.4189C53.7837 38.5416 53.4033 38.6606 53.014 38.7759C52.0643 35.8345 50.9153 32.9612 49.575 30.1759C50.865 27.4265 51.9695 24.5939 52.881 21.6969C53.5757 21.8969 54.2487 22.1093 54.9 22.3339C61.185 24.4979 65.019 27.6969 65.019 30.1619C65.019 32.7879 60.879 36.1959 54.156 38.4239L54.155 38.4189ZM51.365 43.9469C52.0231 46.8895 52.134 49.9282 51.692 52.9109C51.292 55.0909 50.474 56.5449 49.468 57.1269C47.328 58.3659 42.75 56.7549 37.814 52.5069C37.248 52.0203 36.6787 51.5013 36.106 50.9499C38.1646 48.6716 40.067 46.2568 41.8 43.7219C44.8957 43.4595 47.9696 42.9844 51 42.2999C51.1387 42.8586 51.2613 43.4063 51.368 43.9429L51.365 43.9469ZM23.155 56.9129C21.064 57.6519 19.398 57.6729 18.391 57.0919C16.249 55.8559 15.358 51.0869 16.573 44.6919C16.7123 43.9586 16.879 43.2069 17.073 42.4369C20.0905 43.0851 23.1485 43.5278 26.226 43.7619C28.0097 46.2869 29.9572 48.6921 32.056 50.9619C31.6227 51.3799 31.1913 51.7773 30.762 52.1539C28.5421 54.1933 25.9658 55.8068 23.162 56.9139L23.155 56.9129ZM13.355 38.4029C10.4785 37.4982 7.79313 36.0718 5.433 34.1949C3.752 32.7519 2.9 31.3189 2.9 30.1569C2.9 27.6839 6.587 24.5289 12.737 22.3849C13.483 22.1249 14.264 21.8799 15.075 21.6489C15.9879 24.5781 17.0937 27.4437 18.385 30.2269C17.0774 33.05 15.9577 35.9563 15.033 38.9269C14.455 38.7609 13.8963 38.5859 13.357 38.4019L13.355 38.4029ZM16.639 16.0479C15.363 9.52492 16.21 4.60392 18.339 3.36892C20.611 2.05392 25.639 3.92892 30.931 8.63092C31.2697 8.93159 31.6093 9.24525 31.95 9.57192C29.8652 11.8281 27.9323 14.22 26.164 16.7319C23.1158 17.0055 20.0884 17.4762 17.101 18.1409C16.9243 17.4303 16.7687 16.7329 16.634 16.0489L16.639 16.0479ZM45.939 23.2819C45.267 22.1213 44.5787 20.9879 43.874 19.8819C46.041 20.1559 48.117 20.5199 50.067 20.9649C49.441 22.9495 48.7154 24.9013 47.893 26.8129C47.277 25.6436 46.6257 24.4656 45.939 23.2789V23.2819ZM33.992 11.6459C35.4058 13.1858 36.7408 14.7962 37.992 16.4709C36.6633 16.4083 35.3203 16.3749 33.963 16.3709C32.6197 16.3709 31.2863 16.4023 29.963 16.4649C31.283 14.7249 32.634 13.1079 33.994 11.6419L33.992 11.6459ZM21.968 23.2999C21.2967 24.4639 20.6577 25.6346 20.051 26.8119C19.206 24.8119 18.483 22.8379 17.893 20.9349C19.831 20.5009 21.893 20.1469 24.051 19.8779C23.3377 20.9906 22.6437 22.1313 21.969 23.2999H21.968ZM24.112 40.6389C22.0095 40.411 19.9201 40.0752 17.852 39.6329C18.452 37.6959 19.191 35.6839 20.052 33.6329C20.66 34.8069 21.302 35.9783 21.978 37.1469C22.666 38.3356 23.3767 39.4983 24.11 40.6349L24.112 40.6389ZM34.072 48.8719C32.697 47.3879 31.325 45.7469 29.985 43.9819C31.2857 44.0333 32.6103 44.0589 33.959 44.0589C35.3437 44.0589 36.7103 44.0286 38.059 43.9679C36.8145 45.6682 35.4838 47.3037 34.072 48.8679V48.8719ZM47.921 33.5339C48.7837 35.4848 49.5444 37.4791 50.2 39.5089C48.1082 39.9789 45.9933 40.3393 43.864 40.5889C44.5693 39.4716 45.2643 38.3196 45.949 37.1329C46.641 35.9329 47.2977 34.7329 47.919 33.5329L47.921 33.5339ZM43.438 35.6829C42.376 37.5239 41.286 39.2829 40.18 40.9399C38.165 41.0839 36.08 41.1579 33.96 41.1579C31.84 41.1579 29.79 41.0919 27.811 40.9639C26.66 39.2829 25.546 37.5209 24.491 35.6989C23.439 33.8819 22.47 32.0489 21.591 30.2269C22.468 28.3999 23.434 26.5659 24.48 24.7519C25.529 22.9329 26.633 21.1789 27.773 19.5089C29.793 19.3559 31.864 19.2769 33.958 19.2769C36.058 19.2769 38.135 19.3569 40.158 19.5109C41.281 21.1689 42.378 22.9169 43.431 24.7359C44.496 26.5759 45.474 28.3979 46.359 30.1849C45.477 32.0029 44.501 33.8439 43.441 35.6849L43.438 35.6829ZM49.423 3.28292C51.697 4.59492 52.582 9.88292 51.153 16.8209C51.0617 17.2636 50.96 17.7136 50.848 18.1709C47.856 17.4927 44.8224 17.0133 41.767 16.7359C40.0166 14.2213 38.0985 11.8275 36.026 9.57092C36.548 9.06892 37.0687 8.59125 37.588 8.13792C42.602 3.77392 47.288 2.05092 49.424 3.28292H49.423ZM33.96 24.0919C35.1595 24.0919 36.3321 24.4476 37.3295 25.1141C38.3269 25.7805 39.1043 26.7277 39.5633 27.8359C40.0224 28.9442 40.1425 30.1636 39.9085 31.3401C39.6744 32.5166 39.0968 33.5973 38.2486 34.4455C37.4004 35.2937 36.3197 35.8714 35.1432 36.1054C33.9667 36.3394 32.7473 36.2193 31.639 35.7603C30.5308 35.3012 29.5836 34.5238 28.9171 33.5265C28.2507 32.5291 27.895 31.3565 27.895 30.1569C27.895 28.5484 28.534 27.0057 29.6714 25.8683C30.8088 24.7309 32.3515 24.0919 33.96 24.0919Z" fill="#030303"/>
</svg>
