<svg width="102" height="100" viewBox="0 0 102 100" fill="none" xmlns="http://www.w3.org/2000/svg">
<path d="M93.8244 77.3399C88.2888 77.2205 83.9877 77.7382 80.3637 79.2913C79.3283 79.6896 77.6557 79.6896 77.5362 81.0038C78.0937 81.5613 78.1734 82.4773 78.6513 83.2339C79.4876 84.6278 80.9213 86.4995 82.2355 87.4553C83.709 88.5704 85.1427 89.6855 86.656 90.6413C89.364 92.3139 92.3907 93.2697 95.0589 94.9423C96.5722 95.8981 98.1254 97.1725 99.6387 98.2079C100.395 98.7654 100.873 99.6814 101.869 100V99.8009C101.391 99.1637 101.232 98.2876 100.754 97.5707C100.077 96.8937 99.3599 96.2565 98.6829 95.5795C96.6917 92.8714 94.1828 90.5218 91.4747 88.5704C89.2446 87.0571 84.4258 84.9862 83.5098 82.3976C83.5098 82.3976 83.4302 82.318 83.3904 82.2782C84.9037 82.1587 86.7356 81.6012 88.1693 81.1631C90.5189 80.5259 92.6695 80.6852 95.0987 80.048C96.2138 79.7692 97.3289 79.4108 98.444 79.0922V78.455C97.2094 77.2205 96.2935 75.5478 94.9793 74.3531C91.4349 71.2866 87.5719 68.3396 83.5497 65.8307C81.3992 64.4369 78.6115 63.5607 76.3415 62.366C75.5052 61.9677 74.1113 61.7288 73.6334 61.0518C72.3989 59.5385 71.682 57.5074 70.8059 55.7153C68.8147 51.8922 66.8633 47.6708 65.111 43.6485C63.8765 40.9405 63.1198 38.2324 61.5666 35.7633C54.4381 23.9753 46.6723 16.8468 34.7649 9.83768C32.2161 8.36417 29.1496 7.76681 25.884 7.01015C24.1716 6.9305 22.4193 6.81102 20.7069 6.73138C19.5918 6.25348 18.4767 4.93928 17.5209 4.30209C13.5385 1.83298 3.34344 -3.58313 0.436267 3.54543C-1.43548 8.04558 3.22397 12.4661 4.81695 14.7759C6.01168 16.3689 7.525 18.161 8.36131 19.9531C8.8392 21.1478 8.9985 22.3823 9.47639 23.6169C10.5915 26.6834 11.6269 30.0684 13.0606 32.896C13.8172 34.3695 14.6536 35.8828 15.6093 37.197C16.1669 37.9537 17.1227 38.3121 17.3218 39.5466C16.366 40.9405 16.2864 43.0114 15.7288 44.7238C13.2199 52.5692 14.2155 62.2465 17.72 68.021C18.8351 69.7335 21.4635 73.5566 25.0079 72.123C28.1142 70.8884 27.4372 66.9458 28.3531 63.4811C28.5523 62.6448 28.4328 62.0872 28.831 61.5297C28.831 61.6093 28.831 61.6492 28.831 61.6492C29.7868 63.6005 30.7824 65.4723 31.6586 67.3839C33.8091 70.7689 37.5526 74.3133 40.6589 76.6629C42.3315 77.8975 43.6457 80.048 45.7165 80.8047V80.6055H45.5971C45.1988 79.9683 44.5616 79.6896 44.0041 79.2117C42.7695 77.9771 41.3757 76.424 40.4199 75.07C37.5127 71.207 34.964 66.906 32.6542 62.4456C31.5391 60.2951 30.5833 57.9455 29.6673 55.795C29.2691 54.9587 29.2691 53.7241 28.5523 53.286C27.5168 54.7994 26.0035 56.1136 25.207 57.9853C23.8928 60.9721 23.7335 64.636 23.2556 68.4591C22.9768 68.5388 23.1361 68.4591 22.9768 68.5786C20.7467 68.021 19.99 65.7511 19.1537 63.7997C17.0828 58.8614 16.7244 50.9762 18.5165 45.2813C18.9944 43.8078 21.0653 39.2679 20.229 37.874C19.8307 36.5598 18.4369 35.8032 17.6802 34.7677C16.7642 33.4535 15.8085 31.7809 15.1713 30.3472C13.4987 26.4842 12.6623 22.1832 10.8702 18.2804C10.0339 16.4883 8.60026 14.6166 7.40553 12.944C6.09132 11.0722 4.61782 9.75803 3.58239 7.52786C3.22397 6.7712 2.74608 5.53665 3.30362 4.70033C3.42309 4.14279 3.70186 3.94367 4.2594 3.78437C5.17536 3.02771 7.72412 3.9835 8.64008 4.42156C11.1888 5.457 13.3394 6.41278 15.4899 7.88628C16.4457 8.5633 17.4811 9.8775 18.7555 10.2359H20.229C22.4591 10.7138 24.9282 10.3554 26.9991 10.9926C30.6629 12.1873 34.0082 13.8998 36.995 15.7715C46.075 21.5062 53.5619 29.71 58.6196 39.467C59.4559 41.06 59.8144 42.5335 60.571 44.1663C62.0445 47.5513 63.8366 51.0161 65.2703 54.3613C66.7438 57.6269 68.0978 60.9323 70.2085 63.6404C71.244 65.1139 75.3857 65.8705 77.2574 66.6272C78.6513 67.2644 80.8018 67.8219 82.0364 68.5786C84.386 70.0521 86.7356 71.6849 88.9658 73.2779C90.1605 74.2336 93.6252 75.9461 93.8244 77.3399Z" fill="black"/>
</svg>
